<svg width="24" height="24" viewBox="0 0 24 24" fill="none" xmlns="http://www.w3.org/2000/svg">
<g clip-path="url(#clip0_253_6303)">
<path d="M12 24C18.6274 24 24 18.6274 24 12C24 5.37258 18.6274 0 12 0C5.37258 0 0 5.37258 0 12C0 18.6274 5.37258 24 12 24Z" fill="#FCFCFC"/>
<path d="M16.1782 10.164C16.1782 7.62599 14.1208 5.5686 11.5829 5.5686C9.71002 5.5686 8.1 6.68939 7.38412 8.29645L6.81736 10.3512L7.33908 10.8729L6.29559 12.9599L7.33908 13.4816L6.81736 14.0033V14.5251L7.33908 15.0468V16.0903L7.8608 16.612L9.426 16.0903C9.426 16.0903 9.426 16.612 9.94772 17.1337C10.4694 17.6555 10.9912 18.699 10.9912 18.699C10.9912 18.699 12.5565 19.2207 13.5999 17.6555C14.6434 16.0903 15.6869 15.5685 15.6869 15.5685L14.6812 13.5569C15.6009 12.7168 16.1782 11.508 16.1782 10.164Z" fill="black"/>
<path d="M16.5528 11.9213C18.6729 11.5636 19.0261 7.41211 19.0261 7.41211H16.1044C17.6174 11.0643 16.0337 11.31 16.0337 11.31C15.8192 11.1503 8.14114 7.51303 7.89776 7.42055C7.83912 7.49902 7.62326 7.70512 7.36086 8.34684C7.0984 8.98856 7.034 9.56588 7.034 9.56588C7.1569 9.64598 15.3109 12.4932 15.5265 12.5169C15.9542 12.7966 16.4805 13.6329 16.1864 16.1125L18.9986 15.3199C18.9987 15.3199 18.0443 12.781 16.5528 11.9213Z" fill="#ACABB1"/>
</g>
<defs>
<clipPath id="clip0_253_6303">
<rect width="24" height="24" fill="white"/>
</clipPath>
</defs>
</svg>
