<svg width="1980" height="1080" viewBox="0 0 1980 1080" fill="none" xmlns="http://www.w3.org/2000/svg">
<mask id="path-1-inside-1_2806_1693" fill="white">
<path d="M0 0H1980V1080H0V0Z"/>
</mask>
<path d="M0 0H1980V1080H0V0Z" fill="white"/>
<path d="M1979 0V1080H1981V0H1979Z" fill="#EBEBEB" mask="url(#path-1-inside-1_2806_1693)"/>
<path d="M112.125 88.375C109.99 88.375 108.104 87.8698 106.469 86.8594C104.833 85.849 103.557 84.4427 102.641 82.6406C101.724 80.8385 101.266 78.75 101.266 76.375C101.266 73.9792 101.724 71.8802 102.641 70.0781C103.557 68.276 104.828 66.8698 106.453 65.8594C108.089 64.849 109.979 64.3438 112.125 64.3438C113.823 64.3438 115.359 64.6771 116.734 65.3438C118.12 66.0104 119.266 66.9531 120.172 68.1719C121.078 69.3802 121.667 70.8125 121.938 72.4688H118.406C118.062 70.8854 117.328 69.6667 116.203 68.8125C115.089 67.9479 113.74 67.5156 112.156 67.5156C110.625 67.5156 109.307 67.8854 108.203 68.625C107.099 69.3646 106.245 70.401 105.641 71.7344C105.047 73.0677 104.75 74.6146 104.75 76.375C104.75 78.1354 105.047 79.6771 105.641 81C106.234 82.3229 107.083 83.3542 108.188 84.0938C109.302 84.8333 110.625 85.2031 112.156 85.2031C113.729 85.2031 115.073 84.776 116.188 83.9219C117.312 83.0677 118.057 81.8542 118.422 80.2812H121.938C121.667 81.9271 121.078 83.3594 120.172 84.5781C119.266 85.7865 118.12 86.724 116.734 87.3906C115.359 88.0469 113.823 88.375 112.125 88.375ZM131.949 88.375C130.376 88.375 128.996 88.0104 127.809 87.2812C126.621 86.5521 125.694 85.5417 125.028 84.25C124.371 82.9583 124.043 81.4688 124.043 79.7812C124.043 78.0729 124.371 76.5729 125.028 75.2812C125.694 73.9792 126.621 72.9635 127.809 72.2344C128.996 71.4948 130.376 71.125 131.949 71.125C133.522 71.125 134.897 71.4948 136.074 72.2344C137.262 72.9635 138.184 73.9792 138.84 75.2812C139.507 76.5729 139.84 78.0729 139.84 79.7812C139.84 81.4688 139.507 82.9583 138.84 84.25C138.184 85.5417 137.262 86.5521 136.074 87.2812C134.897 88.0104 133.522 88.375 131.949 88.375ZM131.949 85.5312C133.366 85.5312 134.481 85.0104 135.293 83.9688C136.106 82.9271 136.512 81.5312 136.512 79.7812C136.512 78.0104 136.1 76.599 135.278 75.5469C134.465 74.4948 133.356 73.9688 131.949 73.9688C130.543 73.9688 129.429 74.4948 128.606 75.5469C127.793 76.5885 127.387 78 127.387 79.7812C127.387 81.5417 127.793 82.9427 128.606 83.9844C129.418 85.0156 130.533 85.5312 131.949 85.5312ZM148.571 88.3281C147.446 88.3281 146.43 88.0833 145.524 87.5938C144.628 87.0938 143.914 86.3594 143.383 85.3906C142.862 84.4219 142.602 83.2188 142.602 81.7812V71.5H145.899V81.375C145.899 82.6979 146.216 83.6979 146.852 84.375C147.487 85.0417 148.378 85.375 149.524 85.375C150.638 85.375 151.576 85.0312 152.336 84.3438C153.107 83.6458 153.493 82.5312 153.493 81V71.5H156.789V88H153.555V85.5156C152.43 87.3906 150.769 88.3281 148.571 88.3281ZM163.645 78.5V88H160.348V71.5H163.583V73.9844C164.708 72.1094 166.369 71.1719 168.567 71.1719C169.702 71.1719 170.718 71.4219 171.614 71.9219C172.52 72.4115 173.234 73.1406 173.754 74.1094C174.275 75.0781 174.536 76.2812 174.536 77.7188V88H171.239V78.125C171.239 76.8021 170.921 75.8073 170.286 75.1406C169.65 74.4635 168.765 74.125 167.629 74.125C166.504 74.125 165.556 74.474 164.786 75.1719C164.025 75.8594 163.645 76.9688 163.645 78.5ZM186.048 71.5V74.2188H182.704V83.6406C182.704 84.2552 182.829 84.6823 183.079 84.9219C183.329 85.1615 183.782 85.2812 184.438 85.2812H186.048V88H183.969C180.917 88 179.391 86.6875 179.391 84.0625V74.2188H176.485V71.5H179.391V67H182.704V71.5H186.048ZM188.497 88V71.5H191.653V74.1719H191.716C192.018 73.2656 192.492 72.5625 193.137 72.0625C193.794 71.5521 194.648 71.2969 195.7 71.2969C195.95 71.2969 196.179 71.3073 196.387 71.3281C196.596 71.349 196.768 71.3646 196.903 71.375V74.4531C196.778 74.4219 196.554 74.3906 196.231 74.3594C195.908 74.3177 195.554 74.2969 195.169 74.2969C194.242 74.2969 193.445 74.6198 192.778 75.2656C192.122 75.9115 191.794 76.9062 191.794 78.25V88H188.497ZM199.774 94.5312V91.75H201.556C202.076 91.75 202.498 91.599 202.821 91.2969C203.155 91.0052 203.446 90.5208 203.696 89.8438L204.446 87.8906L198.071 71.5H201.603L204.899 80.5469C205.118 81.1615 205.332 81.7812 205.54 82.4062C205.748 83.0208 205.951 83.6354 206.149 84.25C206.347 83.6354 206.55 83.0208 206.759 82.4062C206.978 81.7812 207.196 81.1615 207.415 80.5469L210.665 71.5H214.149L206.649 90.8906C205.722 93.3177 204.129 94.5312 201.868 94.5312H199.774ZM223.97 88V64.7188H239.126V67.7656H227.439V74.7344H238.236V77.7344H227.439V88H223.97ZM244.872 64.7188V88H241.576V64.7188H244.872ZM253.478 88.2656C251.832 88.2656 250.468 87.849 249.384 87.0156C248.301 86.1719 247.759 84.9271 247.759 83.2812C247.759 82.0312 248.067 81.0729 248.681 80.4062C249.306 79.7292 250.114 79.2448 251.103 78.9531C252.103 78.6615 253.16 78.4479 254.275 78.3125C255.306 78.1875 256.124 78.0833 256.728 78C257.332 77.9167 257.759 77.7917 258.009 77.625C258.27 77.4583 258.4 77.1719 258.4 76.7656V76.625C258.4 75.8229 258.108 75.1667 257.525 74.6562C256.942 74.1354 256.124 73.875 255.072 73.875C254.02 73.875 253.16 74.1302 252.494 74.6406C251.827 75.1406 251.462 75.7708 251.4 76.5312H248.166C248.239 74.9583 248.9 73.6719 250.15 72.6719C251.4 71.6719 253.056 71.1719 255.119 71.1719C257.15 71.1719 258.749 71.6719 259.916 72.6719C261.082 73.6719 261.666 75.0104 261.666 76.6875V88H258.416V85.6562H258.353C258.009 86.3229 257.462 86.9271 256.712 87.4688C255.973 88 254.895 88.2656 253.478 88.2656ZM254.15 85.6094C255.608 85.6094 256.681 85.2344 257.369 84.4844C258.067 83.724 258.416 82.8385 258.416 81.8281V79.8906C258.197 80.0677 257.702 80.2292 256.931 80.375C256.16 80.5104 255.337 80.6406 254.462 80.7656C253.556 80.901 252.759 81.1562 252.072 81.5312C251.384 81.9062 251.041 82.5104 251.041 83.3438C251.041 84.0521 251.317 84.6094 251.869 85.0156C252.431 85.4115 253.192 85.6094 254.15 85.6094ZM272.428 94.75C270.407 94.75 268.756 94.3021 267.474 93.4062C266.193 92.5104 265.443 91.2552 265.224 89.6406H268.521C268.73 90.4427 269.183 91.0469 269.881 91.4531C270.579 91.8594 271.428 92.0625 272.428 92.0625C273.761 92.0625 274.803 91.7031 275.553 90.9844C276.303 90.2656 276.678 89.2396 276.678 87.9062V85.4062H276.662C276.089 86.3646 275.365 87.0729 274.49 87.5312C273.625 87.9896 272.651 88.2188 271.568 88.2188C270.131 88.2188 268.875 87.8594 267.803 87.1406C266.73 86.4115 265.896 85.4115 265.303 84.1406C264.709 82.8594 264.412 81.3802 264.412 79.7031C264.412 78.026 264.709 76.5469 265.303 75.2656C265.907 73.9844 266.745 72.9844 267.818 72.2656C268.891 71.5365 270.136 71.1719 271.553 71.1719C272.625 71.1719 273.61 71.401 274.506 71.8594C275.401 72.3177 276.125 73.0365 276.678 74.0156H276.693V71.5H279.943V87.7812C279.943 89.4479 279.605 90.7917 278.928 91.8125C278.25 92.8333 277.344 93.5781 276.209 94.0469C275.073 94.5156 273.813 94.75 272.428 94.75ZM272.24 85.3906C273.646 85.3906 274.766 84.875 275.599 83.8438C276.443 82.8021 276.865 81.4167 276.865 79.6875C276.865 77.9583 276.443 76.5781 275.599 75.5469C274.766 74.5052 273.646 73.9844 272.24 73.9844C270.907 73.9844 269.823 74.474 268.99 75.4531C268.167 76.4219 267.756 77.8333 267.756 79.6875C267.756 81.5417 268.167 82.9583 268.99 83.9375C269.823 84.9062 270.907 85.3906 272.24 85.3906ZM289.611 88.3906C288.351 88.3906 287.215 88.1875 286.205 87.7812C285.195 87.375 284.377 86.7708 283.752 85.9688C283.137 85.1667 282.794 84.1719 282.721 82.9844H285.971C286.158 84.8385 287.351 85.7656 289.549 85.7656C290.59 85.7656 291.413 85.5521 292.018 85.125C292.632 84.6979 292.939 84.1562 292.939 83.5C292.939 82.9375 292.721 82.4896 292.283 82.1562C291.846 81.8125 291.273 81.5625 290.564 81.4062L287.83 80.7969C284.674 80.1094 283.096 78.5365 283.096 76.0781C283.096 74.6198 283.674 73.4323 284.83 72.5156C285.997 71.599 287.523 71.1406 289.408 71.1406C291.273 71.1406 292.804 71.625 294.002 72.5938C295.21 73.5521 295.835 74.8646 295.877 76.5312H292.721C292.71 75.7292 292.408 75.0677 291.814 74.5469C291.221 74.0156 290.434 73.75 289.455 73.75C288.518 73.75 287.773 73.9688 287.221 74.4062C286.669 74.8438 286.393 75.3802 286.393 76.0156C286.393 76.5781 286.601 77.0312 287.018 77.375C287.445 77.7188 288.028 77.974 288.768 78.1406L291.58 78.7656C293.184 79.1198 294.366 79.6667 295.127 80.4062C295.887 81.1458 296.268 82.1146 296.268 83.3125C296.268 84.3646 295.976 85.2708 295.393 86.0312C294.82 86.7812 294.033 87.3646 293.033 87.7812C292.033 88.1875 290.893 88.3906 289.611 88.3906Z" fill="#171717"/>
<path d="M101.585 123V109.909H109.486V111.315H103.17V115.739H109.077V117.145H103.17V121.594H109.588V123H101.585ZM112.993 113.182L115.346 117.196L117.698 113.182H119.437L116.266 118.091L119.437 123H117.698L115.346 119.19L112.993 123H111.255L114.374 118.091L111.255 113.182H112.993ZM121.319 126.682V113.182H122.777V114.741H122.956C123.066 114.571 123.22 114.354 123.416 114.089C123.616 113.821 123.902 113.582 124.272 113.374C124.647 113.161 125.154 113.054 125.794 113.054C126.62 113.054 127.349 113.261 127.98 113.674C128.61 114.087 129.103 114.673 129.456 115.432C129.81 116.19 129.987 117.085 129.987 118.116C129.987 119.156 129.81 120.058 129.456 120.82C129.103 121.579 128.613 122.167 127.986 122.585C127.36 122.998 126.637 123.205 125.819 123.205C125.189 123.205 124.684 123.1 124.304 122.891C123.925 122.678 123.633 122.437 123.429 122.169C123.224 121.896 123.066 121.67 122.956 121.491H122.828V126.682H121.319ZM122.802 118.091C122.802 118.832 122.911 119.487 123.128 120.053C123.345 120.616 123.663 121.057 124.081 121.376C124.498 121.692 125.01 121.849 125.615 121.849C126.245 121.849 126.772 121.683 127.193 121.351C127.62 121.014 127.939 120.562 128.152 119.996C128.37 119.425 128.478 118.79 128.478 118.091C128.478 117.401 128.372 116.778 128.159 116.224C127.95 115.666 127.632 115.225 127.206 114.901C126.784 114.573 126.254 114.409 125.615 114.409C125.001 114.409 124.485 114.565 124.068 114.876C123.65 115.183 123.335 115.613 123.122 116.167C122.909 116.717 122.802 117.358 122.802 118.091ZM133.526 109.909V123H132.018V109.909H133.526ZM140.008 123.205C139.122 123.205 138.344 122.994 137.675 122.572C137.01 122.15 136.49 121.56 136.115 120.801C135.745 120.043 135.559 119.156 135.559 118.142C135.559 117.119 135.745 116.227 136.115 115.464C136.49 114.701 137.01 114.109 137.675 113.687C138.344 113.265 139.122 113.054 140.008 113.054C140.894 113.054 141.67 113.265 142.335 113.687C143.004 114.109 143.524 114.701 143.894 115.464C144.269 116.227 144.457 117.119 144.457 118.142C144.457 119.156 144.269 120.043 143.894 120.801C143.524 121.56 143.004 122.15 142.335 122.572C141.67 122.994 140.894 123.205 140.008 123.205ZM140.008 121.849C140.681 121.849 141.235 121.677 141.67 121.332C142.105 120.987 142.426 120.533 142.635 119.97C142.844 119.408 142.948 118.798 142.948 118.142C142.948 117.486 142.844 116.874 142.635 116.308C142.426 115.741 142.105 115.283 141.67 114.933C141.235 114.584 140.681 114.409 140.008 114.409C139.335 114.409 138.781 114.584 138.346 114.933C137.911 115.283 137.59 115.741 137.381 116.308C137.172 116.874 137.068 117.486 137.068 118.142C137.068 118.798 137.172 119.408 137.381 119.97C137.59 120.533 137.911 120.987 138.346 121.332C138.781 121.677 139.335 121.849 140.008 121.849ZM146.49 123V113.182H147.947V114.665H148.049C148.228 114.179 148.552 113.785 149.021 113.482C149.49 113.18 150.018 113.028 150.606 113.028C150.717 113.028 150.855 113.031 151.022 113.035C151.188 113.039 151.314 113.045 151.399 113.054V114.588C151.348 114.575 151.23 114.556 151.047 114.531C150.868 114.501 150.679 114.486 150.478 114.486C150.001 114.486 149.575 114.586 149.2 114.786C148.829 114.982 148.535 115.255 148.318 115.604C148.105 115.95 147.998 116.344 147.998 116.787V123H146.49ZM156.735 123.205C155.789 123.205 154.973 122.996 154.286 122.578C153.605 122.156 153.078 121.568 152.708 120.814C152.341 120.055 152.158 119.173 152.158 118.168C152.158 117.162 152.341 116.276 152.708 115.509C153.078 114.737 153.594 114.136 154.254 113.706C154.919 113.271 155.695 113.054 156.581 113.054C157.093 113.054 157.598 113.139 158.096 113.31C158.595 113.48 159.049 113.757 159.458 114.141C159.867 114.52 160.193 115.023 160.436 115.649C160.678 116.276 160.8 117.047 160.8 117.963V118.602H153.232V117.298H159.266C159.266 116.744 159.155 116.25 158.933 115.815C158.716 115.381 158.405 115.038 158 114.786C157.6 114.535 157.127 114.409 156.581 114.409C155.98 114.409 155.46 114.558 155.022 114.857C154.587 115.151 154.252 115.534 154.018 116.007C153.784 116.48 153.666 116.987 153.666 117.528V118.398C153.666 119.139 153.794 119.768 154.05 120.283C154.31 120.795 154.67 121.185 155.13 121.453C155.59 121.717 156.125 121.849 156.735 121.849C157.131 121.849 157.489 121.794 157.808 121.683C158.132 121.568 158.411 121.398 158.646 121.172C158.88 120.942 159.061 120.656 159.189 120.315L160.647 120.724C160.493 121.219 160.235 121.653 159.873 122.028C159.511 122.399 159.063 122.689 158.531 122.898C157.998 123.102 157.399 123.205 156.735 123.205ZM167.592 123V121.849L171.913 117.119C172.42 116.565 172.837 116.084 173.165 115.675C173.494 115.261 173.736 114.874 173.894 114.511C174.056 114.145 174.137 113.761 174.137 113.361C174.137 112.901 174.026 112.502 173.805 112.165C173.587 111.829 173.289 111.569 172.91 111.386C172.531 111.202 172.104 111.111 171.631 111.111C171.129 111.111 170.69 111.215 170.315 111.424C169.944 111.629 169.656 111.916 169.452 112.287C169.251 112.658 169.151 113.092 169.151 113.591H167.643C167.643 112.824 167.82 112.151 168.173 111.571C168.527 110.991 169.008 110.54 169.618 110.216C170.232 109.892 170.92 109.73 171.683 109.73C172.45 109.73 173.129 109.892 173.722 110.216C174.314 110.54 174.778 110.977 175.115 111.526C175.452 112.076 175.62 112.688 175.62 113.361C175.62 113.842 175.533 114.313 175.358 114.773C175.187 115.229 174.889 115.739 174.463 116.301C174.041 116.859 173.455 117.541 172.705 118.347L169.765 121.491V121.594H175.85V123H167.592ZM182.49 123.179C181.527 123.179 180.707 122.917 180.029 122.393C179.351 121.864 178.834 121.099 178.476 120.098C178.118 119.092 177.939 117.878 177.939 116.455C177.939 115.04 178.118 113.832 178.476 112.83C178.838 111.825 179.358 111.058 180.035 110.529C180.717 109.996 181.535 109.73 182.49 109.73C183.444 109.73 184.261 109.996 184.938 110.529C185.62 111.058 186.14 111.825 186.498 112.83C186.86 113.832 187.041 115.04 187.041 116.455C187.041 117.878 186.862 119.092 186.504 120.098C186.146 121.099 185.628 121.864 184.951 122.393C184.273 122.917 183.453 123.179 182.49 123.179ZM182.49 121.773C183.444 121.773 184.186 121.312 184.714 120.392C185.243 119.472 185.507 118.159 185.507 116.455C185.507 115.321 185.386 114.356 185.143 113.559C184.904 112.762 184.559 112.155 184.107 111.737C183.66 111.32 183.121 111.111 182.49 111.111C181.544 111.111 180.805 111.577 180.272 112.511C179.739 113.44 179.473 114.754 179.473 116.455C179.473 117.588 179.592 118.551 179.831 119.344C180.069 120.136 180.413 120.739 180.86 121.153C181.312 121.566 181.855 121.773 182.49 121.773ZM193.47 123.179C192.507 123.179 191.687 122.917 191.009 122.393C190.331 121.864 189.814 121.099 189.456 120.098C189.098 119.092 188.919 117.878 188.919 116.455C188.919 115.04 189.098 113.832 189.456 112.83C189.818 111.825 190.338 111.058 191.015 110.529C191.697 109.996 192.515 109.73 193.47 109.73C194.424 109.73 195.241 109.996 195.918 110.529C196.6 111.058 197.12 111.825 197.478 112.83C197.84 113.832 198.021 115.04 198.021 116.455C198.021 117.878 197.842 119.092 197.484 120.098C197.126 121.099 196.608 121.864 195.931 122.393C195.253 122.917 194.433 123.179 193.47 123.179ZM193.47 121.773C194.424 121.773 195.166 121.312 195.694 120.392C196.223 119.472 196.487 118.159 196.487 116.455C196.487 115.321 196.366 114.356 196.123 113.559C195.884 112.762 195.539 112.155 195.087 111.737C194.64 111.32 194.101 111.111 193.47 111.111C192.524 111.111 191.785 111.577 191.252 112.511C190.719 113.44 190.453 114.754 190.453 116.455C190.453 117.588 190.572 118.551 190.811 119.344C191.049 120.136 191.393 120.739 191.84 121.153C192.292 121.566 192.835 121.773 193.47 121.773ZM204.041 122.105V113.668H205.473V122.105H204.041ZM200.538 118.602V117.17H208.975V118.602H200.538ZM220.582 123.205C219.662 123.205 218.869 122.987 218.204 122.553C217.539 122.118 217.028 121.519 216.67 120.756C216.312 119.994 216.133 119.122 216.133 118.142C216.133 117.145 216.316 116.265 216.683 115.502C217.054 114.735 217.569 114.136 218.23 113.706C218.894 113.271 219.67 113.054 220.556 113.054C221.247 113.054 221.869 113.182 222.423 113.438C222.977 113.693 223.431 114.051 223.784 114.511C224.138 114.972 224.358 115.509 224.443 116.122H222.934C222.819 115.675 222.564 115.278 222.167 114.933C221.775 114.584 221.247 114.409 220.582 114.409C219.994 114.409 219.478 114.562 219.035 114.869C218.596 115.172 218.253 115.6 218.006 116.154C217.763 116.704 217.642 117.349 217.642 118.091C217.642 118.849 217.761 119.51 218 120.072C218.242 120.635 218.583 121.072 219.022 121.383C219.465 121.694 219.985 121.849 220.582 121.849C220.974 121.849 221.33 121.781 221.649 121.645C221.969 121.509 222.24 121.312 222.461 121.057C222.683 120.801 222.84 120.494 222.934 120.136H224.443C224.358 120.716 224.147 121.238 223.81 121.702C223.478 122.163 223.037 122.529 222.487 122.802C221.941 123.07 221.306 123.205 220.582 123.205ZM226.378 123V113.182H227.887V123H226.378ZM227.145 111.545C226.851 111.545 226.597 111.445 226.384 111.245C226.176 111.045 226.071 110.804 226.071 110.523C226.071 110.241 226.176 110.001 226.384 109.8C226.597 109.6 226.851 109.5 227.145 109.5C227.439 109.5 227.691 109.6 227.899 109.8C228.112 110.001 228.219 110.241 228.219 110.523C228.219 110.804 228.112 111.045 227.899 111.245C227.691 111.445 227.439 111.545 227.145 111.545ZM230.38 123V113.182H231.837V114.665H231.939C232.118 114.179 232.442 113.785 232.911 113.482C233.38 113.18 233.908 113.028 234.496 113.028C234.607 113.028 234.745 113.031 234.911 113.035C235.078 113.039 235.203 113.045 235.289 113.054V114.588C235.237 114.575 235.12 114.556 234.937 114.531C234.758 114.501 234.568 114.486 234.368 114.486C233.891 114.486 233.465 114.586 233.09 114.786C232.719 114.982 232.425 115.255 232.208 115.604C231.995 115.95 231.888 116.344 231.888 116.787V123H230.38ZM240.497 123.205C239.576 123.205 238.784 122.987 238.119 122.553C237.454 122.118 236.943 121.519 236.585 120.756C236.227 119.994 236.048 119.122 236.048 118.142C236.048 117.145 236.231 116.265 236.597 115.502C236.968 114.735 237.484 114.136 238.144 113.706C238.809 113.271 239.585 113.054 240.471 113.054C241.161 113.054 241.784 113.182 242.337 113.438C242.891 113.693 243.345 114.051 243.699 114.511C244.053 114.972 244.272 115.509 244.357 116.122H242.849C242.734 115.675 242.478 115.278 242.082 114.933C241.69 114.584 241.161 114.409 240.497 114.409C239.909 114.409 239.393 114.562 238.95 114.869C238.511 115.172 238.168 115.6 237.921 116.154C237.678 116.704 237.556 117.349 237.556 118.091C237.556 118.849 237.676 119.51 237.914 120.072C238.157 120.635 238.498 121.072 238.937 121.383C239.38 121.694 239.9 121.849 240.497 121.849C240.889 121.849 241.244 121.781 241.564 121.645C241.884 121.509 242.154 121.312 242.376 121.057C242.597 120.801 242.755 120.494 242.849 120.136H244.357C244.272 120.716 244.061 121.238 243.725 121.702C243.392 122.163 242.951 122.529 242.401 122.802C241.856 123.07 241.221 123.205 240.497 123.205ZM252.48 118.986V113.182H253.989V123H252.48V121.338H252.378C252.148 121.837 251.79 122.261 251.304 122.61C250.818 122.955 250.205 123.128 249.463 123.128C248.849 123.128 248.304 122.994 247.827 122.725C247.349 122.452 246.974 122.043 246.702 121.498C246.429 120.948 246.293 120.256 246.293 119.42V113.182H247.801V119.318C247.801 120.034 248.001 120.605 248.402 121.031C248.807 121.457 249.322 121.67 249.949 121.67C250.324 121.67 250.705 121.575 251.093 121.383C251.485 121.191 251.813 120.897 252.077 120.501C252.346 120.104 252.48 119.599 252.48 118.986ZM257.99 109.909V123H256.482V109.909H257.99ZM263.372 123.23C262.75 123.23 262.186 123.113 261.678 122.879C261.171 122.64 260.769 122.297 260.47 121.849C260.172 121.398 260.023 120.852 260.023 120.213C260.023 119.651 260.134 119.195 260.355 118.845C260.577 118.491 260.873 118.214 261.244 118.014C261.614 117.814 262.024 117.665 262.471 117.567C262.923 117.464 263.377 117.384 263.833 117.324C264.429 117.247 264.913 117.19 265.284 117.151C265.659 117.109 265.931 117.038 266.102 116.94C266.276 116.842 266.364 116.672 266.364 116.429V116.378C266.364 115.747 266.191 115.257 265.846 114.908C265.505 114.558 264.987 114.384 264.293 114.384C263.573 114.384 263.008 114.541 262.599 114.857C262.19 115.172 261.902 115.509 261.736 115.866L260.304 115.355C260.56 114.759 260.901 114.294 261.327 113.962C261.757 113.625 262.226 113.391 262.733 113.259C263.244 113.122 263.747 113.054 264.242 113.054C264.557 113.054 264.919 113.092 265.328 113.169C265.742 113.241 266.14 113.393 266.524 113.623C266.911 113.853 267.233 114.2 267.489 114.665C267.744 115.129 267.872 115.751 267.872 116.531V123H266.364V121.67H266.287C266.185 121.884 266.014 122.112 265.776 122.354C265.537 122.597 265.22 122.804 264.823 122.974C264.427 123.145 263.943 123.23 263.372 123.23ZM263.602 121.875C264.199 121.875 264.702 121.758 265.111 121.523C265.524 121.289 265.835 120.987 266.044 120.616C266.257 120.245 266.364 119.855 266.364 119.446V118.065C266.3 118.142 266.159 118.212 265.942 118.276C265.729 118.336 265.482 118.389 265.2 118.436C264.923 118.479 264.653 118.517 264.389 118.551C264.129 118.581 263.918 118.607 263.756 118.628C263.364 118.679 262.997 118.762 262.656 118.877C262.32 118.988 262.047 119.156 261.838 119.382C261.634 119.604 261.531 119.906 261.531 120.29C261.531 120.814 261.725 121.21 262.113 121.479C262.505 121.743 263.002 121.875 263.602 121.875ZM270.356 123V113.182H271.813V114.665H271.915C272.094 114.179 272.418 113.785 272.887 113.482C273.356 113.18 273.884 113.028 274.472 113.028C274.583 113.028 274.721 113.031 274.888 113.035C275.054 113.039 275.18 113.045 275.265 113.054V114.588C275.214 114.575 275.096 114.556 274.913 114.531C274.734 114.501 274.545 114.486 274.344 114.486C273.867 114.486 273.441 114.586 273.066 114.786C272.695 114.982 272.401 115.255 272.184 115.604C271.971 115.95 271.864 116.344 271.864 116.787V123H270.356ZM288.53 115.381L287.175 115.764C287.09 115.538 286.964 115.319 286.798 115.106C286.636 114.888 286.414 114.71 286.133 114.569C285.852 114.428 285.492 114.358 285.053 114.358C284.452 114.358 283.951 114.496 283.551 114.773C283.154 115.046 282.956 115.393 282.956 115.815C282.956 116.19 283.092 116.487 283.365 116.704C283.638 116.921 284.064 117.102 284.644 117.247L286.101 117.605C286.979 117.818 287.633 118.144 288.063 118.583C288.494 119.018 288.709 119.578 288.709 120.264C288.709 120.827 288.547 121.33 288.223 121.773C287.904 122.216 287.456 122.565 286.881 122.821C286.306 123.077 285.637 123.205 284.874 123.205C283.872 123.205 283.043 122.987 282.387 122.553C281.731 122.118 281.316 121.483 281.141 120.648L282.573 120.29C282.709 120.818 282.967 121.214 283.346 121.479C283.73 121.743 284.23 121.875 284.848 121.875C285.551 121.875 286.11 121.726 286.523 121.428C286.941 121.125 287.149 120.763 287.149 120.341C287.149 120 287.03 119.714 286.791 119.484C286.553 119.25 286.186 119.075 285.692 118.96L284.056 118.577C283.156 118.364 282.496 118.033 282.074 117.586C281.656 117.134 281.448 116.57 281.448 115.892C281.448 115.338 281.603 114.848 281.914 114.422C282.23 113.996 282.658 113.661 283.199 113.418C283.744 113.175 284.362 113.054 285.053 113.054C286.024 113.054 286.787 113.267 287.341 113.693C287.899 114.119 288.296 114.682 288.53 115.381ZM292.218 117.094V123H290.71V109.909H292.218V114.716H292.346C292.576 114.209 292.921 113.806 293.382 113.508C293.846 113.205 294.464 113.054 295.235 113.054C295.904 113.054 296.49 113.188 296.993 113.457C297.496 113.721 297.886 114.128 298.163 114.678C298.444 115.223 298.585 115.918 298.585 116.761V123H297.076V116.864C297.076 116.084 296.874 115.481 296.469 115.055C296.068 114.624 295.512 114.409 294.801 114.409C294.306 114.409 293.863 114.513 293.471 114.722C293.083 114.931 292.776 115.236 292.551 115.636C292.329 116.037 292.218 116.523 292.218 117.094ZM303.964 123.23C303.342 123.23 302.777 123.113 302.27 122.879C301.763 122.64 301.36 122.297 301.062 121.849C300.763 121.398 300.614 120.852 300.614 120.213C300.614 119.651 300.725 119.195 300.947 118.845C301.168 118.491 301.464 118.214 301.835 118.014C302.206 117.814 302.615 117.665 303.062 117.567C303.514 117.464 303.968 117.384 304.424 117.324C305.021 117.247 305.504 117.19 305.875 117.151C306.25 117.109 306.523 117.038 306.693 116.94C306.868 116.842 306.955 116.672 306.955 116.429V116.378C306.955 115.747 306.783 115.257 306.437 114.908C306.097 114.558 305.579 114.384 304.884 114.384C304.164 114.384 303.599 114.541 303.19 114.857C302.781 115.172 302.494 115.509 302.327 115.866L300.896 115.355C301.151 114.759 301.492 114.294 301.918 113.962C302.349 113.625 302.817 113.391 303.325 113.259C303.836 113.122 304.339 113.054 304.833 113.054C305.148 113.054 305.511 113.092 305.92 113.169C306.333 113.241 306.731 113.393 307.115 113.623C307.503 113.853 307.825 114.2 308.08 114.665C308.336 115.129 308.464 115.751 308.464 116.531V123H306.955V121.67H306.878C306.776 121.884 306.606 122.112 306.367 122.354C306.128 122.597 305.811 122.804 305.415 122.974C305.018 123.145 304.535 123.23 303.964 123.23ZM304.194 121.875C304.79 121.875 305.293 121.758 305.702 121.523C306.116 121.289 306.427 120.987 306.636 120.616C306.849 120.245 306.955 119.855 306.955 119.446V118.065C306.891 118.142 306.751 118.212 306.533 118.276C306.32 118.336 306.073 118.389 305.792 118.436C305.515 118.479 305.244 118.517 304.98 118.551C304.72 118.581 304.509 118.607 304.347 118.628C303.955 118.679 303.589 118.762 303.248 118.877C302.911 118.988 302.638 119.156 302.43 119.382C302.225 119.604 302.123 119.906 302.123 120.29C302.123 120.814 302.317 121.21 302.704 121.479C303.097 121.743 303.593 121.875 304.194 121.875ZM310.947 126.682V113.182H312.404V114.741H312.583C312.694 114.571 312.848 114.354 313.044 114.089C313.244 113.821 313.529 113.582 313.9 113.374C314.275 113.161 314.782 113.054 315.422 113.054C316.248 113.054 316.977 113.261 317.608 113.674C318.238 114.087 318.73 114.673 319.084 115.432C319.438 116.19 319.615 117.085 319.615 118.116C319.615 119.156 319.438 120.058 319.084 120.82C318.73 121.579 318.24 122.167 317.614 122.585C316.988 122.998 316.265 123.205 315.447 123.205C314.816 123.205 314.311 123.1 313.932 122.891C313.553 122.678 313.261 122.437 313.056 122.169C312.852 121.896 312.694 121.67 312.583 121.491H312.456V126.682H310.947ZM312.43 118.091C312.43 118.832 312.539 119.487 312.756 120.053C312.973 120.616 313.291 121.057 313.708 121.376C314.126 121.692 314.637 121.849 315.243 121.849C315.873 121.849 316.4 121.683 316.821 121.351C317.248 121.014 317.567 120.562 317.78 119.996C317.998 119.425 318.106 118.79 318.106 118.091C318.106 117.401 318 116.778 317.787 116.224C317.578 115.666 317.26 115.225 316.834 114.901C316.412 114.573 315.882 114.409 315.243 114.409C314.629 114.409 314.113 114.565 313.696 114.876C313.278 115.183 312.963 115.613 312.75 116.167C312.537 116.717 312.43 117.358 312.43 118.091ZM325.762 123.205C324.816 123.205 324 122.996 323.314 122.578C322.632 122.156 322.106 121.568 321.735 120.814C321.369 120.055 321.186 119.173 321.186 118.168C321.186 117.162 321.369 116.276 321.735 115.509C322.106 114.737 322.622 114.136 323.282 113.706C323.947 113.271 324.723 113.054 325.609 113.054C326.12 113.054 326.625 113.139 327.124 113.31C327.622 113.48 328.076 113.757 328.485 114.141C328.894 114.52 329.22 115.023 329.463 115.649C329.706 116.276 329.828 117.047 329.828 117.963V118.602H322.259V117.298H328.294C328.294 116.744 328.183 116.25 327.961 115.815C327.744 115.381 327.433 115.038 327.028 114.786C326.627 114.535 326.154 114.409 325.609 114.409C325.008 114.409 324.488 114.558 324.049 114.857C323.615 115.151 323.28 115.534 323.046 116.007C322.811 116.48 322.694 116.987 322.694 117.528V118.398C322.694 119.139 322.822 119.768 323.078 120.283C323.338 120.795 323.698 121.185 324.158 121.453C324.618 121.717 325.153 121.849 325.762 121.849C326.159 121.849 326.517 121.794 326.836 121.683C327.16 121.568 327.439 121.398 327.674 121.172C327.908 120.942 328.089 120.656 328.217 120.315L329.674 120.724C329.521 121.219 329.263 121.653 328.901 122.028C328.539 122.399 328.091 122.689 327.558 122.898C327.026 123.102 326.427 123.205 325.762 123.205ZM335.56 123.205C334.742 123.205 334.019 122.998 333.393 122.585C332.766 122.167 332.276 121.579 331.923 120.82C331.569 120.058 331.392 119.156 331.392 118.116C331.392 117.085 331.569 116.19 331.923 115.432C332.276 114.673 332.769 114.087 333.399 113.674C334.03 113.261 334.759 113.054 335.585 113.054C336.225 113.054 336.73 113.161 337.1 113.374C337.475 113.582 337.761 113.821 337.957 114.089C338.157 114.354 338.313 114.571 338.423 114.741H338.551V109.909H340.06V123H338.602V121.491H338.423C338.313 121.67 338.155 121.896 337.95 122.169C337.746 122.437 337.454 122.678 337.075 122.891C336.695 123.1 336.19 123.205 335.56 123.205ZM335.764 121.849C336.369 121.849 336.881 121.692 337.298 121.376C337.716 121.057 338.034 120.616 338.251 120.053C338.468 119.487 338.577 118.832 338.577 118.091C338.577 117.358 338.47 116.717 338.257 116.167C338.044 115.613 337.729 115.183 337.311 114.876C336.894 114.565 336.378 114.409 335.764 114.409C335.125 114.409 334.592 114.573 334.166 114.901C333.744 115.225 333.427 115.666 333.214 116.224C333.005 116.778 332.901 117.401 332.901 118.091C332.901 118.79 333.007 119.425 333.22 119.996C333.438 120.562 333.757 121.014 334.179 121.351C334.605 121.683 335.134 121.849 335.764 121.849ZM351.543 123.205C350.623 123.205 349.83 122.987 349.165 122.553C348.501 122.118 347.989 121.519 347.631 120.756C347.273 119.994 347.094 119.122 347.094 118.142C347.094 117.145 347.278 116.265 347.644 115.502C348.015 114.735 348.53 114.136 349.191 113.706C349.856 113.271 350.631 113.054 351.518 113.054C352.208 113.054 352.83 113.182 353.384 113.438C353.938 113.693 354.392 114.051 354.746 114.511C355.099 114.972 355.319 115.509 355.404 116.122H353.895C353.78 115.675 353.525 115.278 353.128 114.933C352.736 114.584 352.208 114.409 351.543 114.409C350.955 114.409 350.44 114.562 349.996 114.869C349.557 115.172 349.214 115.6 348.967 116.154C348.724 116.704 348.603 117.349 348.603 118.091C348.603 118.849 348.722 119.51 348.961 120.072C349.204 120.635 349.545 121.072 349.984 121.383C350.427 121.694 350.947 121.849 351.543 121.849C351.935 121.849 352.291 121.781 352.611 121.645C352.93 121.509 353.201 121.312 353.422 121.057C353.644 120.801 353.802 120.494 353.895 120.136H355.404C355.319 120.716 355.108 121.238 354.771 121.702C354.439 122.163 353.998 122.529 353.448 122.802C352.903 123.07 352.268 123.205 351.543 123.205ZM361.328 123.205C360.442 123.205 359.664 122.994 358.995 122.572C358.33 122.15 357.81 121.56 357.435 120.801C357.064 120.043 356.879 119.156 356.879 118.142C356.879 117.119 357.064 116.227 357.435 115.464C357.81 114.701 358.33 114.109 358.995 113.687C359.664 113.265 360.442 113.054 361.328 113.054C362.214 113.054 362.99 113.265 363.655 113.687C364.324 114.109 364.844 114.701 365.214 115.464C365.589 116.227 365.777 117.119 365.777 118.142C365.777 119.156 365.589 120.043 365.214 120.801C364.844 121.56 364.324 122.15 363.655 122.572C362.99 122.994 362.214 123.205 361.328 123.205ZM361.328 121.849C362.001 121.849 362.555 121.677 362.99 121.332C363.424 120.987 363.746 120.533 363.955 119.97C364.164 119.408 364.268 118.798 364.268 118.142C364.268 117.486 364.164 116.874 363.955 116.308C363.746 115.741 363.424 115.283 362.99 114.933C362.555 114.584 362.001 114.409 361.328 114.409C360.655 114.409 360.101 114.584 359.666 114.933C359.231 115.283 358.91 115.741 358.701 116.308C358.492 116.874 358.388 117.486 358.388 118.142C358.388 118.798 358.492 119.408 358.701 119.97C358.91 120.533 359.231 120.987 359.666 121.332C360.101 121.677 360.655 121.849 361.328 121.849ZM373.997 118.986V113.182H375.506V123H373.997V121.338H373.895C373.665 121.837 373.307 122.261 372.821 122.61C372.335 122.955 371.721 123.128 370.98 123.128C370.366 123.128 369.821 122.994 369.344 122.725C368.866 122.452 368.491 122.043 368.219 121.498C367.946 120.948 367.81 120.256 367.81 119.42V113.182H369.318V119.318C369.318 120.034 369.518 120.605 369.919 121.031C370.324 121.457 370.839 121.67 371.466 121.67C371.841 121.67 372.222 121.575 372.61 121.383C373.002 121.191 373.33 120.897 373.594 120.501C373.863 120.104 373.997 119.599 373.997 118.986ZM379.507 117.094V123H377.998V113.182H379.456V114.716H379.584C379.814 114.217 380.163 113.817 380.632 113.514C381.101 113.207 381.706 113.054 382.447 113.054C383.112 113.054 383.694 113.19 384.192 113.463C384.691 113.732 385.079 114.141 385.356 114.69C385.633 115.236 385.771 115.926 385.771 116.761V123H384.263V116.864C384.263 116.092 384.062 115.491 383.662 115.061C383.261 114.626 382.712 114.409 382.013 114.409C381.531 114.409 381.101 114.513 380.721 114.722C380.346 114.931 380.05 115.236 379.833 115.636C379.616 116.037 379.507 116.523 379.507 117.094ZM392.528 113.182V114.46H387.44V113.182H392.528ZM388.923 110.83H390.431V120.188C390.431 120.614 390.493 120.933 390.616 121.146C390.744 121.355 390.906 121.496 391.102 121.568C391.303 121.636 391.513 121.67 391.735 121.67C391.901 121.67 392.038 121.662 392.144 121.645C392.251 121.624 392.336 121.607 392.4 121.594L392.707 122.949C392.604 122.987 392.462 123.026 392.278 123.064C392.095 123.107 391.863 123.128 391.582 123.128C391.156 123.128 390.738 123.036 390.329 122.853C389.924 122.67 389.587 122.391 389.319 122.016C389.055 121.641 388.923 121.168 388.923 120.597V110.83ZM394.527 123V113.182H395.984V114.665H396.087C396.265 114.179 396.589 113.785 397.058 113.482C397.527 113.18 398.055 113.028 398.643 113.028C398.754 113.028 398.893 113.031 399.059 113.035C399.225 113.039 399.351 113.045 399.436 113.054V114.588C399.385 114.575 399.268 114.556 399.084 114.531C398.905 114.501 398.716 114.486 398.515 114.486C398.038 114.486 397.612 114.586 397.237 114.786C396.866 114.982 396.572 115.255 396.355 115.604C396.142 115.95 396.035 116.344 396.035 116.787V123H394.527ZM402.225 126.682C401.969 126.682 401.741 126.661 401.541 126.618C401.34 126.58 401.202 126.541 401.125 126.503L401.509 125.173C401.875 125.267 402.199 125.301 402.48 125.276C402.761 125.25 403.011 125.124 403.228 124.898C403.45 124.677 403.652 124.317 403.835 123.818L404.117 123.051L400.486 113.182H402.122L404.832 121.006H404.935L407.645 113.182H409.281L405.114 124.432C404.926 124.939 404.694 125.359 404.417 125.691C404.14 126.028 403.818 126.277 403.452 126.439C403.09 126.601 402.68 126.682 402.225 126.682ZM420.167 113.182V114.46H414.875V113.182H420.167ZM416.46 123V111.827C416.46 111.264 416.592 110.795 416.856 110.42C417.12 110.045 417.463 109.764 417.885 109.577C418.307 109.389 418.752 109.295 419.221 109.295C419.592 109.295 419.894 109.325 420.129 109.385C420.363 109.445 420.538 109.5 420.653 109.551L420.218 110.855C420.142 110.83 420.035 110.798 419.899 110.759C419.767 110.721 419.592 110.702 419.375 110.702C418.876 110.702 418.516 110.827 418.294 111.079C418.077 111.33 417.968 111.699 417.968 112.185V123H416.46ZM423.52 109.909V123H422.011V109.909H423.52ZM428.902 123.23C428.28 123.23 427.715 123.113 427.208 122.879C426.701 122.64 426.298 122.297 426 121.849C425.702 121.398 425.553 120.852 425.553 120.213C425.553 119.651 425.663 119.195 425.885 118.845C426.107 118.491 426.403 118.214 426.773 118.014C427.144 117.814 427.553 117.665 428.001 117.567C428.452 117.464 428.906 117.384 429.362 117.324C429.959 117.247 430.442 117.19 430.813 117.151C431.188 117.109 431.461 117.038 431.631 116.94C431.806 116.842 431.893 116.672 431.893 116.429V116.378C431.893 115.747 431.721 115.257 431.376 114.908C431.035 114.558 430.517 114.384 429.822 114.384C429.102 114.384 428.538 114.541 428.129 114.857C427.719 115.172 427.432 115.509 427.266 115.866L425.834 115.355C426.089 114.759 426.43 114.294 426.857 113.962C427.287 113.625 427.756 113.391 428.263 113.259C428.774 113.122 429.277 113.054 429.771 113.054C430.087 113.054 430.449 113.092 430.858 113.169C431.271 113.241 431.67 113.393 432.053 113.623C432.441 113.853 432.763 114.2 433.018 114.665C433.274 115.129 433.402 115.751 433.402 116.531V123H431.893V121.67H431.817C431.714 121.884 431.544 122.112 431.305 122.354C431.067 122.597 430.749 122.804 430.353 122.974C429.957 123.145 429.473 123.23 428.902 123.23ZM429.132 121.875C429.729 121.875 430.232 121.758 430.641 121.523C431.054 121.289 431.365 120.987 431.574 120.616C431.787 120.245 431.893 119.855 431.893 119.446V118.065C431.83 118.142 431.689 118.212 431.472 118.276C431.259 118.336 431.011 118.389 430.73 118.436C430.453 118.479 430.183 118.517 429.918 118.551C429.658 118.581 429.447 118.607 429.286 118.628C428.893 118.679 428.527 118.762 428.186 118.877C427.849 118.988 427.577 119.156 427.368 119.382C427.163 119.604 427.061 119.906 427.061 120.29C427.061 120.814 427.255 121.21 427.643 121.479C428.035 121.743 428.531 121.875 429.132 121.875ZM439.848 126.886C439.12 126.886 438.493 126.793 437.969 126.605C437.445 126.422 437.008 126.179 436.659 125.876C436.314 125.578 436.039 125.259 435.834 124.918L437.036 124.074C437.172 124.253 437.345 124.457 437.554 124.688C437.763 124.922 438.048 125.124 438.41 125.295C438.777 125.469 439.256 125.557 439.848 125.557C440.641 125.557 441.295 125.365 441.811 124.982C442.326 124.598 442.584 123.997 442.584 123.179V121.185H442.456C442.346 121.364 442.188 121.585 441.983 121.849C441.783 122.109 441.493 122.342 441.114 122.546C440.739 122.746 440.232 122.847 439.593 122.847C438.8 122.847 438.089 122.659 437.458 122.284C436.831 121.909 436.335 121.364 435.968 120.648C435.606 119.932 435.425 119.062 435.425 118.04C435.425 117.034 435.602 116.158 435.956 115.413C436.309 114.663 436.802 114.083 437.432 113.674C438.063 113.261 438.792 113.054 439.618 113.054C440.258 113.054 440.765 113.161 441.14 113.374C441.519 113.582 441.809 113.821 442.009 114.089C442.214 114.354 442.371 114.571 442.482 114.741H442.635V113.182H444.093V123.281C444.093 124.125 443.901 124.811 443.517 125.339C443.138 125.872 442.627 126.262 441.983 126.509C441.344 126.761 440.633 126.886 439.848 126.886ZM439.797 121.491C440.402 121.491 440.914 121.353 441.331 121.076C441.749 120.799 442.066 120.401 442.284 119.881C442.501 119.361 442.61 118.739 442.61 118.014C442.61 117.307 442.503 116.683 442.29 116.141C442.077 115.6 441.762 115.176 441.344 114.869C440.927 114.562 440.411 114.409 439.797 114.409C439.158 114.409 438.625 114.571 438.199 114.895C437.777 115.219 437.46 115.653 437.247 116.199C437.038 116.744 436.934 117.349 436.934 118.014C436.934 118.696 437.04 119.299 437.253 119.823C437.471 120.343 437.79 120.752 438.212 121.05C438.638 121.344 439.167 121.491 439.797 121.491ZM453.539 115.381L452.184 115.764C452.098 115.538 451.973 115.319 451.806 115.106C451.644 114.888 451.423 114.71 451.142 114.569C450.86 114.428 450.5 114.358 450.061 114.358C449.461 114.358 448.96 114.496 448.559 114.773C448.163 115.046 447.965 115.393 447.965 115.815C447.965 116.19 448.101 116.487 448.374 116.704C448.647 116.921 449.073 117.102 449.652 117.247L451.11 117.605C451.988 117.818 452.642 118.144 453.072 118.583C453.502 119.018 453.718 119.578 453.718 120.264C453.718 120.827 453.556 121.33 453.232 121.773C452.912 122.216 452.465 122.565 451.89 122.821C451.314 123.077 450.645 123.205 449.882 123.205C448.881 123.205 448.052 122.987 447.396 122.553C446.74 122.118 446.324 121.483 446.149 120.648L447.581 120.29C447.718 120.818 447.975 121.214 448.355 121.479C448.738 121.743 449.239 121.875 449.857 121.875C450.56 121.875 451.118 121.726 451.532 121.428C451.949 121.125 452.158 120.763 452.158 120.341C452.158 120 452.039 119.714 451.8 119.484C451.561 119.25 451.195 119.075 450.701 118.96L449.064 118.577C448.165 118.364 447.505 118.033 447.083 117.586C446.665 117.134 446.456 116.57 446.456 115.892C446.456 115.338 446.612 114.848 446.923 114.422C447.238 113.996 447.666 113.661 448.208 113.418C448.753 113.175 449.371 113.054 450.061 113.054C451.033 113.054 451.796 113.267 452.35 113.693C452.908 114.119 453.304 114.682 453.539 115.381ZM456.818 123.102C456.503 123.102 456.232 122.989 456.006 122.763C455.78 122.538 455.667 122.267 455.667 121.952C455.667 121.636 455.78 121.366 456.006 121.14C456.232 120.914 456.503 120.801 456.818 120.801C457.133 120.801 457.404 120.914 457.63 121.14C457.855 121.366 457.968 121.636 457.968 121.952C457.968 122.161 457.915 122.352 457.809 122.527C457.706 122.702 457.568 122.842 457.393 122.949C457.223 123.051 457.031 123.102 456.818 123.102Z" fill="#5C5C5C"/>
</svg>
