<svg width="24" height="24" viewBox="0 0 24 24" fill="none" xmlns="http://www.w3.org/2000/svg">
<g clip-path="url(#clip0_253_5471)">
<path d="M12 24C18.6274 24 24 18.6274 24 12C24 5.37258 18.6274 0 12 0C5.37258 0 0 5.37258 0 12C0 18.6274 5.37258 24 12 24Z" fill="#338AF3"/>
<path d="M5.73914 13.0435H18.2609V14.6087H5.73914V13.0435Z" fill="#818085"/>
<path d="M7.82605 8.34789L11.9999 8.8697L16.1738 8.34789V5.84354L14.5043 6.67834L11.9999 4.17395L9.4956 6.67834L7.82605 5.84354V8.34789Z" fill="#FFDA44"/>
<path d="M6.78266 16.174H5.21741V13.3044L5.73917 12.5217L5.21741 11.7391V9.91309H6.78266V16.174Z" fill="#F0F0F0"/>
<path d="M18.7827 16.174H17.2174V9.91309H18.7827V11.7391L18.2609 12.5349L18.7827 13.3045V16.174Z" fill="#F0F0F0"/>
<path d="M5.21741 11.7391H18.7826V13.3043H5.21741V11.7391Z" fill="#ACABB1"/>
<path d="M11.9999 18.2609C9.69842 18.2609 7.82605 16.3885 7.82605 14.087V8.3479H16.1739V14.087C16.1738 16.3885 14.3015 18.2609 11.9999 18.2609Z" fill="#F0F0F0"/>
<path d="M12 16.6956C10.5616 16.6956 9.39136 15.5253 9.39136 14.0869V9.91309H14.6087V14.0869C14.6087 15.5253 13.4385 16.6956 12 16.6956Z" fill="#0052B4"/>
<path d="M7.82605 8.34778H9.39125V9.91298H7.82605V8.34778Z" fill="#D80027"/>
<path d="M14.6086 8.34778H16.1738V9.91298H14.6086V8.34778Z" fill="#D80027"/>
<path d="M14.6086 11.7391H16.1738V13.3043H14.6086V11.7391Z" fill="#D80027"/>
<path d="M7.82605 11.7391H9.39125V13.3043H7.82605V11.7391Z" fill="#D80027"/>
<path d="M11.2173 8.34778H12.7825V9.91298H11.2173V8.34778Z" fill="#D80027"/>
<path d="M11.9999 16.6957C11.7273 16.6957 11.4645 16.6535 11.2173 16.5756V18.1862C11.471 18.2346 11.7323 18.2609 11.9999 18.2609C12.2675 18.2609 12.5288 18.2346 12.7825 18.1862V16.5756C12.5354 16.6534 12.2725 16.6957 11.9999 16.6957Z" fill="#D80027"/>
<path d="M9.42613 14.5104L8.177 15.7595C8.39356 16.2526 8.70256 16.696 9.08235 17.0677L10.1886 15.9614C9.79381 15.58 9.5188 15.0756 9.42613 14.5104Z" fill="#D80027"/>
<path d="M15.8228 15.7596L14.5737 14.5105C14.481 15.0757 14.206 15.58 13.8113 15.9616L14.9175 17.0679C15.2972 16.6961 15.6063 16.2527 15.8228 15.7596Z" fill="#D80027"/>
</g>
<defs>
<clipPath id="clip0_253_5471">
<rect width="24" height="24" fill="white"/>
</clipPath>
</defs>
</svg>
