<svg width="24" height="24" viewBox="0 0 24 24" fill="none" xmlns="http://www.w3.org/2000/svg">
<g clip-path="url(#clip0_253_5820)">
<path d="M12 24C18.6274 24 24 18.6274 24 12C24 5.37258 18.6274 0 12 0C5.37258 0 0 5.37258 0 12C0 18.6274 5.37258 24 12 24Z" fill="#FCFCFC"/>
<path d="M15.6522 9.91309V10.9566H17.0843C16.4866 11.7872 15.6906 12.4653 14.7656 12.9219C14.5284 12.6754 14.1952 12.5218 13.8261 12.5218C13.2038 12.5218 12.6837 12.9577 12.5534 13.5407C12.3711 13.5568 12.1865 13.5653 12 13.5653C11.8135 13.5653 11.6289 13.5567 11.4466 13.5407C11.3163 12.9577 10.7962 12.5218 10.1739 12.5218C9.8048 12.5218 9.47176 12.6754 9.23438 12.9219C8.30944 12.4653 7.51341 11.7871 6.91576 10.9566H8.34784V9.91309H4.69566C4.69566 13.9471 7.96599 17.2174 12 17.2174C16.0341 17.2174 19.3043 13.9471 19.3043 9.91309H15.6522Z" fill="#D80027"/>
</g>
<defs>
<clipPath id="clip0_253_5820">
<rect width="24" height="24" fill="white"/>
</clipPath>
</defs>
</svg>
