<svg width="24" height="24" viewBox="0 0 24 24" fill="none" xmlns="http://www.w3.org/2000/svg">
<g clip-path="url(#clip0_253_5017)">
<path d="M12 24C18.6274 24 24 18.6274 24 12C24 5.37258 18.6274 0 12 0C5.37258 0 0 5.37258 0 12C0 18.6274 5.37258 24 12 24Z" fill="#F0F0F0"/>
<path d="M5.23657 2.08697C7.16243 0.770437 9.49109 0 12 0C14.509 0 16.8376 0.770437 18.7635 2.08697L12 2.60869L5.23657 2.08697Z" fill="#FFDA44"/>
<path d="M3.51534 20.4846L9.04856 14.9515L12 9.91298L14.9511 14.9511L20.4847 20.4846C22.6564 18.3132 24 15.3137 24 11.9999C24 7.88146 21.9249 4.24799 18.7635 2.08691H5.23655C2.07511 4.24799 0 7.88146 0 11.9999C0 15.3137 1.34363 18.3132 3.51534 20.4846Z" fill="#D80027"/>
<path d="M23.0884 16.5946L14.3148 12.9591L14.9507 14.9505L20.4846 20.4845C21.5896 19.3797 22.4801 18.0606 23.0884 16.5946Z" fill="#0052B4"/>
<path d="M24 11.9999C24 10.3722 23.6756 8.82035 23.0884 7.40515L12 11.9999H24Z" fill="#0052B4"/>
<path d="M20.4847 3.51529C19.9572 2.98795 19.3812 2.50921 18.7635 2.08691H16.1077L12 11.9999L20.4847 3.51529Z" fill="#0052B4"/>
<path d="M12 2.08691H7.89227L12 11.9999V2.08691Z" fill="#0052B4"/>
<path d="M3.51535 3.51526C2.41042 4.6201 1.51993 5.93921 0.911682 7.40513L12 11.9999L3.51535 3.51526Z" fill="#0052B4"/>
<path d="M0 12C0 13.6277 0.324422 15.1795 0.911625 16.5947L12 12H0Z" fill="#0052B4"/>
<path d="M5.23657 21.913C7.16238 23.2295 9.49109 23.9999 12 23.9999C14.509 23.9999 16.8376 23.2295 18.7635 21.913H5.23657Z" fill="#FFDA44"/>
<path d="M12 11.9999L14.9514 14.9513C15.7068 14.196 16.1739 13.1525 16.1739 11.9999C16.1739 9.69472 14.3052 7.82605 12 7.82605C9.69488 7.82605 7.82611 9.69472 7.82611 11.9999C7.82611 13.1525 8.29327 14.196 9.04866 14.9513L12 11.9999Z" fill="#FFDA44"/>
<path d="M13.8261 17.9999C13.8261 19.0085 13.0085 19.3043 12 19.3043C10.9915 19.3043 10.1739 19.0085 10.1739 17.9999C10.1739 16.9914 10.9915 16.1738 12 16.1738C13.0085 16.1738 13.8261 16.9914 13.8261 17.9999Z" fill="#FFDA44"/>
<path d="M13.8261 18C13.8261 19.0085 13.0085 19.8261 12 19.8261C10.9915 19.8261 10.1739 19.0085 10.1739 18" fill="#0052B4"/>
</g>
<defs>
<clipPath id="clip0_253_5017">
<rect width="24" height="24" fill="white"/>
</clipPath>
</defs>
</svg>
