<svg width="24" height="24" viewBox="0 0 24 24" fill="none" xmlns="http://www.w3.org/2000/svg">
<path d="M3 19.2H21V21H3V19.2ZM4.8 12H6.6V18.3H4.8V12ZM9.3 12H11.1V18.3H9.3V12ZM12.9 12H14.7V18.3H12.9V12ZM17.4 12H19.2V18.3H17.4V12ZM3 7.5L12 3L21 7.5V11.1H3V7.5ZM12 8.4C12.2387 8.4 12.4676 8.30518 12.6364 8.1364C12.8052 7.96761 12.9 7.73869 12.9 7.5C12.9 7.2613 12.8052 7.03239 12.6364 6.8636C12.4676 6.69482 12.2387 6.6 12 6.6C11.7613 6.6 11.5324 6.69482 11.3636 6.8636C11.1948 7.03239 11.1 7.2613 11.1 7.5C11.1 7.73869 11.1948 7.96761 11.3636 8.1364C11.5324 8.30518 11.7613 8.4 12 8.4Z" fill="#335CFF"/>
</svg>
