<svg width="25" height="25" viewBox="0 0 25 25" fill="none" xmlns="http://www.w3.org/2000/svg">
<path d="M3.125 20H21.875V21.875H3.125V20ZM5 12.5H6.875V19.0625H5V12.5ZM9.6875 12.5H11.5625V19.0625H9.6875V12.5ZM13.4375 12.5H15.3125V19.0625H13.4375V12.5ZM18.125 12.5H20V19.0625H18.125V12.5ZM3.125 7.8125L12.5 3.125L21.875 7.8125V11.5625H3.125V7.8125ZM5 8.97125V9.6875H20V8.97125L12.5 5.22125L5 8.97125ZM12.5 8.75C12.2514 8.75 12.0129 8.65123 11.8371 8.47541C11.6613 8.2996 11.5625 8.06114 11.5625 7.8125C11.5625 7.56386 11.6613 7.3254 11.8371 7.14959C12.0129 6.97377 12.2514 6.875 12.5 6.875C12.7486 6.875 12.9871 6.97377 13.1629 7.14959C13.3387 7.3254 13.4375 7.56386 13.4375 7.8125C13.4375 8.06114 13.3387 8.2996 13.1629 8.47541C12.9871 8.65123 12.7486 8.75 12.5 8.75Z" fill="#FA7319"/>
</svg>
