<svg width="20" height="20" viewBox="0 0 20 20" fill="none" xmlns="http://www.w3.org/2000/svg">
<path d="M7.91699 10.7754C9.49286 10.7754 10.812 11.8731 11.1523 13.3457H17.708C18.1219 13.346 18.4578 13.6818 18.458 14.0957C18.458 14.5098 18.122 14.8454 17.708 14.8457H11.1523C10.8122 16.3185 9.49308 17.417 7.91699 17.417C6.3411 17.4168 5.0226 16.3183 4.68262 14.8457H2.29102C1.87695 14.8455 1.54102 14.5098 1.54102 14.0957C1.54121 13.6818 1.87707 13.3459 2.29102 13.3457H4.68262C5.02284 11.8733 6.34133 10.7756 7.91699 10.7754ZM7.91699 12.2754C6.91159 12.2756 6.09668 13.0912 6.09668 14.0967C6.09714 15.1018 6.91187 15.9167 7.91699 15.917C8.92232 15.917 9.73782 15.1019 9.73828 14.0967C9.73828 13.0911 8.92261 12.2754 7.91699 12.2754ZM12.083 2.58301C13.6588 2.58322 14.9772 3.68177 15.3174 5.1543H17.707C18.1211 5.15447 18.457 5.49019 18.457 5.9043C18.4568 6.31823 18.121 6.65412 17.707 6.6543H15.3174C14.9773 8.1268 13.6588 9.2244 12.083 9.22461C10.507 9.22461 9.18787 8.12694 8.84766 6.6543H2.29004C1.87595 6.6543 1.54024 6.31834 1.54004 5.9043C1.54004 5.49008 1.87583 5.1543 2.29004 5.1543H8.84766C9.18793 3.68162 10.5071 2.58301 12.083 2.58301ZM12.083 4.08301C11.0775 4.08301 10.2619 4.89883 10.2617 5.9043C10.262 6.90971 11.0775 7.72461 12.083 7.72461C13.0883 7.72436 13.9031 6.90955 13.9033 5.9043C13.9031 4.89898 13.0883 4.08325 12.083 4.08301Z" fill="#344054"/>
</svg>
