<svg width="24" height="24" viewBox="0 0 24 24" fill="none" xmlns="http://www.w3.org/2000/svg">
<path d="M9.46533 5.46973C9.75815 5.17696 10.233 5.177 10.5259 5.46973C10.8186 5.76254 10.8186 6.23736 10.5259 6.53027L5.81201 11.2461L20.0005 11.2471C20.4147 11.2471 20.7505 11.5829 20.7505 11.9971C20.7502 12.4111 20.4145 12.7471 20.0005 12.7471L5.8042 12.7461L10.5259 17.4697C10.8186 17.7626 10.8186 18.2375 10.5259 18.5303C10.233 18.823 9.75814 18.823 9.46533 18.5303L3.46924 12.5303C3.35407 12.415 3.28478 12.2715 3.26025 12.1221C3.25338 12.0813 3.24951 12.0389 3.24951 11.9961C3.24962 11.826 3.30831 11.6707 3.40381 11.5449C3.41416 11.5314 3.42464 11.5178 3.43604 11.5049C3.4532 11.4852 3.47064 11.466 3.48975 11.4482L9.46533 5.46973Z" fill="#344054"/>
</svg>
