<svg width="33" height="20" viewBox="0 0 33 20" fill="none" xmlns="http://www.w3.org/2000/svg">
<path d="M4 0.5H29C30.933 0.5 32.5 2.067 32.5 4V16C32.5 17.933 30.933 19.5 29 19.5H4C2.067 19.5 0.5 17.933 0.5 16V4C0.5 2.067 2.067 0.5 4 0.5Z" fill="white"/>
<path d="M4 0.5H29C30.933 0.5 32.5 2.067 32.5 4V16C32.5 17.933 30.933 19.5 29 19.5H4C2.067 19.5 0.5 17.933 0.5 16V4C0.5 2.067 2.067 0.5 4 0.5Z" stroke="white"/>
<path d="M5.69602 14H4.2983L7.43892 5.27273H8.96023L12.1009 14H10.7031L8.2358 6.85795H8.16761L5.69602 14ZM5.9304 10.5824H10.4645V11.6903H5.9304V10.5824ZM13.3612 14V5.27273H18.8327V6.40625H14.6779V9.06534H18.5472V10.1946H14.6779V12.8665H18.8839V14H13.3612ZM23.4169 14H20.5916V5.27273H23.5064C24.3615 5.27273 25.0959 5.44744 25.7095 5.79688C26.3232 6.14347 26.7933 6.64205 27.12 7.29261C27.4496 7.94034 27.6143 8.71733 27.6143 9.62358C27.6143 10.5327 27.4482 11.3139 27.1158 11.9673C26.7862 12.6207 26.3089 13.1236 25.6839 13.4759C25.0589 13.8253 24.3033 14 23.4169 14ZM21.9084 12.8494H23.3445C24.0092 12.8494 24.5618 12.7244 25.0021 12.4744C25.4425 12.2216 25.772 11.8565 25.9908 11.3793C26.2095 10.8991 26.3189 10.3139 26.3189 9.62358C26.3189 8.93892 26.2095 8.35795 25.9908 7.88068C25.7749 7.40341 25.4524 7.04119 25.0234 6.79403C24.5945 6.54687 24.0618 6.4233 23.4254 6.4233H21.9084V12.8494Z" fill="#171717"/>
</svg>
