<svg width="34" height="20" viewBox="0 0 34 20" fill="none" xmlns="http://www.w3.org/2000/svg">
<path d="M4 0.5H30C31.933 0.5 33.5 2.067 33.5 4V16C33.5 17.933 31.933 19.5 30 19.5H4C2.067 19.5 0.5 17.933 0.5 16V4C0.5 2.067 2.067 0.5 4 0.5Z" fill="white"/>
<path d="M4 0.5H30C31.933 0.5 33.5 2.067 33.5 4V16C33.5 17.933 31.933 19.5 30 19.5H4C2.067 19.5 0.5 17.933 0.5 16V4C0.5 2.067 2.067 0.5 4 0.5Z" stroke="white"/>
<path d="M5.69602 14H4.2983L7.43892 5.27273H8.96023L12.1009 14H10.7031L8.2358 6.85795H8.16761L5.69602 14ZM5.9304 10.5824H10.4645V11.6903H5.9304V10.5824ZM18.9734 5.27273H20.2944V11.0128C20.2944 11.6236 20.1509 12.1648 19.864 12.6364C19.5771 13.1051 19.1737 13.4744 18.6538 13.7443C18.1339 14.0114 17.5245 14.1449 16.8256 14.1449C16.1296 14.1449 15.5217 14.0114 15.0018 13.7443C14.4819 13.4744 14.0785 13.1051 13.7915 12.6364C13.5046 12.1648 13.3612 11.6236 13.3612 11.0128V5.27273H14.6779V10.9062C14.6779 11.3011 14.7646 11.652 14.9379 11.9588C15.114 12.2656 15.3626 12.5071 15.6836 12.6832C16.0046 12.8565 16.3853 12.9432 16.8256 12.9432C17.2688 12.9432 17.6509 12.8565 17.9719 12.6832C18.2958 12.5071 18.543 12.2656 18.7134 11.9588C18.8867 11.652 18.9734 11.3011 18.9734 10.9062V5.27273ZM25.0341 14H22.2088V5.27273H25.1236C25.9787 5.27273 26.7131 5.44744 27.3267 5.79688C27.9403 6.14347 28.4105 6.64205 28.7372 7.29261C29.0668 7.94034 29.2315 8.71733 29.2315 9.62358C29.2315 10.5327 29.0653 11.3139 28.733 11.9673C28.4034 12.6207 27.9261 13.1236 27.3011 13.4759C26.6761 13.8253 25.9205 14 25.0341 14ZM23.5256 12.8494H24.9616C25.6264 12.8494 26.179 12.7244 26.6193 12.4744C27.0597 12.2216 27.3892 11.8565 27.608 11.3793C27.8267 10.8991 27.9361 10.3139 27.9361 9.62358C27.9361 8.93892 27.8267 8.35795 27.608 7.88068C27.392 7.40341 27.0696 7.04119 26.6406 6.79403C26.2116 6.54687 25.679 6.4233 25.0426 6.4233H23.5256V12.8494Z" fill="#171717"/>
</svg>
