<svg width="33" height="20" viewBox="0 0 33 20" fill="none" xmlns="http://www.w3.org/2000/svg">
<path d="M4 0.5H29C30.933 0.5 32.5 2.067 32.5 4V16C32.5 17.933 30.933 19.5 29 19.5H4C2.067 19.5 0.5 17.933 0.5 16V4C0.5 2.067 2.067 0.5 4 0.5Z" fill="white"/>
<path d="M4 0.5H29C30.933 0.5 32.5 2.067 32.5 4V16C32.5 17.933 30.933 19.5 29 19.5H4C2.067 19.5 0.5 17.933 0.5 16V4C0.5 2.067 2.067 0.5 4 0.5Z" stroke="white"/>
<path d="M10.8651 8.02983C10.7827 7.77131 10.6719 7.53977 10.5327 7.33523C10.3963 7.12784 10.233 6.9517 10.0426 6.80682C9.85227 6.65909 9.63494 6.54687 9.39062 6.47017C9.14915 6.39347 8.88352 6.35511 8.59375 6.35511C8.10227 6.35511 7.65909 6.48153 7.2642 6.73438C6.86932 6.98722 6.55682 7.35795 6.3267 7.84659C6.09943 8.33239 5.9858 8.92756 5.9858 9.6321C5.9858 10.3395 6.10085 10.9375 6.33097 11.4261C6.56108 11.9148 6.87642 12.2855 7.27699 12.5384C7.67756 12.7912 8.13352 12.9176 8.64489 12.9176C9.11932 12.9176 9.53267 12.821 9.88494 12.6278C10.2401 12.4347 10.5142 12.1619 10.7074 11.8097C10.9034 11.4545 11.0014 11.0369 11.0014 10.5568L11.3423 10.6207H8.84517V9.53409H12.2756V10.527C12.2756 11.2599 12.1193 11.8963 11.8068 12.4361C11.4972 12.973 11.0682 13.3878 10.5199 13.6804C9.97443 13.973 9.34943 14.1193 8.64489 14.1193C7.85511 14.1193 7.16193 13.9375 6.56534 13.5739C5.97159 13.2102 5.50852 12.6946 5.17614 12.027C4.84375 11.3565 4.67756 10.5611 4.67756 9.64062C4.67756 8.9446 4.77415 8.3196 4.96733 7.76562C5.16051 7.21165 5.43182 6.74148 5.78125 6.35511C6.13352 5.96591 6.54688 5.66903 7.02131 5.46449C7.49858 5.2571 8.01989 5.15341 8.58523 5.15341C9.05682 5.15341 9.49574 5.22301 9.90199 5.36222C10.3111 5.50142 10.6747 5.69886 10.9929 5.95455C11.3139 6.21023 11.5795 6.5142 11.7898 6.86648C12 7.21591 12.142 7.60369 12.2159 8.02983H10.8651ZM13.9471 14V5.27273H17.1431C17.7624 5.27273 18.2752 5.375 18.6815 5.57955C19.0877 5.78125 19.3917 6.0554 19.5934 6.40199C19.7951 6.74574 19.896 7.13352 19.896 7.56534C19.896 7.92898 19.8292 8.2358 19.6957 8.4858C19.5621 8.73295 19.3832 8.93182 19.1587 9.08239C18.9371 9.23011 18.6928 9.33807 18.4258 9.40625V9.49148C18.7156 9.50568 18.9982 9.59943 19.2738 9.77273C19.5522 9.94318 19.7823 10.1861 19.9641 10.5014C20.146 10.8168 20.2369 11.2003 20.2369 11.652C20.2369 12.098 20.1317 12.4986 19.9215 12.8537C19.7141 13.206 19.3931 13.4858 18.9585 13.6932C18.5238 13.8977 17.9684 14 17.2923 14H13.9471ZM15.2638 12.8707H17.1644C17.7951 12.8707 18.2468 12.7486 18.5195 12.5043C18.7923 12.2599 18.9286 11.9545 18.9286 11.5881C18.9286 11.3125 18.859 11.0597 18.7198 10.8295C18.5806 10.5994 18.3817 10.4162 18.1232 10.2798C17.8675 10.1435 17.5636 10.0753 17.2113 10.0753H15.2638V12.8707ZM15.2638 9.0483H17.0281C17.3235 9.0483 17.5891 8.99148 17.8249 8.87784C18.0636 8.7642 18.2525 8.60511 18.3917 8.40057C18.5337 8.19318 18.6048 7.94886 18.6048 7.66761C18.6048 7.30682 18.4783 7.00426 18.2255 6.75994C17.9727 6.51562 17.5849 6.39347 17.0621 6.39347H15.2638V9.0483ZM21.7987 14V5.27273H24.9094C25.5884 5.27273 26.1509 5.39631 26.5969 5.64347C27.043 5.89062 27.3768 6.22869 27.5984 6.65767C27.82 7.08381 27.9308 7.56392 27.9308 8.09801C27.9308 8.63494 27.8185 9.1179 27.5941 9.54688C27.3725 9.97301 27.0373 10.3111 26.5884 10.5611C26.1424 10.8082 25.5813 10.9318 24.9052 10.9318H22.766V9.81534H24.7859C25.2148 9.81534 25.5629 9.74148 25.8299 9.59375C26.0969 9.44318 26.293 9.23864 26.418 8.98011C26.543 8.72159 26.6055 8.42756 26.6055 8.09801C26.6055 7.76847 26.543 7.47585 26.418 7.22017C26.293 6.96449 26.0955 6.7642 25.8256 6.61932C25.5586 6.47443 25.2063 6.40199 24.7688 6.40199H23.1154V14H21.7987Z" fill="#171717"/>
</svg>
