<svg width="28" height="20" viewBox="0 0 28 20" fill="none" xmlns="http://www.w3.org/2000/svg">
<path d="M4 0.5H24C25.933 0.5 27.5 2.067 27.5 4V16C27.5 17.933 25.933 19.5 24 19.5H4C2.067 19.5 0.5 17.933 0.5 16V4C0.5 2.067 2.067 0.5 4 0.5Z" fill="white"/>
<path d="M4 0.5H24C25.933 0.5 27.5 2.067 27.5 4V16C27.5 17.933 25.933 19.5 24 19.5H4C2.067 19.5 0.5 17.933 0.5 16V4C0.5 2.067 2.067 0.5 4 0.5Z" stroke="white"/>
<path d="M6.27557 5.27273V14H4.95881V5.27273H6.27557ZM15.2372 5.27273V14H14.027L9.59091 7.59943H9.50994V14H8.19318V5.27273H9.41193L13.8523 11.6818H13.9332V5.27273H15.2372ZM17.158 14V5.27273H20.2688C20.945 5.27273 21.506 5.3892 21.9521 5.62216C22.4009 5.85511 22.7362 6.17756 22.9577 6.58949C23.1793 6.99858 23.2901 7.47159 23.2901 8.00852C23.2901 8.54261 23.1779 9.01278 22.9535 9.41903C22.7319 9.82244 22.3967 10.1364 21.9478 10.3608C21.5018 10.5852 20.9407 10.6974 20.2646 10.6974H17.908V9.56392H20.1452C20.5714 9.56392 20.918 9.50284 21.185 9.38068C21.4549 9.25852 21.6523 9.08097 21.7773 8.84801C21.9023 8.61506 21.9648 8.33523 21.9648 8.00852C21.9648 7.67898 21.9009 7.39347 21.7731 7.15199C21.6481 6.91051 21.4506 6.72585 21.1808 6.59801C20.9137 6.46733 20.5629 6.40199 20.1282 6.40199H18.4748V14H17.158ZM21.4663 10.0625L23.6225 14H22.1225L20.0089 10.0625H21.4663Z" fill="#171717"/>
</svg>
