<svg width="31" height="20" viewBox="0 0 31 20" fill="none" xmlns="http://www.w3.org/2000/svg">
<path d="M4 0.5H27C28.933 0.5 30.5 2.067 30.5 4V16C30.5 17.933 28.933 19.5 27 19.5H4C2.067 19.5 0.5 17.933 0.5 16V4C0.5 2.12727 1.97083 0.598421 3.82031 0.504883L4 0.5Z" fill="white"/>
<path d="M4 0.5H27C28.933 0.5 30.5 2.067 30.5 4V16C30.5 17.933 28.933 19.5 27 19.5H4C2.067 19.5 0.5 17.933 0.5 16V4C0.5 2.12727 1.97083 0.598421 3.82031 0.504883L4 0.5Z" stroke="white"/>
<path d="M8.35085 5.27273H9.66335V11.4602C9.66335 12.0199 9.55256 12.4986 9.33097 12.8963C9.11222 13.294 8.80398 13.598 8.40625 13.8082C8.00852 14.0156 7.54261 14.1193 7.00852 14.1193C6.51705 14.1193 6.07528 14.0298 5.68324 13.8509C5.29403 13.6719 4.9858 13.4119 4.75852 13.071C4.53409 12.7273 4.42188 12.3097 4.42188 11.8182H5.73011C5.73011 12.0597 5.78551 12.2685 5.89631 12.4446C6.00994 12.6207 6.16477 12.7585 6.3608 12.858C6.55966 12.9545 6.78693 13.0028 7.04261 13.0028C7.32102 13.0028 7.55682 12.9446 7.75 12.8281C7.94602 12.7088 8.09517 12.5341 8.19744 12.304C8.29972 12.0739 8.35085 11.7926 8.35085 11.4602V5.27273ZM11.5799 14V5.27273H14.6907C15.3697 5.27273 15.9322 5.39631 16.3782 5.64347C16.8242 5.89062 17.158 6.22869 17.3796 6.65767C17.6012 7.08381 17.712 7.56392 17.712 8.09801C17.712 8.63494 17.5998 9.1179 17.3754 9.54688C17.1538 9.97301 16.8185 10.3111 16.3697 10.5611C15.9237 10.8082 15.3626 10.9318 14.6864 10.9318H12.5472V9.81534H14.5671C14.9961 9.81534 15.3441 9.74148 15.6112 9.59375C15.8782 9.44318 16.0742 9.23864 16.1992 8.98011C16.3242 8.72159 16.3867 8.42756 16.3867 8.09801C16.3867 7.76847 16.3242 7.47585 16.1992 7.22017C16.0742 6.96449 15.8768 6.7642 15.6069 6.61932C15.3398 6.47443 14.9876 6.40199 14.5501 6.40199H12.8967V14H11.5799ZM18.5824 5.27273H20.0781L22.358 9.24006H22.4517L24.7315 5.27273H26.2273L23.0611 10.5739V14H21.7486V10.5739L18.5824 5.27273Z" fill="#171717"/>
</svg>
