<svg width="34" height="20" viewBox="0 0 34 20" fill="none" xmlns="http://www.w3.org/2000/svg">
<path d="M4 0.5H30C31.933 0.5 33.5 2.067 33.5 4V16C33.5 17.933 31.933 19.5 30 19.5H4C2.067 19.5 0.5 17.933 0.5 16V4C0.5 2.067 2.067 0.5 4 0.5Z" fill="white"/>
<path d="M4 0.5H30C31.933 0.5 33.5 2.067 33.5 4V16C33.5 17.933 31.933 19.5 30 19.5H4C2.067 19.5 0.5 17.933 0.5 16V4C0.5 2.067 2.067 0.5 4 0.5Z" stroke="white"/>
<path d="M10.571 5.27273H11.892V11.0128C11.892 11.6236 11.7486 12.1648 11.4616 12.6364C11.1747 13.1051 10.7713 13.4744 10.2514 13.7443C9.73153 14.0114 9.12216 14.1449 8.4233 14.1449C7.72727 14.1449 7.11932 14.0114 6.59943 13.7443C6.07955 13.4744 5.67614 13.1051 5.3892 12.6364C5.10227 12.1648 4.95881 11.6236 4.95881 11.0128V5.27273H6.27557V10.9062C6.27557 11.3011 6.36222 11.652 6.53551 11.9588C6.71165 12.2656 6.96023 12.5071 7.28125 12.6832C7.60227 12.8565 7.98295 12.9432 8.4233 12.9432C8.86648 12.9432 9.24858 12.8565 9.5696 12.6832C9.89347 12.5071 10.1406 12.2656 10.3111 11.9588C10.4844 11.652 10.571 11.3011 10.571 10.9062V5.27273ZM18.5664 7.56534C18.521 7.16193 18.3335 6.84943 18.0039 6.62784C17.6744 6.40341 17.2596 6.29119 16.7596 6.29119C16.4016 6.29119 16.092 6.34801 15.8306 6.46165C15.5692 6.57244 15.3661 6.72585 15.2212 6.92188C15.0792 7.11506 15.0082 7.33523 15.0082 7.58239C15.0082 7.78977 15.0565 7.96875 15.1531 8.11932C15.2525 8.26989 15.3817 8.39631 15.5408 8.49858C15.7028 8.59801 15.8761 8.68182 16.0607 8.75C16.2454 8.81534 16.4229 8.86932 16.5934 8.91193L17.4457 9.13352C17.7241 9.2017 18.0096 9.29403 18.3022 9.41051C18.5948 9.52699 18.8661 9.6804 19.1161 9.87074C19.3661 10.0611 19.5678 10.2969 19.7212 10.5781C19.8775 10.8594 19.9556 11.196 19.9556 11.5881C19.9556 12.0824 19.8278 12.5213 19.5721 12.9048C19.3192 13.2884 18.9513 13.5909 18.4684 13.8125C17.9883 14.0341 17.4073 14.1449 16.7255 14.1449C16.0721 14.1449 15.5067 14.0412 15.0295 13.8338C14.5522 13.6264 14.1786 13.3324 13.9087 12.9517C13.6388 12.5682 13.4897 12.1136 13.4613 11.5881H14.7823C14.8079 11.9034 14.9102 12.1662 15.0891 12.3764C15.271 12.5838 15.5025 12.7386 15.7837 12.8409C16.0678 12.9403 16.3789 12.9901 16.717 12.9901C17.0891 12.9901 17.4201 12.9318 17.7099 12.8153C18.0025 12.696 18.2326 12.5312 18.4002 12.321C18.5678 12.108 18.6516 11.8594 18.6516 11.5753C18.6516 11.3168 18.5778 11.1051 18.43 10.9403C18.2852 10.7756 18.0877 10.6392 17.8377 10.5312C17.5906 10.4233 17.3107 10.3281 16.9982 10.2457L15.967 9.96449C15.2681 9.77415 14.7141 9.49432 14.305 9.125C13.8988 8.75568 13.6957 8.26705 13.6957 7.65909C13.6957 7.15625 13.832 6.71733 14.1048 6.34233C14.3775 5.96733 14.7468 5.67614 15.2127 5.46875C15.6786 5.25852 16.2042 5.15341 16.7894 5.15341C17.3803 5.15341 17.9016 5.2571 18.3533 5.46449C18.8079 5.67188 19.1658 5.95739 19.4272 6.32102C19.6886 6.68182 19.8249 7.09659 19.8363 7.56534H18.5664ZM24.3544 14H21.5291V5.27273H24.4439C25.299 5.27273 26.0334 5.44744 26.647 5.79688C27.2607 6.14347 27.7308 6.64205 28.0575 7.29261C28.3871 7.94034 28.5518 8.71733 28.5518 9.62358C28.5518 10.5327 28.3857 11.3139 28.0533 11.9673C27.7237 12.6207 27.2464 13.1236 26.6214 13.4759C25.9964 13.8253 25.2408 14 24.3544 14ZM22.8459 12.8494H24.282C24.9467 12.8494 25.4993 12.7244 25.9396 12.4744C26.38 12.2216 26.7095 11.8565 26.9283 11.3793C27.147 10.8991 27.2564 10.3139 27.2564 9.62358C27.2564 8.93892 27.147 8.35795 26.9283 7.88068C26.7124 7.40341 26.3899 7.04119 25.9609 6.79403C25.532 6.54687 24.9993 6.4233 24.3629 6.4233H22.8459V12.8494Z" fill="#171717"/>
</svg>
