<svg width="24" height="24" viewBox="0 0 24 24" fill="none" xmlns="http://www.w3.org/2000/svg">
<g clip-path="url(#clip0_253_5250)">
<path d="M20.4853 20.4854C15.799 25.1716 8.20104 25.1716 3.51471 20.4854C-1.17157 15.7991 -1.17157 8.20105 3.51471 3.51473C3.5164 3.51473 14.2987 0.328772 18.985 5.01505C23.6713 9.70134 20.4885 20.4821 20.4853 20.4854Z" fill="#FFDA44"/>
<path d="M20.4852 20.4854C25.1715 15.7991 25.1715 8.20106 20.4852 3.51473C15.7989 -1.1716 8.20098 -1.17155 3.51465 3.51473L20.4852 20.4854Z" fill="#D80027"/>
<path d="M15.1367 15.1379C14.6438 15.3315 14.071 15.3109 13.5741 15.0321C12.6961 14.5393 12.3827 13.424 12.8756 12.5459L12.726 12.462C14.2293 12.0995 15.3415 10.735 15.322 9.12471C15.3099 8.1236 14.8626 7.22796 14.1629 6.61511L13.0673 7.73758C13.4815 8.06767 13.75 8.57402 13.7569 9.14369C13.7691 10.1506 12.9599 10.9796 11.9531 10.9918L11.9552 11.1632C10.8896 10.0426 9.15187 9.76169 7.76714 10.5837C6.90623 11.0948 6.35432 11.9299 6.17334 12.8424L7.69321 13.23C7.77201 12.7062 8.07618 12.2205 8.56607 11.9297C9.4319 11.4157 10.5545 11.702 11.0684 12.5678L11.216 12.4803C10.7783 13.9633 11.4038 15.6087 12.8082 16.397C13.6813 16.887 14.6804 16.9474 15.5611 16.648L15.1367 15.1379ZM11.9657 12.035L11.9656 12.0351L11.9657 12.035Z" fill="#FF9811"/>
<path d="M16.4431 8.12729L15.5949 11.1541L13.0501 10.6841L11.412 7.3075L6.98666 8.87785L6.63767 7.89442L5.47986 7.75178L6.35225 10.2103L9.39767 9.43145L10.2631 11.8703L8.15787 14.9772L11.7305 18.0244L11.0533 18.8183L11.5087 19.8924L13.2018 17.9076L11.0045 15.6596L12.6839 13.6907L16.4273 13.9604L17.2799 9.34276L18.306 9.53228L19.0086 8.60087L16.4431 8.12729ZM11.9991 12.0817V12.0818V12.0817Z" fill="#FFEACF"/>
</g>
<defs>
<clipPath id="clip0_253_5250">
<rect width="24" height="24" fill="white"/>
</clipPath>
</defs>
</svg>
