<svg width="24" height="24" viewBox="0 0 24 24" fill="none" xmlns="http://www.w3.org/2000/svg">
<g clip-path="url(#clip0_253_4974)">
<path d="M17.2174 1.19072C15.6397 0.427875 13.8699 0 12 0C10.1301 0 8.36025 0.427875 6.78262 1.19072L5.73914 12L6.78262 22.8093C8.36025 23.5721 10.1301 24 12 24C13.8699 24 15.6397 23.5721 17.2174 22.8093L18.2609 12L17.2174 1.19072Z" fill="#FFDA44"/>
<path d="M6.78263 1.19116C2.76867 3.13212 0 7.24254 0 12C0 16.7575 2.76867 20.8679 6.78263 22.8089V1.19116Z" fill="#0052B4"/>
<path d="M17.2174 1.19116V22.8089C21.2313 20.8679 24 16.7575 24 12C24 7.24254 21.2313 3.13212 17.2174 1.19116Z" fill="#0052B4"/>
<path d="M15.3913 13.0434L16.1739 14.0869V9.91297L15.3913 10.9565H13.0435V8.60863L14.087 7.82605H9.91303L10.9565 8.60863V10.9565H8.60869L7.82611 9.91297V14.0869L8.60869 13.0434H10.9565V15.3913L9.91303 16.1738H14.087L13.0435 15.3913V13.0434H15.3913Z" fill="#D80027"/>
<path d="M15.1304 11.4782H12.5217V8.86951H11.4783V11.4782H8.86954V12.5217H11.4783V15.1304H12.5217V12.5217H15.1304V11.4782Z" fill="#F0F0F0"/>
</g>
<defs>
<clipPath id="clip0_253_4974">
<rect width="24" height="24" fill="white"/>
</clipPath>
</defs>
</svg>
