<svg width="24" height="24" viewBox="0 0 24 24" fill="none" xmlns="http://www.w3.org/2000/svg">
<g clip-path="url(#clip0_253_5235)">
<path d="M12 24C18.6274 24 24 18.6274 24 12C24 5.37258 18.6274 0 12 0C5.37258 0 0 5.37258 0 12C0 18.6274 5.37258 24 12 24Z" fill="#F0F0F0"/>
<path d="M23.8984 10.4348H13.5653H13.5653V0.101578C13.0529 0.034875 12.5305 0 12 0C11.4695 0 10.9471 0.034875 10.4348 0.101578V10.4347V10.4347H0.101578C0.034875 10.9471 0 11.4695 0 12C0 12.5305 0.034875 13.0529 0.101578 13.5652H10.4347H10.4347V23.8984C10.9471 23.9651 11.4695 24 12 24C12.5305 24 13.0529 23.9652 13.5652 23.8984V13.5653V13.5653H23.8984C23.9651 13.0529 24 12.5305 24 12C24 11.4695 23.9651 10.9471 23.8984 10.4348Z" fill="#D80027"/>
<path d="M17.7391 4.17395C16.7666 4.17395 15.9496 4.83906 15.7179 5.73915L17.7391 6.26087L19.7603 5.73915C19.5286 4.83911 18.7116 4.17395 17.7391 4.17395Z" fill="black"/>
<path d="M15.6522 8.86955L18.2609 9.39127V8.28207C18.9943 8.09326 19.5715 7.5159 19.7602 6.78258L17.7392 6.26086H15.1305L15.6522 7.82607V8.86955Z" fill="black"/>
<path d="M19.7604 5.73914H15.1305V6.78262V7.8261H15.6522V6.78262H19.7602C19.8032 6.61589 19.8261 6.44104 19.8261 6.2609C19.8261 6.08071 19.8033 5.90587 19.7604 5.73914Z" fill="#ACABB1"/>
<path d="M6.78262 4.17395C5.81015 4.17395 4.99307 4.83906 4.76141 5.73915L6.78262 6.26087L8.80382 5.73915C8.57216 4.83911 7.75509 4.17395 6.78262 4.17395Z" fill="black"/>
<path d="M4.69566 8.86955L7.30434 9.39127V8.28207C8.0377 8.09326 8.61492 7.5159 8.80369 6.78258L6.78262 6.26086H4.17389L4.69561 7.82607V8.86955H4.69566Z" fill="black"/>
<path d="M8.80383 5.73914H4.17389V6.78262V7.8261H4.69561V6.78262H8.80364C8.84658 6.61589 8.86954 6.44104 8.86954 6.2609C8.86954 6.08071 8.84676 5.90587 8.80383 5.73914Z" fill="#ACABB1"/>
<path d="M17.7391 14.6086C16.7666 14.6086 15.9496 15.2738 15.7179 16.1738L17.7391 16.6956L19.7603 16.1738C19.5286 15.2738 18.7116 14.6086 17.7391 14.6086Z" fill="black"/>
<path d="M15.6522 19.3044L18.2609 19.8261V18.7169C18.9943 18.5281 19.5715 17.9507 19.7602 17.2174L17.7392 16.6957H15.1305L15.6522 18.2609V19.3044Z" fill="black"/>
<path d="M19.7604 16.174H15.1305V17.2174V18.2609H15.6522V17.2174H19.7602C19.8032 17.0507 19.8261 16.8759 19.8261 16.6957C19.8261 16.5156 19.8033 16.3407 19.7604 16.174Z" fill="#ACABB1"/>
<path d="M6.78262 14.6086C5.81015 14.6086 4.99307 15.2738 4.76141 16.1738L6.78262 16.6956L8.80382 16.1738C8.57216 15.2738 7.75509 14.6086 6.78262 14.6086Z" fill="black"/>
<path d="M4.69566 19.3044L7.30434 19.8261V18.7169C8.0377 18.5281 8.61492 17.9507 8.80369 17.2174L6.78262 16.6957H4.17389L4.69561 18.2609V19.3044H4.69566Z" fill="black"/>
<path d="M8.80383 16.174H4.17389V17.2174V18.2609H4.69561V17.2174H8.80364C8.84658 17.0507 8.86954 16.8759 8.86954 16.6957C8.86954 16.5156 8.84676 16.3407 8.80383 16.174Z" fill="#ACABB1"/>
</g>
<defs>
<clipPath id="clip0_253_5235">
<rect width="24" height="24" fill="white"/>
</clipPath>
</defs>
</svg>
