<svg width="24" height="24" viewBox="0 0 24 24" fill="none" xmlns="http://www.w3.org/2000/svg">
<g clip-path="url(#clip0_253_5601)">
<path d="M23.2536 16.174C23.736 14.874 24 13.4679 24 12.0001C24 10.5322 23.736 9.12618 23.2536 7.8262L12 6.78271L0.746391 7.8262C0.264047 9.12618 0 10.5322 0 12.0001C0 13.4679 0.264047 14.874 0.746391 16.174L12 17.2175L23.2536 16.174Z" fill="#F0F0F0"/>
<path d="M12 23.9999C17.1595 23.9999 21.5581 20.7434 23.2536 16.1738H0.746338C2.4419 20.7434 6.84037 23.9999 12 23.9999Z" fill="#D80027"/>
<path d="M12 0C6.84037 0 2.4419 3.2565 0.746338 7.82611H23.2536C21.5581 3.2565 17.1595 0 12 0Z" fill="#496E2D"/>
<path d="M12 9.39136L12.6475 11.3842H14.7429L13.0477 12.6159L13.6953 14.6087L12 13.3772L10.3047 14.6087L10.9523 12.6159L9.25705 11.3842H11.3525L12 9.39136Z" fill="black"/>
<path d="M15.5652 2.3479V4.78263C15.5652 5.16631 15.2532 5.47831 14.8696 5.47831V6.52179C15.8286 6.52179 16.6087 5.74165 16.6087 4.78263V2.3479H15.5652Z" fill="#F0F0F0"/>
<path d="M8.08697 4.78263C8.08697 5.16631 7.77492 5.47831 7.3913 5.47831V6.52179C8.35031 6.52179 9.13045 5.74165 9.13045 4.78263V2.3479H8.08697V4.78263Z" fill="#F0F0F0"/>
<path d="M13.9998 2.3479H15.0433V4.78263H13.9998V2.3479Z" fill="#F0F0F0"/>
<path d="M12.4348 3.73915C12.4348 3.83506 12.3567 3.9131 12.2609 3.9131C12.165 3.9131 12.0869 3.83506 12.0869 3.73915V2.3479H11.0434V3.73915C11.0434 3.83506 10.9654 3.9131 10.8695 3.9131C10.7736 3.9131 10.6956 3.83506 10.6956 3.73915V2.3479H9.65213V3.73915C9.65213 4.41049 10.1982 4.95659 10.8695 4.95659C11.128 4.95659 11.3678 4.87535 11.5651 4.7374C11.7625 4.87535 12.0023 4.95659 12.2608 4.95659C12.3129 4.95659 12.3641 4.95293 12.4144 4.94651C12.3405 5.25115 12.0661 5.47831 11.7391 5.47831V6.52179C12.6981 6.52179 13.4782 5.74165 13.4782 4.78263V3.73915V2.3479H12.4347L12.4348 3.73915Z" fill="#F0F0F0"/>
<path d="M9.65216 5.47827H11.2174V6.52176H9.65216V5.47827Z" fill="#F0F0F0"/>
</g>
<defs>
<clipPath id="clip0_253_5601">
<rect width="24" height="24" fill="white"/>
</clipPath>
</defs>
</svg>
