<svg width="24" height="24" viewBox="0 0 24 24" fill="none" xmlns="http://www.w3.org/2000/svg">
<g clip-path="url(#clip0_253_6816)">
<path d="M12 24C18.6274 24 24 18.6274 24 12C24 5.37258 18.6274 0 12 0C5.37258 0 0 5.37258 0 12C0 18.6274 5.37258 24 12 24Z" fill="#F0F0F0"/>
<path d="M24 12C24 18.6274 18.6274 24 12 24C5.37262 24 0 18.6274 0 12" fill="#496E2D"/>
<path d="M20.7663 8.35053C20.3371 7.13352 19.1776 6.26099 17.8138 6.26099H15.1305C13.4016 6.26099 12 7.66255 12 9.39144C12 9.95628 12.1504 10.4991 12.4121 10.9566C11.4157 10.9485 10.4935 10.9635 9.91303 10.9566C9.91303 9.74933 9.91303 8.21136 9.91303 7.88956L10.0363 7.76628C10.5897 7.21288 10.4052 6.29057 10.4052 6.29057C10.4052 6.29057 9.48295 6.10611 8.92955 6.65952L8.28459 7.30447H7.5652C5.98036 7.30447 4.69566 8.58922 4.69566 10.174H6.78262V12.5218C6.78262 12.8653 6.85186 13.1924 6.97697 13.4903L6.26086 14.087H5.21737V13.0436H4.17389V15.1305H8.86955V17.2175H7.82606V18.261H9.91303V16.174L10.8695 15.0262H13.1304L14.0869 16.174V17.2175H13.0434V18.261H17.2173V12.5218C17.2173 11.6574 17.9181 10.9566 18.7825 10.9566C18.8047 10.9566 18.8268 10.9574 18.8488 10.9583C18.8056 10.791 18.7825 10.6157 18.7825 10.4349C18.7826 9.31696 19.6617 8.40439 20.7663 8.35053ZM15.1305 17.2175V15.0261H15.2174L16.1739 16.174V17.2175H15.1305Z" fill="#D80027"/>
</g>
<defs>
<clipPath id="clip0_253_6816">
<rect width="24" height="24" fill="white"/>
</clipPath>
</defs>
</svg>
