<svg width="42" height="24" viewBox="0 0 42 24" fill="none" xmlns="http://www.w3.org/2000/svg">
<path d="M36.7832 1.80005H27.3626C25.4759 1.80005 23.948 3.36754 23.948 5.30319H40.2001C40.2001 3.36754 38.6722 1.80005 36.7854 1.80005H36.7832ZM36.7832 10.2473H26.2684L16.3129 1.80005H5.2147C3.32795 1.80005 1.80005 3.36754 1.80005 5.30319V18.6969C1.80005 20.6326 3.32795 22.2 5.2147 22.2H17.4049C19.2916 22.2 20.8195 20.6326 20.8195 18.6969V13.6217L17.4049 10.7239V18.6969H5.2147V5.30319H15.0844L25.04 13.7505H36.7832V18.6946H23.948C23.948 20.6303 25.4759 22.1978 27.3626 22.1978H36.7832C38.6699 22.1978 40.1978 20.6303 40.1978 18.6946V13.7505C40.1978 11.8148 38.6699 10.2473 36.7832 10.2473Z" fill="url(#paint0_linear_2717_5173)"/>
<defs>
<linearGradient id="paint0_linear_2717_5173" x1="2.43851" y1="20.8787" x2="39.8931" y2="3.85548" gradientUnits="userSpaceOnUse">
<stop stop-color="#F37021"/>
<stop offset="0.25" stop-color="#F68B1F"/>
<stop offset="0.66" stop-color="#F04E23"/>
</linearGradient>
</defs>
</svg>
