<svg width="112" height="24" viewBox="0 0 112 24" fill="none" xmlns="http://www.w3.org/2000/svg">
<path d="M36.7832 1.80005H27.3626C25.4759 1.80005 23.948 3.36754 23.948 5.30319H40.2001C40.2001 3.36754 38.6722 1.80005 36.7854 1.80005H36.7832ZM36.7832 10.2473H26.2684L16.3129 1.80005H5.2147C3.32795 1.80005 1.80005 3.36754 1.80005 5.30319V18.6969C1.80005 20.6326 3.32795 22.2 5.2147 22.2H17.4049C19.2916 22.2 20.8195 20.6326 20.8195 18.6969V13.6217L17.4049 10.7239V18.6969H5.2147V5.30319H15.0844L25.04 13.7505H36.7832V18.6946H23.948C23.948 20.6303 25.4759 22.1978 27.3626 22.1978H36.7832C38.6699 22.1978 40.1978 20.6303 40.1978 18.6946V13.7505C40.1978 11.8148 38.6699 10.2473 36.7832 10.2473Z" fill="url(#paint0_linear_2012_781)"/>
<path d="M53.5935 10.8043C57.1116 10.7936 59.2267 8.68114 59.2188 5.442C59.2081 2.20286 57.0797 0.101006 53.5642 0.111635C50.1231 0.122264 47.9921 2.23475 48 5.47389C48.008 8.71303 50.1524 10.8149 53.5935 10.8043ZM53.5722 2.34369C55.8494 2.33838 56.7343 3.14086 56.7423 5.44997C56.7476 7.75909 55.868 8.56688 53.5908 8.57485C51.3136 8.58017 50.4739 7.77769 50.4686 5.46857C50.4633 3.15946 51.2976 2.35166 53.5749 2.34635L53.5722 2.34369ZM70.9929 3.70419H71.1629L71.0912 5.3304L71.1045 10.5996L73.4295 10.5943L73.4003 0.212609L70.2382 0.220581L67.8972 5.34103L66.9592 7.77769H66.7892L65.806 5.349L63.3587 0.239181L60.2126 0.247153L60.2418 10.6289L62.5669 10.6236L62.5536 5.35431L62.4553 3.7281H62.6253L63.2338 5.35431L65.4154 9.99646L68.2347 9.98849L70.3897 5.33306L70.9902 3.70419H70.9929ZM78.3427 5.62269L82.1851 10.5704L84.6642 10.5624L84.635 0.180723L82.3099 0.186037L82.3232 5.19222L82.4375 7.28345H82.2674L80.8379 5.10188L77.1045 0.199323L74.6253 0.207295L74.6545 10.589L76.9796 10.5837L76.9663 5.57752L76.868 3.6723H77.0221L78.3454 5.62004L78.3427 5.62269ZM88.2276 10.5518L88.1983 0.170094L85.8733 0.175408L85.9025 10.5571L88.2276 10.5518ZM95.6013 4.55184L92.6864 4.0948C91.8175 3.94068 91.4773 3.72544 91.4747 3.12226C91.4747 2.4553 91.9822 2.12846 93.6562 2.1258C95.7182 2.12049 96.2284 2.53767 96.2311 3.52881V3.7467L98.5721 3.74139V3.64838C98.5668 1.45884 97.0761 -0.0079393 93.8848 3.23323e-05C90.3985 0.0106612 89.131 1.65548 89.1363 3.22057C89.1416 4.91056 90.2444 5.83527 92.1044 6.12491L95.0194 6.53677C96.0902 6.72012 96.4463 6.9513 96.449 7.58637C96.449 8.28256 96.0185 8.56423 94.1584 8.56954C92.0513 8.57485 91.5703 8.18956 91.5677 7.22765V6.94864L89.2426 6.95396V7.04696C89.2506 9.46502 91.0203 10.7006 94.1664 10.69C97.4667 10.682 98.7793 9.15944 98.774 7.46945C98.7687 6.04253 97.929 4.91322 95.604 4.54918L95.6013 4.55184ZM53.2958 18.5128L51.3428 18.1142C49.5917 17.7316 48.7998 17.3171 48.7945 15.9513C48.7919 14.6652 49.8601 13.9956 52.0602 13.9903C54.3853 13.9849 55.4562 14.9096 55.4615 16.5837V16.7697H56.1603V16.6767C56.155 14.8645 54.9114 13.302 52.0762 13.31C49.2702 13.318 48.0983 14.6678 48.101 16.0336C48.1063 17.7688 49.5332 18.4012 51.1621 18.736L53.1311 19.1346C54.8051 19.5013 55.6129 19.9796 55.6156 21.2976C55.6183 22.6607 54.5049 23.3304 52.3499 23.3357C49.8096 23.3436 48.7068 22.4003 48.7015 20.7263V20.5403H48.0027V20.6333C48.008 22.4774 49.3127 24.0079 52.3499 24C55.0762 23.992 56.3118 22.6421 56.3091 21.2152C56.3038 19.5412 55.0018 18.8636 53.2958 18.5128ZM62.5615 13.2781C59.6014 13.2861 57.4384 15.4012 57.4464 18.6377C57.457 21.8769 59.6306 23.9787 62.5908 23.9707C65.5669 23.9628 67.7139 21.8476 67.7059 18.6111C67.6979 15.372 65.5376 13.2701 62.5615 13.2781ZM62.5908 23.2905C59.8485 23.2985 58.1692 21.6297 58.1612 18.6377C58.1532 15.6484 59.822 13.9531 62.5642 13.9451C65.3064 13.9371 66.9858 15.6218 66.9938 18.6138C67.0017 21.6032 65.333 23.2825 62.5908 23.2905ZM106.323 13.2781C103.363 13.2861 101.2 15.4012 101.208 18.6377C101.219 21.8769 103.392 23.9787 106.352 23.9707C109.328 23.9628 111.476 21.8476 111.468 18.6111C111.46 15.372 109.299 13.2701 106.323 13.2781ZM106.352 23.2905C103.61 23.2985 101.931 21.6297 101.923 18.6377C101.915 15.6484 103.584 13.9531 106.326 13.9451C109.068 13.9371 110.747 15.6218 110.755 18.6138C110.763 21.6032 109.095 23.2825 106.352 23.2905ZM70.0443 23.1603L70.0177 13.4136H69.3188L69.3481 23.798L76.7697 23.7768V23.1417L70.0416 23.1603H70.0443ZM86.3967 13.3685L86.4127 19.4588C86.4206 22.0469 85.092 23.2294 82.565 23.2347C80.054 23.2427 78.7174 22.0682 78.7121 19.4801L78.6961 13.3897H77.9999L78.0159 19.4987C78.0239 22.3817 79.8706 23.9256 82.5677 23.9176C85.278 23.9096 87.1036 22.3552 87.0956 19.4721L87.0796 13.3658H86.3994L86.3967 13.3685ZM97.6925 13.3366L88.193 13.3632V13.9982L92.612 13.9849L92.6385 23.7316H93.3214L93.2949 13.9823L97.6952 13.969V13.3339L97.6925 13.3366ZM98.8856 13.3339L98.9149 23.7156H99.6111L99.5818 13.3313H98.883L98.8856 13.3339Z" fill="white"/>
<defs>
<linearGradient id="paint0_linear_2012_781" x1="2.43851" y1="20.8787" x2="39.8931" y2="3.85548" gradientUnits="userSpaceOnUse">
<stop stop-color="#F37021"/>
<stop offset="0.25" stop-color="#F68B1F"/>
<stop offset="0.66" stop-color="#F04E23"/>
</linearGradient>
</defs>
</svg>
