<svg width="24" height="20" viewBox="0 0 24 20" fill="none" xmlns="http://www.w3.org/2000/svg">
<path d="M21.2643 4H15.538C14.3912 4 13.4625 4.95279 13.4625 6.12936H23.3412C23.3412 4.95279 22.4125 4 21.2656 4H21.2643ZM21.2643 9.13463H14.8729L8.82153 4H2.07557C0.928723 4 0 4.95279 0 6.12936V14.2706C0 15.4472 0.928723 16.4 2.07557 16.4H9.48528C10.6321 16.4 11.5609 15.4472 11.5609 14.2706V11.1857L9.48528 9.42431V14.2706H2.07557V6.12936H8.0748L14.1262 11.264H21.2643V14.2693H13.4625C13.4625 15.4458 14.3912 16.3986 15.538 16.3986H21.2643C22.4111 16.3986 23.3398 15.4458 23.3398 14.2693V11.264C23.3398 10.0874 22.4111 9.13463 21.2643 9.13463Z" fill="#5C5C5C"/>
</svg>
