<svg width="20" height="20" viewBox="0 0 20 20" fill="none" xmlns="http://www.w3.org/2000/svg">
<path d="M10 17.5C5.85775 17.5 2.5 14.1422 2.5 10C2.5 5.85775 5.85775 2.5 10 2.5C14.1422 2.5 17.5 5.85775 17.5 10C17.5 14.1422 14.1422 17.5 10 17.5ZM14.7662 12.964V12.8853C14.7662 12.1938 14.7662 11.878 14.2772 11.5982C14.1201 11.5091 13.9586 11.4278 13.7935 11.3545C13.5183 11.2292 13.336 11.1475 13.09 10.7875C13.0606 10.7448 13.0316 10.7017 13.003 10.6585C12.7442 10.2648 12.5575 9.98125 11.8465 10.0938C10.4477 10.3158 10.3442 10.5618 10.2827 10.9773L10.273 11.0455C10.1823 11.653 10.1658 11.857 10.4193 12.1233C11.368 13.1185 11.9365 13.8362 12.109 14.2562C12.193 14.461 12.409 15.0813 12.2605 15.6948C13.1709 15.3321 13.9812 14.7569 14.6238 14.017C14.7063 13.7365 14.7662 13.387 14.7662 12.964V12.964ZM10 3.87475C8.26225 3.87475 6.6925 4.59925 5.578 5.76175C5.71075 5.854 5.82625 5.98375 5.90575 6.16225C6.05875 6.505 6.05875 6.85825 6.05875 7.171C6.05875 7.417 6.05875 7.651 6.1375 7.81975C6.2455 8.05075 6.712 8.14975 7.12375 8.23525C7.2715 8.26675 7.423 8.29825 7.561 8.3365C7.9405 8.4415 8.2345 8.78275 8.46925 9.0565C8.56675 9.16975 8.7115 9.337 8.78425 9.379C8.82175 9.352 8.9425 9.22075 9.00175 9.0055C9.04825 8.8405 9.03475 8.695 8.968 8.6155C8.548 8.1205 8.57125 7.168 8.701 6.81625C8.905 6.262 9.5425 6.30325 10.009 6.33325C10.183 6.3445 10.3465 6.35575 10.4695 6.34C10.936 6.2815 11.08 5.57125 11.1812 5.4325C11.4002 5.1325 12.0707 4.68025 12.4862 4.40125C11.7036 4.05324 10.8565 3.87386 10 3.87475V3.87475Z" fill="white"/>
</svg>
