<svg width="194" height="100" viewBox="0 0 194 100" fill="none" xmlns="http://www.w3.org/2000/svg">
<path d="M175.93 0H128.554C119.066 0 111.382 7.68379 111.382 17.1723H193.113C193.113 7.68379 185.43 0 175.941 0H175.93ZM175.93 41.4083H123.051L72.9849 0H17.1723C7.68379 0 0 7.68379 0 17.1723V82.8277C0 92.3162 7.68379 100 17.1723 100H78.4765C87.965 100 95.6488 92.3162 95.6488 82.8277V57.9495L78.4765 43.7445V82.8277H17.1723V17.1723H66.8069L116.873 58.5806H175.93V82.8167H111.382C111.382 92.3051 119.066 99.9889 128.554 99.9889H175.93C185.419 99.9889 193.102 92.3051 193.102 82.8167V58.5806C193.102 49.0921 185.419 41.4083 175.93 41.4083Z" fill="url(#paint0_linear_7_470901)"/>
<defs>
<linearGradient id="paint0_linear_7_470901" x1="3.21081" y1="93.523" x2="189.891" y2="6.47697" gradientUnits="userSpaceOnUse">
<stop stop-color="#F37021"/>
<stop offset="0.25" stop-color="#F68B1F"/>
<stop offset="0.66" stop-color="#F04E23"/>
</linearGradient>
</defs>
</svg>
