<svg width="1133" height="254" viewBox="0 0 1133 254" fill="none" xmlns="http://www.w3.org/2000/svg">
<path d="M125.151 279.363C101.174 279.363 79.6799 273.551 60.6682 261.926C41.7776 250.18 26.9436 233.832 16.1663 212.883C5.38892 191.934 0.000244141 167.594 0.000244141 139.863C0.000244141 111.891 5.38892 87.4297 16.1663 66.4805C26.9436 45.4102 41.7776 29.0625 60.6682 17.4375C79.6799 5.8125 101.174 0 125.151 0C149.369 0 170.864 5.8125 189.633 17.4375C208.524 29.0625 223.358 45.4102 234.135 66.4805C245.033 87.4297 250.483 111.891 250.483 139.863C250.483 167.715 245.033 192.115 234.135 213.064C223.358 234.014 208.524 250.301 189.633 261.926C170.864 273.551 149.369 279.363 125.151 279.363ZM125.151 239.402C140.287 239.402 153.971 235.588 166.201 227.959C178.432 220.209 188.119 208.887 195.264 193.992C202.408 179.098 205.981 161.055 205.981 139.863C205.981 118.551 202.408 100.447 195.264 85.5527C188.119 70.5371 178.432 59.2148 166.201 51.5859C153.971 43.8359 140.287 39.9609 125.151 39.9609C110.014 39.9609 96.3303 43.8359 84.0999 51.5859C71.9905 59.2148 62.303 70.5371 55.0374 85.5527C47.8928 100.447 44.3206 118.551 44.3206 139.863C44.3206 161.055 47.8928 179.098 55.0374 193.992C62.303 208.887 71.9905 220.209 84.0999 227.959C96.3303 235.588 110.014 239.402 125.151 239.402ZM278.229 275.004V4.35938H341.076L397.93 154.758C399.625 159.602 401.623 165.535 403.924 172.559C406.225 179.461 408.586 186.727 411.008 194.355C413.551 201.984 415.912 209.25 418.092 216.152C420.272 222.934 422.027 228.564 423.359 233.045H412.643C413.975 228.564 415.67 222.934 417.729 216.152C419.908 209.25 422.209 201.984 424.631 194.355C427.174 186.727 429.596 179.461 431.897 172.559C434.197 165.535 436.195 159.602 437.891 154.758L493.654 4.35938H556.865V275.004H513.272V132.234C513.272 126.301 513.332 119.58 513.453 112.072C513.574 104.564 513.756 96.6934 513.998 88.459C514.24 80.1035 514.483 71.748 514.725 63.3926C514.967 54.916 515.088 46.8027 515.088 39.0527H520.719C517.813 48.0137 514.906 57.0352 512 66.1172C509.094 75.0781 506.248 83.7363 503.463 92.0918C500.799 100.326 498.317 107.895 496.016 114.797C493.715 121.578 491.717 127.391 490.022 132.234L435.529 275.004H399.565L344.709 132.234C342.893 127.391 340.774 121.578 338.352 114.797C336.051 107.895 333.508 100.326 330.723 92.0918C327.938 83.7363 325.031 75.0781 322.004 66.1172C318.977 57.0352 315.889 48.0137 312.74 39.0527H320.006C320.127 46.8027 320.248 54.916 320.369 63.3926C320.611 71.748 320.854 80.1035 321.096 88.459C321.338 96.6934 321.52 104.564 321.641 112.072C321.762 119.58 321.822 126.301 321.822 132.234V275.004H278.229ZM594.42 275.004V4.35938H642.555L741.73 161.66C744.395 165.656 747.664 170.984 751.539 177.645C755.414 184.305 759.531 191.51 763.891 199.26C768.371 206.889 772.609 214.336 776.605 221.602L771.883 232.137C771.52 224.75 771.156 216.273 770.793 206.707C770.551 197.02 770.309 187.756 770.066 178.916C769.945 170.076 769.885 163.355 769.885 158.754V4.35938H814.205V275.004H765.707L676.703 134.051C673.797 129.328 669.922 123.031 665.078 115.16C660.355 107.289 654.967 98.1465 648.912 87.7324C642.857 77.3184 636.379 66.1172 629.477 54.1289L636.197 46.6816C636.924 60.3652 637.469 72.8984 637.832 84.2812C638.195 95.6641 638.377 105.594 638.377 114.07C638.498 122.426 638.559 128.965 638.559 133.688V275.004H594.42ZM895.898 4.35938V275.004H851.76V4.35938H895.898ZM1029.36 279.363C1007.44 279.363 988.551 275.67 972.687 268.283C956.945 260.896 944.775 250.301 936.177 236.496C927.701 222.691 923.463 206.223 923.463 187.09H967.238C967.238 198.352 969.72 208.1 974.685 216.334C979.65 224.447 986.795 230.684 996.119 235.043C1005.56 239.402 1016.77 241.582 1029.72 241.582C1041.47 241.582 1051.7 239.887 1060.42 236.496C1069.14 233.105 1075.92 228.322 1080.76 222.146C1085.73 215.971 1088.21 208.705 1088.21 200.35C1088.21 193.689 1086.45 187.877 1082.94 182.912C1079.55 177.947 1074.1 173.648 1066.6 170.016C1059.21 166.262 1049.34 162.992 1036.99 160.207L1007.56 153.305C980.437 147.008 960.517 137.926 947.802 126.059C935.209 114.07 928.912 98.6309 928.912 79.7402C928.912 63.7559 932.969 49.8301 941.082 37.9629C949.195 25.9746 960.578 16.6504 975.23 9.99023C990.004 3.33008 1007.2 0 1026.82 0C1046.68 0 1063.81 3.45117 1078.22 10.3535C1092.75 17.2559 1104.07 27.125 1112.19 39.9609C1120.3 52.7969 1124.6 68.1152 1125.08 85.916H1082.76C1081.79 70.9004 1076.28 59.1543 1066.23 50.6777C1056.18 42.2012 1042.92 37.9629 1026.45 37.9629C1016.04 37.9629 1006.78 39.6582 998.662 43.0488C990.67 46.4395 984.373 51.1016 979.771 57.0352C975.17 62.9688 972.869 69.8711 972.869 77.7422C972.869 84.0391 974.564 89.4883 977.955 94.0898C981.467 98.6914 986.916 102.748 994.302 106.26C1001.69 109.771 1011.44 112.98 1023.55 115.887L1051.7 122.426C1065.63 125.574 1077.61 129.449 1087.67 134.051C1097.72 138.652 1106.01 144.041 1112.55 150.217C1119.21 156.271 1124.11 163.295 1127.26 171.287C1130.53 179.158 1132.17 187.998 1132.17 197.807C1132.17 214.275 1127.93 228.625 1119.45 240.855C1111.1 253.086 1099.23 262.592 1083.85 269.373C1068.47 276.033 1050.31 279.363 1029.36 279.363Z" fill="#A4A4A4" fill-opacity="0.1"/>
</svg>
