<svg width="134" height="28" viewBox="0 0 134 28" fill="none" xmlns="http://www.w3.org/2000/svg">
<g clip-path="url(#clip0_110_10293)">
<path d="M49.2609 0H35.9956C33.3388 0 31.1874 2.15146 31.1874 4.80824H54.0722C54.0722 2.15146 51.9208 0 49.264 0H49.2609ZM49.2609 11.5943H34.4549L20.4363 0H4.80873C2.15195 0 0.000488281 2.15146 0.000488281 4.80824V23.1918C0.000488281 25.8485 2.15195 28 4.80873 28H21.9739C24.6307 28 26.7822 25.8485 26.7822 23.1918V16.2259L21.9739 12.2484V23.1918H4.80873V4.80824H18.7064L32.725 16.4026H49.2609V23.1887H31.1874C31.1874 25.8454 33.3388 27.9969 35.9956 27.9969H49.2609C51.9177 27.9969 54.0691 25.8454 54.0691 23.1887V16.4026C54.0691 13.7458 51.9177 11.5943 49.2609 11.5943Z" fill="url(#paint0_linear_110_10293)"/>
<path d="M66.1441 12.605C70.2486 12.5926 72.7163 10.128 72.707 6.34902C72.6946 2.57001 70.2114 0.117841 66.11 0.130241C62.0954 0.142642 59.6091 2.60721 59.6184 6.38622C59.6277 10.1652 62.1295 12.6174 66.1441 12.605ZM66.1193 2.73432C68.7761 2.72812 69.8084 3.66434 69.8177 6.35832C69.8239 9.0523 68.7978 9.99472 66.141 10.004C63.4842 10.0102 62.5046 9.074 62.4984 6.38002C62.4922 3.68604 63.4656 2.74362 66.1224 2.73742L66.1193 2.73432ZM86.4435 4.32156H86.6419L86.5582 6.21882L86.5737 12.3663L89.2863 12.3601L89.2522 0.248045L85.5631 0.257345L82.8319 6.23122L81.7376 9.074H81.5392L80.3921 6.24052L77.5369 0.279046L73.8664 0.288346L73.9005 12.4004L76.6131 12.3942L76.5976 6.24672L76.4829 4.34946H76.6813L77.3912 6.24672L79.9364 11.6626L83.2256 11.6533L85.7398 6.22192L86.4404 4.32156H86.4435ZM95.0183 6.55982L99.5011 12.3322L102.393 12.3229L102.359 0.210844L99.6468 0.217044L99.6623 6.05761L99.7956 8.49738H99.5972L97.9293 5.95221L93.5737 0.232544L90.6813 0.241845L90.7154 12.3539L93.428 12.3477L93.4125 6.50712L93.2978 4.28436H93.4776L95.0215 6.55673L95.0183 6.55982ZM106.551 12.3105L106.517 0.198443L103.804 0.204644L103.838 12.3167L106.551 12.3105ZM115.153 5.31049L111.753 4.77727C110.739 4.59747 110.342 4.34636 110.339 3.64264C110.339 2.86452 110.931 2.48321 112.884 2.48011C115.29 2.47391 115.885 2.96062 115.888 4.11696V4.37116L118.619 4.36496V4.25646C118.613 1.70199 116.874 -0.00926254 113.151 3.77211e-05C109.083 0.0124381 107.605 1.93139 107.611 3.75735C107.617 5.729 108.904 6.80783 111.074 7.14574L114.475 7.62626C115.724 7.84016 116.139 8.10987 116.142 8.85079C116.142 9.66301 115.64 9.99162 113.47 9.99782C111.012 10.004 110.451 9.55451 110.447 8.43228V8.10677L107.735 8.11297V8.22147C107.744 11.0426 109.809 12.4841 113.479 12.4717C117.33 12.4624 118.861 10.686 118.855 8.71439C118.849 7.04964 117.869 5.7321 115.157 5.30739L115.153 5.31049ZM65.7969 21.5984L63.5183 21.1333C61.4754 20.6869 60.5516 20.2033 60.5454 18.6099C60.5423 17.1094 61.7885 16.3282 64.3554 16.322C67.0679 16.3158 68.3173 17.3946 68.3235 19.3477V19.5647H69.1388V19.4562C69.1326 17.3419 67.6818 15.5191 64.374 15.5284C61.1003 15.5377 59.7331 17.1125 59.7362 18.706C59.7424 20.7303 61.4072 21.4682 63.3075 21.8588L65.6047 22.3238C67.5578 22.7516 68.5002 23.3096 68.5033 24.8472C68.5064 26.4376 67.2074 27.2188 64.6933 27.225C61.7296 27.2343 60.4431 26.1338 60.4369 24.1807V23.9637H59.6215V24.0722C59.6277 26.2237 61.1499 28.0093 64.6933 28C67.874 27.9907 69.3155 26.4159 69.3124 24.7511C69.3062 22.7981 67.7872 22.0076 65.7969 21.5984ZM76.6069 15.4912C73.1534 15.5005 70.6299 17.9682 70.6392 21.7441C70.6517 25.5231 73.1875 27.9752 76.641 27.9659C80.1131 27.9566 82.618 25.489 82.6087 21.7131C82.5994 17.934 80.079 15.4819 76.6069 15.4912ZM76.641 27.1723C73.4417 27.1816 71.4825 25.2348 71.4732 21.7441C71.4639 18.2565 73.4107 16.2786 76.61 16.2693C79.8093 16.26 81.7686 18.2255 81.7779 21.7162C81.7872 25.2038 79.8403 27.163 76.641 27.1723ZM127.662 15.4912C124.209 15.5005 121.685 17.9682 121.695 21.7441C121.707 25.5231 124.243 27.9752 127.696 27.9659C131.168 27.9566 133.673 25.489 133.664 21.7131C133.655 17.934 131.134 15.4819 127.662 15.4912ZM127.696 27.1723C124.497 27.1816 122.538 25.2348 122.529 21.7441C122.519 18.2565 124.466 16.2786 127.665 16.2693C130.865 16.26 132.824 18.2255 132.833 21.7162C132.843 25.2038 130.896 27.163 127.696 27.1723ZM85.3368 27.0204L85.3058 15.6493H84.4904L84.5245 27.7644L93.1831 27.7396V26.9987L85.3337 27.0204H85.3368ZM104.415 15.5966L104.433 22.702C104.443 25.7215 102.893 27.101 99.9444 27.1072C97.0148 27.1165 95.4555 25.7463 95.4493 22.7268L95.4307 15.6214H94.6184L94.637 22.7485C94.6463 26.1121 96.8009 27.9132 99.9475 27.9039C103.11 27.8946 105.239 26.0811 105.23 22.7175L105.211 15.5935H104.418L104.415 15.5966ZM117.593 15.5594L106.51 15.5904V16.3313L111.666 16.3158L111.697 27.6869H112.494L112.463 16.3127L117.596 16.2972V15.5563L117.593 15.5594ZM118.985 15.5563L119.019 27.6683H119.831L119.797 15.5532H118.982L118.985 15.5563Z" fill="black"/>
</g>
<defs>
<linearGradient id="paint0_linear_110_10293" x1="0.899514" y1="26.1864" x2="53.1701" y2="1.81355" gradientUnits="userSpaceOnUse">
<stop stop-color="#F37021"/>
<stop offset="0.25" stop-color="#F68B1F"/>
<stop offset="0.66" stop-color="#F04E23"/>
</linearGradient>
<clipPath id="clip0_110_10293">
<rect width="133.663" height="28" fill="white"/>
</clipPath>
</defs>
</svg>
