<svg width="645" height="369" viewBox="0 0 645 369" fill="none" xmlns="http://www.w3.org/2000/svg">
<path d="M564.881 27.6437H420.208C391.233 27.6437 367.769 51.7159 367.769 81.442H617.354C617.354 51.7159 593.89 27.6437 564.915 27.6437H564.881ZM564.881 157.37H403.404L250.516 27.6437H80.0792C51.104 27.6437 27.6399 51.7159 27.6399 81.442V287.131C27.6399 316.857 51.104 340.929 80.0792 340.929H267.285C296.26 340.929 319.725 316.857 319.725 287.131V209.191L267.285 164.689V287.131H80.0792V81.442H231.65L384.538 211.168H564.881V287.096H367.769C367.769 316.822 391.233 340.895 420.208 340.895H564.881C593.856 340.895 617.32 316.822 617.32 287.096V211.168C617.32 181.442 593.856 157.37 564.881 157.37Z" fill="#A4A4A4" fill-opacity="0.16"/>
</svg>
