<svg width="372" height="508" viewBox="0 0 372 508" fill="none" xmlns="http://www.w3.org/2000/svg">
<path d="M0 28C0 12.536 12.536 0 28 0H344C359.464 0 372 12.536 372 28V480C372 495.464 359.464 508 344 508H28C12.536 508 0 495.464 0 480V28Z" fill="#171717"/>
<path fill-rule="evenodd" clip-rule="evenodd" d="M39.2399 30.3999L30.3999 39.2399V48.7599L39.2399 57.5999H48.7599L57.5999 48.7599L52.8399 43.9999L57.5999 39.2399L48.7599 30.3999H39.2399ZM39.2399 30.3999L52.8399 43.9999L39.2399 57.5999V30.3999Z" fill="#FA7319"/>
<path d="M321.25 38H334.75V39.5H321.25V38ZM325.75 43.25H334.75V44.75H325.75V43.25ZM321.25 48.5H334.75V50H321.25V48.5Z" fill="#A4A4A4"/>
<rect x="28" y="84" width="316" height="220" rx="16" stroke="#FA7319" stroke-linecap="round" stroke-dasharray="4 6"/>
<path d="M164 166C164 153.85 173.85 144 186 144C198.15 144 208 153.85 208 166C208 178.15 198.15 188 186 188C173.85 188 164 178.15 164 166Z" fill="#FA7319" fill-opacity="0.1"/>
<path d="M185.1 165.1V159.7H186.9V165.1H192.3V166.9H186.9V172.3H185.1V166.9H179.7V165.1H185.1Z" fill="#FA7319"/>
<path d="M80.7436 204.818H82.2848V211.515C82.2848 212.228 82.1174 212.859 81.7827 213.409C81.4479 213.956 80.9773 214.387 80.3707 214.702C79.7642 215.013 79.0533 215.169 78.2379 215.169C77.4259 215.169 76.7166 215.013 76.1101 214.702C75.5036 214.387 75.0329 213.956 74.6982 213.409C74.3634 212.859 74.196 212.228 74.196 211.515V204.818H75.7323V211.391C75.7323 211.851 75.8333 212.261 76.0355 212.619C76.241 212.977 76.531 213.258 76.9055 213.464C77.2801 213.666 77.7242 213.767 78.2379 213.767C78.755 213.767 79.2008 213.666 79.5753 213.464C79.9531 213.258 80.2415 212.977 80.4403 212.619C80.6425 212.261 80.7436 211.851 80.7436 211.391V204.818ZM84.315 217.864V207.364H85.7667V208.602H85.891C85.9771 208.442 86.1014 208.259 86.2638 208.05C86.4262 207.841 86.6516 207.659 86.94 207.503C87.2283 207.344 87.6095 207.264 88.0834 207.264C88.6999 207.264 89.2501 207.42 89.734 207.732C90.2179 208.043 90.5974 208.492 90.8725 209.079C91.1509 209.665 91.2901 210.371 91.2901 211.197C91.2901 212.022 91.1526 212.73 90.8775 213.32C90.6024 213.906 90.2245 214.359 89.744 214.677C89.2634 214.992 88.7148 215.149 88.0984 215.149C87.6343 215.149 87.2548 215.071 86.9599 214.915C86.6682 214.76 86.4395 214.577 86.2738 214.369C86.1081 214.16 85.9805 213.974 85.891 213.812H85.8015V217.864H84.315ZM85.7717 211.182C85.7717 211.719 85.8495 212.189 86.0053 212.594C86.1611 212.998 86.3865 213.315 86.6815 213.543C86.9764 213.769 87.3377 213.881 87.7653 213.881C88.2094 213.881 88.5806 213.764 88.8789 213.528C89.1772 213.29 89.4026 212.967 89.555 212.559C89.7108 212.151 89.7887 211.692 89.7887 211.182C89.7887 210.678 89.7125 210.226 89.56 209.825C89.4109 209.424 89.1855 209.107 88.8839 208.875C88.5856 208.643 88.2127 208.527 87.7653 208.527C87.3344 208.527 86.9698 208.638 86.6715 208.86C86.3765 209.082 86.1528 209.392 86.0003 209.79C85.8479 210.187 85.7717 210.652 85.7717 211.182ZM94.3581 204.818V215H92.8716V204.818H94.3581ZM99.4906 215.154C98.7746 215.154 98.1499 214.99 97.6163 214.662C97.0826 214.334 96.6683 213.875 96.3734 213.285C96.0784 212.695 95.9309 212.005 95.9309 211.217C95.9309 210.424 96.0784 209.732 96.3734 209.138C96.6683 208.545 97.0826 208.085 97.6163 207.756C98.1499 207.428 98.7746 207.264 99.4906 207.264C100.206 207.264 100.831 207.428 101.365 207.756C101.898 208.085 102.313 208.545 102.608 209.138C102.903 209.732 103.05 210.424 103.05 211.217C103.05 212.005 102.903 212.695 102.608 213.285C102.313 213.875 101.898 214.334 101.365 214.662C100.831 214.99 100.206 215.154 99.4906 215.154ZM99.4955 213.906C99.9595 213.906 100.344 213.784 100.649 213.538C100.954 213.293 101.179 212.967 101.325 212.559C101.474 212.151 101.549 211.702 101.549 211.212C101.549 210.724 101.474 210.277 101.325 209.869C101.179 209.458 100.954 209.129 100.649 208.88C100.344 208.631 99.9595 208.507 99.4955 208.507C99.0282 208.507 98.6404 208.631 98.3322 208.88C98.0272 209.129 97.8002 209.458 97.6511 209.869C97.5052 210.277 97.4323 210.724 97.4323 211.212C97.4323 211.702 97.5052 212.151 97.6511 212.559C97.8002 212.967 98.0272 213.293 98.3322 213.538C98.6404 213.784 99.0282 213.906 99.4955 213.906ZM106.848 215.169C106.364 215.169 105.926 215.08 105.535 214.901C105.144 214.718 104.834 214.455 104.606 214.11C104.38 213.765 104.268 213.343 104.268 212.842C104.268 212.411 104.35 212.057 104.516 211.778C104.682 211.5 104.906 211.28 105.187 211.117C105.469 210.955 105.784 210.832 106.132 210.749C106.48 210.666 106.835 210.603 107.196 210.56C107.653 210.507 108.024 210.464 108.309 210.431C108.594 210.395 108.802 210.337 108.931 210.257C109.06 210.178 109.125 210.048 109.125 209.869V209.835C109.125 209.4 109.002 209.064 108.757 208.825C108.515 208.587 108.154 208.467 107.673 208.467C107.173 208.467 106.778 208.578 106.49 208.8C106.205 209.019 106.008 209.263 105.898 209.531L104.501 209.213C104.667 208.749 104.909 208.375 105.227 208.089C105.549 207.801 105.918 207.592 106.336 207.463C106.753 207.33 107.192 207.264 107.653 207.264C107.958 207.264 108.281 207.301 108.623 207.374C108.967 207.443 109.289 207.572 109.587 207.761C109.889 207.95 110.136 208.22 110.328 208.572C110.52 208.92 110.616 209.372 110.616 209.929V215H109.165V213.956H109.105C109.009 214.148 108.865 214.337 108.672 214.523C108.48 214.708 108.233 214.862 107.932 214.985C107.63 215.108 107.269 215.169 106.848 215.169ZM107.171 213.976C107.582 213.976 107.933 213.895 108.225 213.732C108.52 213.57 108.744 213.358 108.896 213.096C109.052 212.831 109.13 212.547 109.13 212.246V211.261C109.077 211.314 108.974 211.364 108.822 211.411C108.672 211.454 108.502 211.492 108.309 211.525C108.117 211.555 107.93 211.583 107.748 211.609C107.565 211.633 107.413 211.652 107.29 211.669C107.002 211.705 106.738 211.767 106.5 211.853C106.264 211.939 106.076 212.063 105.933 212.226C105.794 212.385 105.724 212.597 105.724 212.862C105.724 213.23 105.86 213.509 106.132 213.697C106.404 213.883 106.75 213.976 107.171 213.976ZM115.371 215.149C114.754 215.149 114.204 214.992 113.72 214.677C113.24 214.359 112.862 213.906 112.587 213.32C112.315 212.73 112.179 212.022 112.179 211.197C112.179 210.371 112.317 209.665 112.592 209.079C112.87 208.492 113.251 208.043 113.735 207.732C114.219 207.42 114.768 207.264 115.381 207.264C115.855 207.264 116.236 207.344 116.524 207.503C116.816 207.659 117.041 207.841 117.2 208.05C117.363 208.259 117.489 208.442 117.578 208.602H117.668V204.818H119.154V215H117.703V213.812H117.578C117.489 213.974 117.359 214.16 117.19 214.369C117.025 214.577 116.796 214.76 116.504 214.915C116.213 215.071 115.835 215.149 115.371 215.149ZM115.699 213.881C116.127 213.881 116.488 213.769 116.783 213.543C117.081 213.315 117.306 212.998 117.459 212.594C117.615 212.189 117.693 211.719 117.693 211.182C117.693 210.652 117.616 210.187 117.464 209.79C117.311 209.392 117.088 209.082 116.793 208.86C116.498 208.638 116.133 208.527 115.699 208.527C115.252 208.527 114.879 208.643 114.58 208.875C114.282 209.107 114.057 209.424 113.904 209.825C113.755 210.226 113.681 210.678 113.681 211.182C113.681 211.692 113.757 212.151 113.909 212.559C114.062 212.967 114.287 213.29 114.585 213.528C114.887 213.764 115.258 213.881 115.699 213.881ZM127.035 215.169C126.551 215.169 126.114 215.08 125.723 214.901C125.332 214.718 125.022 214.455 124.793 214.11C124.568 213.765 124.455 213.343 124.455 212.842C124.455 212.411 124.538 212.057 124.704 211.778C124.869 211.5 125.093 211.28 125.375 211.117C125.656 210.955 125.971 210.832 126.319 210.749C126.667 210.666 127.022 210.603 127.383 210.56C127.841 210.507 128.212 210.464 128.497 210.431C128.782 210.395 128.989 210.337 129.118 210.257C129.248 210.178 129.312 210.048 129.312 209.869V209.835C129.312 209.4 129.19 209.064 128.944 208.825C128.702 208.587 128.341 208.467 127.861 208.467C127.36 208.467 126.966 208.578 126.677 208.8C126.392 209.019 126.195 209.263 126.086 209.531L124.689 209.213C124.854 208.749 125.096 208.375 125.414 208.089C125.736 207.801 126.106 207.592 126.523 207.463C126.941 207.33 127.38 207.264 127.841 207.264C128.146 207.264 128.469 207.301 128.81 207.374C129.155 207.443 129.476 207.572 129.775 207.761C130.076 207.95 130.323 208.22 130.515 208.572C130.708 208.92 130.804 209.372 130.804 209.929V215H129.352V213.956H129.292C129.196 214.148 129.052 214.337 128.86 214.523C128.668 214.708 128.421 214.862 128.119 214.985C127.817 215.108 127.456 215.169 127.035 215.169ZM127.358 213.976C127.769 213.976 128.121 213.895 128.412 213.732C128.707 213.57 128.931 213.358 129.084 213.096C129.239 212.831 129.317 212.547 129.317 212.246V211.261C129.264 211.314 129.161 211.364 129.009 211.411C128.86 211.454 128.689 211.492 128.497 211.525C128.305 211.555 128.117 211.583 127.935 211.609C127.753 211.633 127.6 211.652 127.478 211.669C127.189 211.705 126.926 211.767 126.687 211.853C126.452 211.939 126.263 212.063 126.12 212.226C125.981 212.385 125.912 212.597 125.912 212.862C125.912 213.23 126.048 213.509 126.319 213.697C126.591 213.883 126.937 213.976 127.358 213.976ZM139.955 207.364V208.557H135.64V207.364H139.955ZM136.823 215V206.479C136.823 206.001 136.927 205.605 137.136 205.29C137.345 204.972 137.622 204.735 137.966 204.58C138.311 204.42 138.686 204.341 139.09 204.341C139.388 204.341 139.643 204.366 139.856 204.415C140.068 204.462 140.225 204.505 140.328 204.545L139.98 205.748C139.91 205.728 139.821 205.705 139.711 205.678C139.602 205.648 139.469 205.634 139.314 205.634C138.952 205.634 138.694 205.723 138.538 205.902C138.386 206.081 138.309 206.339 138.309 206.678V215H136.823ZM141.405 215V207.364H142.891V215H141.405ZM142.155 206.185C141.897 206.185 141.675 206.099 141.489 205.927C141.307 205.751 141.216 205.542 141.216 205.3C141.216 205.055 141.307 204.846 141.489 204.674C141.675 204.498 141.897 204.411 142.155 204.411C142.414 204.411 142.634 204.498 142.817 204.674C143.002 204.846 143.095 205.055 143.095 205.3C143.095 205.542 143.002 205.751 142.817 205.927C142.634 206.099 142.414 206.185 142.155 206.185ZM146.294 204.818V215H144.807V204.818H146.294ZM151.501 215.154C150.748 215.154 150.1 214.993 149.557 214.672C149.016 214.347 148.599 213.891 148.304 213.305C148.012 212.715 147.866 212.024 147.866 211.232C147.866 210.449 148.012 209.76 148.304 209.163C148.599 208.567 149.01 208.101 149.537 207.766C150.067 207.432 150.687 207.264 151.396 207.264C151.827 207.264 152.245 207.335 152.649 207.478C153.053 207.621 153.416 207.844 153.738 208.149C154.059 208.454 154.313 208.85 154.498 209.337C154.684 209.821 154.777 210.41 154.777 211.102V211.629H148.706V210.516H153.32C153.32 210.125 153.241 209.778 153.081 209.477C152.922 209.172 152.699 208.931 152.41 208.756C152.125 208.58 151.791 208.492 151.406 208.492C150.988 208.492 150.624 208.595 150.312 208.8C150.004 209.003 149.765 209.268 149.596 209.596C149.431 209.921 149.348 210.274 149.348 210.655V211.525C149.348 212.035 149.437 212.469 149.616 212.827C149.799 213.185 150.052 213.459 150.377 213.648C150.702 213.833 151.081 213.926 151.515 213.926C151.797 213.926 152.054 213.886 152.286 213.807C152.518 213.724 152.719 213.601 152.888 213.439C153.057 213.277 153.186 213.076 153.275 212.837L154.682 213.091C154.57 213.505 154.367 213.868 154.076 214.18C153.787 214.488 153.425 214.728 152.987 214.901C152.553 215.07 152.057 215.154 151.501 215.154ZM163.18 215.154C162.464 215.154 161.839 214.99 161.306 214.662C160.772 214.334 160.358 213.875 160.063 213.285C159.768 212.695 159.62 212.005 159.62 211.217C159.62 210.424 159.768 209.732 160.063 209.138C160.358 208.545 160.772 208.085 161.306 207.756C161.839 207.428 162.464 207.264 163.18 207.264C163.896 207.264 164.521 207.428 165.054 207.756C165.588 208.085 166.002 208.545 166.297 209.138C166.592 209.732 166.739 210.424 166.739 211.217C166.739 212.005 166.592 212.695 166.297 213.285C166.002 213.875 165.588 214.334 165.054 214.662C164.521 214.99 163.896 215.154 163.18 215.154ZM163.185 213.906C163.649 213.906 164.033 213.784 164.338 213.538C164.643 213.293 164.869 212.967 165.014 212.559C165.163 212.151 165.238 211.702 165.238 211.212C165.238 210.724 165.163 210.277 165.014 209.869C164.869 209.458 164.643 209.129 164.338 208.88C164.033 208.631 163.649 208.507 163.185 208.507C162.717 208.507 162.33 208.631 162.021 208.88C161.717 209.129 161.489 209.458 161.34 209.869C161.195 210.277 161.122 210.724 161.122 211.212C161.122 211.702 161.195 212.151 161.34 212.559C161.489 212.967 161.717 213.293 162.021 213.538C162.33 213.784 162.717 213.906 163.185 213.906ZM168.315 215V207.364H169.752V208.577H169.831C169.97 208.166 170.216 207.843 170.567 207.607C170.922 207.369 171.323 207.249 171.77 207.249C171.863 207.249 171.972 207.253 172.098 207.259C172.227 207.266 172.328 207.274 172.401 207.284V208.706C172.342 208.689 172.236 208.671 172.083 208.651C171.931 208.628 171.778 208.616 171.626 208.616C171.275 208.616 170.961 208.691 170.686 208.84C170.414 208.986 170.199 209.19 170.04 209.452C169.881 209.71 169.801 210.005 169.801 210.337V215H168.315ZM180.084 215.149C179.467 215.149 178.917 214.992 178.433 214.677C177.952 214.359 177.575 213.906 177.299 213.32C177.028 212.73 176.892 212.022 176.892 211.197C176.892 210.371 177.029 209.665 177.304 209.079C177.583 208.492 177.964 208.043 178.448 207.732C178.932 207.42 179.48 207.264 180.093 207.264C180.567 207.264 180.949 207.344 181.237 207.503C181.529 207.659 181.754 207.841 181.913 208.05C182.075 208.259 182.201 208.442 182.291 208.602H182.38V204.818H183.867V215H182.415V213.812H182.291C182.201 213.974 182.072 214.16 181.903 214.369C181.737 214.577 181.509 214.76 181.217 214.915C180.925 215.071 180.548 215.149 180.084 215.149ZM180.412 213.881C180.839 213.881 181.2 213.769 181.495 213.543C181.794 213.315 182.019 212.998 182.172 212.594C182.327 212.189 182.405 211.719 182.405 211.182C182.405 210.652 182.329 210.187 182.177 209.79C182.024 209.392 181.8 209.082 181.505 208.86C181.21 208.638 180.846 208.527 180.412 208.527C179.964 208.527 179.591 208.643 179.293 208.875C178.995 209.107 178.769 209.424 178.617 209.825C178.468 210.226 178.393 210.678 178.393 211.182C178.393 211.692 178.469 212.151 178.622 212.559C178.774 212.967 179 213.29 179.298 213.528C179.6 213.764 179.971 213.881 180.412 213.881ZM185.905 215V207.364H187.341V208.577H187.421C187.56 208.166 187.805 207.843 188.157 207.607C188.511 207.369 188.912 207.249 189.36 207.249C189.453 207.249 189.562 207.253 189.688 207.259C189.817 207.266 189.918 207.274 189.991 207.284V208.706C189.932 208.689 189.825 208.671 189.673 208.651C189.521 208.628 189.368 208.616 189.216 208.616C188.864 208.616 188.551 208.691 188.276 208.84C188.004 208.986 187.789 209.19 187.63 209.452C187.471 209.71 187.391 210.005 187.391 210.337V215H185.905ZM193.348 215.169C192.864 215.169 192.426 215.08 192.035 214.901C191.644 214.718 191.334 214.455 191.105 214.11C190.88 213.765 190.767 213.343 190.767 212.842C190.767 212.411 190.85 212.057 191.016 211.778C191.182 211.5 191.405 211.28 191.687 211.117C191.969 210.955 192.284 210.832 192.632 210.749C192.98 210.666 193.334 210.603 193.696 210.56C194.153 210.507 194.524 210.464 194.809 210.431C195.094 210.395 195.301 210.337 195.431 210.257C195.56 210.178 195.625 210.048 195.625 209.869V209.835C195.625 209.4 195.502 209.064 195.257 208.825C195.015 208.587 194.653 208.467 194.173 208.467C193.672 208.467 193.278 208.578 192.99 208.8C192.705 209.019 192.507 209.263 192.398 209.531L191.001 209.213C191.167 208.749 191.409 208.375 191.727 208.089C192.048 207.801 192.418 207.592 192.835 207.463C193.253 207.33 193.692 207.264 194.153 207.264C194.458 207.264 194.781 207.301 195.122 207.374C195.467 207.443 195.789 207.572 196.087 207.761C196.388 207.95 196.635 208.22 196.828 208.572C197.02 208.92 197.116 209.372 197.116 209.929V215H195.664V213.956H195.605C195.509 214.148 195.364 214.337 195.172 214.523C194.98 214.708 194.733 214.862 194.431 214.985C194.13 215.108 193.768 215.169 193.348 215.169ZM193.671 213.976C194.082 213.976 194.433 213.895 194.725 213.732C195.02 213.57 195.243 213.358 195.396 213.096C195.552 212.831 195.629 212.547 195.629 212.246V211.261C195.576 211.314 195.474 211.364 195.321 211.411C195.172 211.454 195.001 211.492 194.809 211.525C194.617 211.555 194.43 211.583 194.247 211.609C194.065 211.633 193.913 211.652 193.79 211.669C193.502 211.705 193.238 211.767 193 211.853C192.764 211.939 192.575 212.063 192.433 212.226C192.294 212.385 192.224 212.597 192.224 212.862C192.224 213.23 192.36 213.509 192.632 213.697C192.903 213.883 193.25 213.976 193.671 213.976ZM202.214 218.023C201.607 218.023 201.085 217.943 200.648 217.784C200.213 217.625 199.859 217.415 199.584 217.153C199.309 216.891 199.103 216.604 198.967 216.293L200.245 215.766C200.334 215.911 200.454 216.066 200.603 216.228C200.755 216.394 200.961 216.535 201.219 216.651C201.481 216.767 201.818 216.825 202.229 216.825C202.792 216.825 203.258 216.687 203.626 216.412C203.993 216.14 204.177 215.706 204.177 215.109V213.608H204.083C203.993 213.77 203.864 213.951 203.695 214.15C203.529 214.349 203.301 214.521 203.009 214.667C202.717 214.813 202.338 214.886 201.871 214.886C201.267 214.886 200.724 214.745 200.24 214.463C199.759 214.178 199.378 213.759 199.096 213.205C198.818 212.648 198.679 211.964 198.679 211.152C198.679 210.34 198.816 209.644 199.092 209.064C199.37 208.484 199.751 208.04 200.235 207.732C200.719 207.42 201.267 207.264 201.881 207.264C202.355 207.264 202.737 207.344 203.029 207.503C203.321 207.659 203.548 207.841 203.71 208.05C203.876 208.259 204.003 208.442 204.093 208.602H204.202V207.364H205.659V215.169C205.659 215.825 205.507 216.364 205.202 216.785C204.897 217.206 204.484 217.517 203.964 217.719C203.447 217.922 202.863 218.023 202.214 218.023ZM202.199 213.653C202.626 213.653 202.988 213.553 203.283 213.354C203.581 213.152 203.806 212.864 203.959 212.489C204.114 212.112 204.192 211.659 204.192 211.132C204.192 210.618 204.116 210.166 203.964 209.775C203.811 209.384 203.587 209.079 203.292 208.86C202.998 208.638 202.633 208.527 202.199 208.527C201.751 208.527 201.378 208.643 201.08 208.875C200.782 209.104 200.556 209.415 200.404 209.81C200.255 210.204 200.18 210.645 200.18 211.132C200.18 211.633 200.257 212.072 200.409 212.45C200.561 212.827 200.787 213.122 201.085 213.335C201.387 213.547 201.758 213.653 202.199 213.653ZM214.153 215.144C213.47 215.144 212.882 215.02 212.388 214.771C211.897 214.523 211.519 214.185 211.254 213.757C210.989 213.326 210.857 212.839 210.857 212.295C210.857 211.881 210.943 211.513 211.115 211.192C211.287 210.867 211.528 210.567 211.836 210.292C212.144 210.017 212.5 209.74 212.905 209.462L214.545 208.303C214.824 208.121 215.041 207.929 215.197 207.727C215.353 207.521 215.43 207.268 215.43 206.966C215.43 206.727 215.328 206.499 215.122 206.28C214.917 206.061 214.642 205.952 214.297 205.952C214.058 205.952 213.848 206.01 213.665 206.126C213.487 206.242 213.346 206.391 213.243 206.573C213.143 206.752 213.094 206.941 213.094 207.14C213.094 207.372 213.157 207.606 213.283 207.841C213.412 208.076 213.578 208.32 213.78 208.572C213.982 208.82 214.194 209.079 214.416 209.347L219.144 215H217.464L213.551 210.401C213.223 210.013 212.918 209.649 212.636 209.308C212.355 208.963 212.126 208.615 211.95 208.263C211.778 207.909 211.692 207.526 211.692 207.115C211.692 206.648 211.798 206.233 212.01 205.872C212.225 205.508 212.525 205.223 212.91 205.017C213.294 204.812 213.745 204.709 214.262 204.709C214.786 204.709 215.235 204.812 215.609 205.017C215.987 205.219 216.277 205.489 216.479 205.827C216.685 206.162 216.788 206.528 216.788 206.926C216.788 207.41 216.667 207.838 216.425 208.209C216.186 208.577 215.856 208.915 215.435 209.223L213.392 210.729C212.994 211.021 212.718 211.309 212.562 211.594C212.409 211.876 212.333 212.097 212.333 212.256C212.333 212.547 212.408 212.817 212.557 213.066C212.709 213.315 212.921 213.513 213.193 213.663C213.468 213.812 213.79 213.886 214.158 213.886C214.536 213.886 214.903 213.805 215.261 213.643C215.623 213.477 215.949 213.24 216.241 212.932C216.536 212.624 216.769 212.254 216.942 211.823C217.114 211.392 217.2 210.91 217.2 210.376H218.543C218.543 211.033 218.468 211.588 218.319 212.042C218.17 212.493 217.989 212.861 217.777 213.146C217.568 213.427 217.371 213.648 217.185 213.807C217.126 213.86 217.069 213.913 217.016 213.966C216.963 214.019 216.907 214.072 216.847 214.125C216.503 214.473 216.085 214.73 215.594 214.896C215.107 215.061 214.627 215.144 214.153 215.144ZM226.705 215.149C226.088 215.149 225.538 214.992 225.054 214.677C224.573 214.359 224.196 213.906 223.92 213.32C223.649 212.73 223.513 212.022 223.513 211.197C223.513 210.371 223.65 209.665 223.925 209.079C224.204 208.492 224.585 208.043 225.069 207.732C225.553 207.42 226.101 207.264 226.714 207.264C227.188 207.264 227.57 207.344 227.858 207.503C228.15 207.659 228.375 207.841 228.534 208.05C228.696 208.259 228.822 208.442 228.912 208.602H229.001V204.818H230.488V215H229.036V213.812H228.912C228.822 213.974 228.693 214.16 228.524 214.369C228.358 214.577 228.13 214.76 227.838 214.915C227.546 215.071 227.169 215.149 226.705 215.149ZM227.033 213.881C227.46 213.881 227.821 213.769 228.116 213.543C228.415 213.315 228.64 212.998 228.793 212.594C228.948 212.189 229.026 211.719 229.026 211.182C229.026 210.652 228.95 210.187 228.798 209.79C228.645 209.392 228.421 209.082 228.126 208.86C227.831 208.638 227.467 208.527 227.033 208.527C226.585 208.527 226.212 208.643 225.914 208.875C225.616 209.107 225.39 209.424 225.238 209.825C225.089 210.226 225.014 210.678 225.014 211.182C225.014 211.692 225.09 212.151 225.243 212.559C225.395 212.967 225.621 213.29 225.919 213.528C226.221 213.764 226.592 213.881 227.033 213.881ZM232.526 215V207.364H233.962V208.577H234.042C234.181 208.166 234.426 207.843 234.778 207.607C235.132 207.369 235.533 207.249 235.981 207.249C236.074 207.249 236.183 207.253 236.309 207.259C236.438 207.266 236.539 207.274 236.612 207.284V208.706C236.553 208.689 236.446 208.671 236.294 208.651C236.142 208.628 235.989 208.616 235.837 208.616C235.485 208.616 235.172 208.691 234.897 208.84C234.625 208.986 234.41 209.19 234.251 209.452C234.092 209.71 234.012 210.005 234.012 210.337V215H232.526ZM240.758 215.154C240.042 215.154 239.417 214.99 238.883 214.662C238.35 214.334 237.936 213.875 237.641 213.285C237.346 212.695 237.198 212.005 237.198 211.217C237.198 210.424 237.346 209.732 237.641 209.138C237.936 208.545 238.35 208.085 238.883 207.756C239.417 207.428 240.042 207.264 240.758 207.264C241.474 207.264 242.098 207.428 242.632 207.756C243.166 208.085 243.58 208.545 243.875 209.138C244.17 209.732 244.317 210.424 244.317 211.217C244.317 212.005 244.17 212.695 243.875 213.285C243.58 213.875 243.166 214.334 242.632 214.662C242.098 214.99 241.474 215.154 240.758 215.154ZM240.763 213.906C241.227 213.906 241.611 213.784 241.916 213.538C242.221 213.293 242.446 212.967 242.592 212.559C242.741 212.151 242.816 211.702 242.816 211.212C242.816 210.724 242.741 210.277 242.592 209.869C242.446 209.458 242.221 209.129 241.916 208.88C241.611 208.631 241.227 208.507 240.763 208.507C240.295 208.507 239.908 208.631 239.599 208.88C239.294 209.129 239.067 209.458 238.918 209.869C238.772 210.277 238.7 210.724 238.7 211.212C238.7 211.702 238.772 212.151 238.918 212.559C239.067 212.967 239.294 213.293 239.599 213.538C239.908 213.784 240.295 213.906 240.763 213.906ZM245.893 217.864V207.364H247.344V208.602H247.469C247.555 208.442 247.679 208.259 247.842 208.05C248.004 207.841 248.229 207.659 248.518 207.503C248.806 207.344 249.187 207.264 249.661 207.264C250.278 207.264 250.828 207.42 251.312 207.732C251.796 208.043 252.175 208.492 252.45 209.079C252.729 209.665 252.868 210.371 252.868 211.197C252.868 212.022 252.73 212.73 252.455 213.32C252.18 213.906 251.802 214.359 251.322 214.677C250.841 214.992 250.293 215.149 249.676 215.149C249.212 215.149 248.833 215.071 248.538 214.915C248.246 214.76 248.017 214.577 247.851 214.369C247.686 214.16 247.558 213.974 247.469 213.812H247.379V217.864H245.893ZM247.349 211.182C247.349 211.719 247.427 212.189 247.583 212.594C247.739 212.998 247.964 213.315 248.259 213.543C248.554 213.769 248.915 213.881 249.343 213.881C249.787 213.881 250.158 213.764 250.457 213.528C250.755 213.29 250.98 212.967 251.133 212.559C251.289 212.151 251.366 211.692 251.366 211.182C251.366 210.678 251.29 210.226 251.138 209.825C250.989 209.424 250.763 209.107 250.462 208.875C250.163 208.643 249.79 208.527 249.343 208.527C248.912 208.527 248.548 208.638 248.249 208.86C247.954 209.082 247.731 209.392 247.578 209.79C247.426 210.187 247.349 210.652 247.349 211.182ZM258.07 215V207.364H259.557V215H258.07ZM258.821 206.185C258.563 206.185 258.341 206.099 258.155 205.927C257.973 205.751 257.881 205.542 257.881 205.3C257.881 205.055 257.973 204.846 258.155 204.674C258.341 204.498 258.563 204.411 258.821 204.411C259.08 204.411 259.3 204.498 259.482 204.674C259.668 204.846 259.761 205.055 259.761 205.3C259.761 205.542 259.668 205.751 259.482 205.927C259.3 206.099 259.08 206.185 258.821 206.185ZM265.037 207.364V208.557H260.866V207.364H265.037ZM261.985 205.534H263.471V212.758C263.471 213.046 263.514 213.263 263.601 213.409C263.687 213.552 263.798 213.649 263.934 213.702C264.073 213.752 264.224 213.777 264.386 213.777C264.505 213.777 264.61 213.769 264.699 213.752C264.789 213.736 264.858 213.722 264.908 213.712L265.177 214.94C265.09 214.973 264.968 215.007 264.809 215.04C264.65 215.076 264.451 215.096 264.212 215.099C263.821 215.106 263.456 215.036 263.118 214.891C262.78 214.745 262.507 214.519 262.298 214.214C262.089 213.91 261.985 213.527 261.985 213.066V205.534ZM271.705 210.466V215H270.219V204.818H271.685V208.607H271.78C271.959 208.196 272.232 207.869 272.6 207.627C272.968 207.385 273.449 207.264 274.042 207.264C274.566 207.264 275.023 207.372 275.414 207.587C275.809 207.803 276.113 208.124 276.329 208.552C276.548 208.976 276.657 209.506 276.657 210.143V215H275.17V210.322C275.17 209.762 275.026 209.327 274.738 209.019C274.45 208.708 274.049 208.552 273.535 208.552C273.184 208.552 272.869 208.626 272.59 208.776C272.315 208.925 272.098 209.143 271.939 209.432C271.783 209.717 271.705 210.062 271.705 210.466ZM281.848 215.154C281.095 215.154 280.448 214.993 279.904 214.672C279.364 214.347 278.946 213.891 278.651 213.305C278.359 212.715 278.214 212.024 278.214 211.232C278.214 210.449 278.359 209.76 278.651 209.163C278.946 208.567 279.357 208.101 279.884 207.766C280.414 207.432 281.034 207.264 281.743 207.264C282.174 207.264 282.592 207.335 282.996 207.478C283.401 207.621 283.764 207.844 284.085 208.149C284.407 208.454 284.66 208.85 284.846 209.337C285.031 209.821 285.124 210.41 285.124 211.102V211.629H279.054V210.516H283.667C283.667 210.125 283.588 209.778 283.429 209.477C283.27 209.172 283.046 208.931 282.758 208.756C282.473 208.58 282.138 208.492 281.753 208.492C281.336 208.492 280.971 208.595 280.66 208.8C280.351 209.003 280.113 209.268 279.944 209.596C279.778 209.921 279.695 210.274 279.695 210.655V211.525C279.695 212.035 279.785 212.469 279.964 212.827C280.146 213.185 280.399 213.459 280.724 213.648C281.049 213.833 281.429 213.926 281.863 213.926C282.144 213.926 282.401 213.886 282.633 213.807C282.865 213.724 283.066 213.601 283.235 213.439C283.404 213.277 283.533 213.076 283.623 212.837L285.03 213.091C284.917 213.505 284.715 213.868 284.423 214.18C284.135 214.488 283.772 214.728 283.334 214.901C282.9 215.07 282.405 215.154 281.848 215.154ZM286.689 215V207.364H288.126V208.577H288.206C288.345 208.166 288.59 207.843 288.942 207.607C289.296 207.369 289.697 207.249 290.145 207.249C290.238 207.249 290.347 207.253 290.473 207.259C290.602 207.266 290.703 207.274 290.776 207.284V208.706C290.716 208.689 290.61 208.671 290.458 208.651C290.305 208.628 290.153 208.616 290.001 208.616C289.649 208.616 289.336 208.691 289.061 208.84C288.789 208.986 288.574 209.19 288.415 209.452C288.256 209.71 288.176 210.005 288.176 210.337V215H286.689ZM294.996 215.154C294.244 215.154 293.596 214.993 293.052 214.672C292.512 214.347 292.095 213.891 291.8 213.305C291.508 212.715 291.362 212.024 291.362 211.232C291.362 210.449 291.508 209.76 291.8 209.163C292.095 208.567 292.505 208.101 293.032 207.766C293.563 207.432 294.183 207.264 294.892 207.264C295.323 207.264 295.74 207.335 296.145 207.478C296.549 207.621 296.912 207.844 297.233 208.149C297.555 208.454 297.809 208.85 297.994 209.337C298.18 209.821 298.273 210.41 298.273 211.102V211.629H292.202V210.516H296.816C296.816 210.125 296.736 209.778 296.577 209.477C296.418 209.172 296.194 208.931 295.906 208.756C295.621 208.58 295.286 208.492 294.902 208.492C294.484 208.492 294.12 208.595 293.808 208.8C293.5 209.003 293.261 209.268 293.092 209.596C292.926 209.921 292.844 210.274 292.844 210.655V211.525C292.844 212.035 292.933 212.469 293.112 212.827C293.294 213.185 293.548 213.459 293.873 213.648C294.197 213.833 294.577 213.926 295.011 213.926C295.293 213.926 295.55 213.886 295.782 213.807C296.014 213.724 296.214 213.601 296.383 213.439C296.552 213.277 296.682 213.076 296.771 212.837L298.178 213.091C298.065 213.505 297.863 213.868 297.572 214.18C297.283 214.488 296.92 214.728 296.483 214.901C296.049 215.07 295.553 215.154 294.996 215.154Z" fill="#A4A4A4"/>
<path d="M97.4215 228.818H99.2859L102.527 236.733H102.647L105.888 228.818H107.753V239H106.291V231.632H106.196L103.194 238.985H101.98L98.9776 231.627H98.8832V239H97.4215V228.818ZM112.005 239.169C111.521 239.169 111.084 239.08 110.692 238.901C110.301 238.718 109.991 238.455 109.763 238.11C109.537 237.765 109.425 237.343 109.425 236.842C109.425 236.411 109.508 236.057 109.673 235.778C109.839 235.5 110.063 235.28 110.344 235.117C110.626 234.955 110.941 234.832 111.289 234.749C111.637 234.666 111.992 234.603 112.353 234.56C112.81 234.507 113.182 234.464 113.467 234.431C113.752 234.395 113.959 234.337 114.088 234.257C114.217 234.178 114.282 234.048 114.282 233.869V233.835C114.282 233.4 114.159 233.064 113.914 232.825C113.672 232.587 113.311 232.467 112.83 232.467C112.33 232.467 111.935 232.578 111.647 232.8C111.362 233.019 111.165 233.263 111.055 233.531L109.658 233.213C109.824 232.749 110.066 232.375 110.384 232.089C110.706 231.801 111.075 231.592 111.493 231.463C111.911 231.33 112.35 231.264 112.81 231.264C113.115 231.264 113.438 231.301 113.78 231.374C114.125 231.443 114.446 231.572 114.744 231.761C115.046 231.95 115.293 232.22 115.485 232.572C115.677 232.92 115.773 233.372 115.773 233.929V239H114.322V237.956H114.262C114.166 238.148 114.022 238.337 113.83 238.523C113.637 238.708 113.39 238.862 113.089 238.985C112.787 239.108 112.426 239.169 112.005 239.169ZM112.328 237.976C112.739 237.976 113.09 237.895 113.382 237.732C113.677 237.57 113.901 237.358 114.053 237.096C114.209 236.831 114.287 236.547 114.287 236.246V235.261C114.234 235.314 114.131 235.364 113.979 235.411C113.83 235.454 113.659 235.492 113.467 235.525C113.274 235.555 113.087 235.583 112.905 235.609C112.723 235.633 112.57 235.652 112.447 235.669C112.159 235.705 111.896 235.767 111.657 235.853C111.422 235.939 111.233 236.063 111.09 236.226C110.951 236.385 110.881 236.597 110.881 236.862C110.881 237.23 111.017 237.509 111.289 237.697C111.561 237.883 111.907 237.976 112.328 237.976ZM118.843 231.364L120.528 234.337L122.228 231.364H123.854L121.473 235.182L123.874 239H122.248L120.528 236.146L118.813 239H117.182L119.559 235.182L117.212 231.364H118.843ZM134.64 233.228L133.292 233.467C133.236 233.294 133.147 233.13 133.024 232.974C132.905 232.819 132.742 232.691 132.537 232.592C132.331 232.492 132.074 232.442 131.766 232.442C131.345 232.442 130.994 232.537 130.712 232.726C130.43 232.911 130.29 233.152 130.29 233.447C130.29 233.702 130.384 233.907 130.573 234.063C130.762 234.219 131.067 234.347 131.488 234.446L132.701 234.724C133.403 234.887 133.927 235.137 134.272 235.475C134.616 235.813 134.789 236.252 134.789 236.793C134.789 237.25 134.656 237.658 134.391 238.016C134.129 238.37 133.763 238.649 133.292 238.851C132.825 239.053 132.283 239.154 131.667 239.154C130.812 239.154 130.114 238.972 129.574 238.607C129.033 238.239 128.702 237.717 128.579 237.041L130.016 236.822C130.106 237.197 130.29 237.48 130.568 237.673C130.846 237.862 131.209 237.956 131.657 237.956C132.144 237.956 132.533 237.855 132.825 237.653C133.117 237.447 133.263 237.197 133.263 236.902C133.263 236.663 133.173 236.463 132.994 236.3C132.818 236.138 132.548 236.015 132.184 235.933L130.891 235.649C130.179 235.487 129.652 235.228 129.31 234.874C128.972 234.519 128.803 234.07 128.803 233.526C128.803 233.076 128.929 232.681 129.181 232.343C129.433 232.005 129.781 231.741 130.225 231.553C130.669 231.36 131.178 231.264 131.751 231.264C132.576 231.264 133.226 231.443 133.7 231.801C134.174 232.156 134.487 232.631 134.64 233.228ZM136.339 239V231.364H137.826V239H136.339ZM137.09 230.185C136.831 230.185 136.609 230.099 136.424 229.927C136.241 229.751 136.15 229.542 136.15 229.3C136.15 229.055 136.241 228.846 136.424 228.674C136.609 228.498 136.831 228.411 137.09 228.411C137.348 228.411 137.569 228.498 137.751 228.674C137.937 228.846 138.03 229.055 138.03 229.3C138.03 229.542 137.937 229.751 137.751 229.927C137.569 230.099 137.348 230.185 137.09 230.185ZM139.582 239V237.981L143.719 232.726V232.656H139.717V231.364H145.573V232.447L141.596 237.638V237.707H145.712V239H139.582ZM150.455 239.154C149.702 239.154 149.054 238.993 148.511 238.672C147.97 238.347 147.553 237.891 147.258 237.305C146.966 236.715 146.82 236.024 146.82 235.232C146.82 234.449 146.966 233.76 147.258 233.163C147.553 232.567 147.964 232.101 148.491 231.766C149.021 231.432 149.641 231.264 150.35 231.264C150.781 231.264 151.199 231.335 151.603 231.478C152.007 231.621 152.37 231.844 152.692 232.149C153.013 232.454 153.267 232.85 153.453 233.337C153.638 233.821 153.731 234.41 153.731 235.102V235.629H147.661V234.516H152.274C152.274 234.125 152.195 233.778 152.036 233.477C151.877 233.172 151.653 232.931 151.364 232.756C151.079 232.58 150.745 232.492 150.36 232.492C149.943 232.492 149.578 232.595 149.266 232.8C148.958 233.003 148.72 233.268 148.551 233.596C148.385 233.921 148.302 234.274 148.302 234.655V235.525C148.302 236.035 148.391 236.469 148.57 236.827C148.753 237.185 149.006 237.459 149.331 237.648C149.656 237.833 150.035 237.926 150.47 237.926C150.751 237.926 151.008 237.886 151.24 237.807C151.472 237.724 151.673 237.601 151.842 237.439C152.011 237.277 152.14 237.076 152.229 236.837L153.636 237.091C153.524 237.505 153.322 237.868 153.03 238.18C152.742 238.488 152.379 238.728 151.941 238.901C151.507 239.07 151.011 239.154 150.455 239.154ZM156.276 239.094C156.004 239.094 155.77 238.998 155.575 238.806C155.379 238.611 155.281 238.375 155.281 238.1C155.281 237.828 155.379 237.596 155.575 237.404C155.77 237.209 156.004 237.111 156.276 237.111C156.547 237.111 156.781 237.209 156.977 237.404C157.172 237.596 157.27 237.828 157.27 238.1C157.27 238.282 157.224 238.45 157.131 238.602C157.041 238.751 156.922 238.871 156.773 238.96C156.624 239.05 156.458 239.094 156.276 239.094ZM156.276 233.536C156.004 233.536 155.77 233.438 155.575 233.243C155.379 233.047 155.281 232.814 155.281 232.542C155.281 232.27 155.379 232.038 155.575 231.846C155.77 231.65 156.004 231.553 156.276 231.553C156.547 231.553 156.781 231.65 156.977 231.846C157.172 232.038 157.27 232.27 157.27 232.542C157.27 232.724 157.224 232.892 157.131 233.044C157.041 233.193 156.922 233.312 156.773 233.402C156.624 233.491 156.458 233.536 156.276 233.536ZM162.564 237.011V235.768L166.964 228.818H167.944V230.648H167.322L164.175 235.629V235.709H170.206V237.011H162.564ZM167.392 239V236.634L167.402 236.067V228.818H168.859V239H167.392ZM171.994 228.818H173.858L177.099 236.733H177.219L180.46 228.818H182.325V239H180.863V231.632H180.768L177.766 238.985H176.553L173.55 231.627H173.455V239H171.994V228.818ZM184.474 239V228.818H188.203C188.925 228.818 189.524 228.937 189.998 229.176C190.471 229.411 190.826 229.731 191.061 230.136C191.297 230.537 191.414 230.989 191.414 231.493C191.414 231.917 191.337 232.275 191.181 232.567C191.025 232.855 190.816 233.087 190.554 233.263C190.296 233.435 190.011 233.561 189.699 233.641V233.74C190.037 233.757 190.367 233.866 190.689 234.068C191.013 234.267 191.282 234.55 191.494 234.918C191.706 235.286 191.812 235.734 191.812 236.261C191.812 236.781 191.69 237.248 191.444 237.663C191.202 238.074 190.828 238.4 190.321 238.642C189.814 238.881 189.166 239 188.377 239H184.474ZM186.01 237.683H188.228C188.963 237.683 189.49 237.54 189.809 237.255C190.127 236.97 190.286 236.614 190.286 236.186C190.286 235.865 190.205 235.57 190.042 235.301C189.88 235.033 189.648 234.819 189.346 234.66C189.048 234.501 188.693 234.421 188.282 234.421H186.01V237.683ZM186.01 233.223H188.069C188.413 233.223 188.723 233.157 188.998 233.024C189.277 232.892 189.497 232.706 189.659 232.467C189.825 232.225 189.908 231.94 189.908 231.612C189.908 231.191 189.761 230.838 189.466 230.553C189.171 230.268 188.718 230.126 188.108 230.126H186.01V233.223ZM198.031 235.535C197.76 235.535 197.526 235.439 197.33 235.246C197.135 235.051 197.037 234.816 197.037 234.54C197.037 234.269 197.135 234.037 197.33 233.844C197.526 233.649 197.76 233.551 198.031 233.551C198.303 233.551 198.537 233.649 198.732 233.844C198.928 234.037 199.026 234.269 199.026 234.54C199.026 234.723 198.979 234.89 198.887 235.043C198.797 235.192 198.678 235.311 198.529 235.401C198.379 235.49 198.214 235.535 198.031 235.535ZM206.209 228.818V239H204.673V228.818H206.209ZM208.243 239V231.364H209.67V232.607H209.765C209.924 232.186 210.184 231.857 210.545 231.622C210.906 231.384 211.339 231.264 211.843 231.264C212.353 231.264 212.781 231.384 213.125 231.622C213.473 231.861 213.73 232.189 213.896 232.607H213.976C214.158 232.199 214.448 231.874 214.846 231.632C215.243 231.387 215.717 231.264 216.268 231.264C216.96 231.264 217.525 231.481 217.963 231.915C218.404 232.35 218.624 233.004 218.624 233.879V239H217.138V234.018C217.138 233.501 216.997 233.127 216.715 232.895C216.433 232.663 216.097 232.547 215.706 232.547C215.222 232.547 214.846 232.696 214.577 232.994C214.309 233.289 214.174 233.669 214.174 234.133V239H212.693V233.924C212.693 233.51 212.564 233.177 212.305 232.925C212.047 232.673 211.71 232.547 211.296 232.547C211.014 232.547 210.754 232.621 210.515 232.771C210.28 232.916 210.089 233.12 209.944 233.382C209.801 233.644 209.73 233.947 209.73 234.292V239H208.243ZM222.755 239.169C222.271 239.169 221.833 239.08 221.442 238.901C221.051 238.718 220.741 238.455 220.513 238.11C220.287 237.765 220.174 237.343 220.174 236.842C220.174 236.411 220.257 236.057 220.423 235.778C220.589 235.5 220.812 235.28 221.094 235.117C221.376 234.955 221.691 234.832 222.039 234.749C222.387 234.666 222.741 234.603 223.103 234.56C223.56 234.507 223.931 234.464 224.216 234.431C224.501 234.395 224.709 234.337 224.838 234.257C224.967 234.178 225.032 234.048 225.032 233.869V233.835C225.032 233.4 224.909 233.064 224.664 232.825C224.422 232.587 224.061 232.467 223.58 232.467C223.08 232.467 222.685 232.578 222.397 232.8C222.112 233.019 221.915 233.263 221.805 233.531L220.408 233.213C220.574 232.749 220.816 232.375 221.134 232.089C221.455 231.801 221.825 231.592 222.243 231.463C222.66 231.33 223.099 231.264 223.56 231.264C223.865 231.264 224.188 231.301 224.53 231.374C224.874 231.443 225.196 231.572 225.494 231.761C225.796 231.95 226.043 232.22 226.235 232.572C226.427 232.92 226.523 233.372 226.523 233.929V239H225.071V237.956H225.012C224.916 238.148 224.772 238.337 224.579 238.523C224.387 238.708 224.14 238.862 223.839 238.985C223.537 239.108 223.176 239.169 222.755 239.169ZM223.078 237.976C223.489 237.976 223.84 237.895 224.132 237.732C224.427 237.57 224.651 237.358 224.803 237.096C224.959 236.831 225.037 236.547 225.037 236.246V235.261C224.984 235.314 224.881 235.364 224.728 235.411C224.579 235.454 224.409 235.492 224.216 235.525C224.024 235.555 223.837 235.583 223.655 235.609C223.472 235.633 223.32 235.652 223.197 235.669C222.909 235.705 222.645 235.767 222.407 235.853C222.171 235.939 221.982 236.063 221.84 236.226C221.701 236.385 221.631 236.597 221.631 236.862C221.631 237.23 221.767 237.509 222.039 237.697C222.311 237.883 222.657 237.976 223.078 237.976ZM231.621 242.023C231.014 242.023 230.492 241.943 230.055 241.784C229.621 241.625 229.266 241.415 228.991 241.153C228.716 240.891 228.51 240.604 228.374 240.293L229.652 239.766C229.742 239.911 229.861 240.066 230.01 240.228C230.162 240.394 230.368 240.535 230.627 240.651C230.888 240.767 231.225 240.825 231.636 240.825C232.199 240.825 232.665 240.687 233.033 240.412C233.401 240.14 233.585 239.706 233.585 239.109V237.608H233.49C233.401 237.77 233.271 237.951 233.102 238.15C232.937 238.349 232.708 238.521 232.416 238.667C232.125 238.813 231.745 238.886 231.278 238.886C230.675 238.886 230.131 238.745 229.647 238.463C229.167 238.178 228.785 237.759 228.504 237.205C228.225 236.648 228.086 235.964 228.086 235.152C228.086 234.34 228.224 233.644 228.499 233.064C228.777 232.484 229.158 232.04 229.642 231.732C230.126 231.42 230.675 231.264 231.288 231.264C231.762 231.264 232.144 231.344 232.436 231.503C232.728 231.659 232.955 231.841 233.117 232.05C233.283 232.259 233.411 232.442 233.5 232.602H233.609V231.364H235.066V239.169C235.066 239.825 234.914 240.364 234.609 240.785C234.304 241.206 233.891 241.517 233.371 241.719C232.854 241.922 232.27 242.023 231.621 242.023ZM231.606 237.653C232.033 237.653 232.395 237.553 232.69 237.354C232.988 237.152 233.213 236.864 233.366 236.489C233.522 236.112 233.6 235.659 233.6 235.132C233.6 234.618 233.523 234.166 233.371 233.775C233.218 233.384 232.995 233.079 232.7 232.86C232.405 232.638 232.04 232.527 231.606 232.527C231.158 232.527 230.786 232.643 230.487 232.875C230.189 233.104 229.964 233.415 229.811 233.81C229.662 234.204 229.587 234.645 229.587 235.132C229.587 235.633 229.664 236.072 229.816 236.45C229.969 236.827 230.194 237.122 230.492 237.335C230.794 237.547 231.165 237.653 231.606 237.653ZM240.267 239.154C239.515 239.154 238.867 238.993 238.323 238.672C237.783 238.347 237.365 237.891 237.07 237.305C236.779 236.715 236.633 236.024 236.633 235.232C236.633 234.449 236.779 233.76 237.07 233.163C237.365 232.567 237.776 232.101 238.303 231.766C238.833 231.432 239.453 231.264 240.163 231.264C240.593 231.264 241.011 231.335 241.415 231.478C241.82 231.621 242.183 231.844 242.504 232.149C242.826 232.454 243.079 232.85 243.265 233.337C243.45 233.821 243.543 234.41 243.543 235.102V235.629H237.473V234.516H242.087C242.087 234.125 242.007 233.778 241.848 233.477C241.689 233.172 241.465 232.931 241.177 232.756C240.892 232.58 240.557 232.492 240.172 232.492C239.755 232.492 239.39 232.595 239.079 232.8C238.77 233.003 238.532 233.268 238.363 233.596C238.197 233.921 238.114 234.274 238.114 234.655V235.525C238.114 236.035 238.204 236.469 238.383 236.827C238.565 237.185 238.819 237.459 239.143 237.648C239.468 237.833 239.848 237.926 240.282 237.926C240.564 237.926 240.82 237.886 241.052 237.807C241.284 237.724 241.485 237.601 241.654 237.439C241.823 237.277 241.952 237.076 242.042 236.837L243.449 237.091C243.336 237.505 243.134 237.868 242.842 238.18C242.554 238.488 242.191 238.728 241.753 238.901C241.319 239.07 240.824 239.154 240.267 239.154ZM251.946 239.154C251.23 239.154 250.606 238.99 250.072 238.662C249.538 238.334 249.124 237.875 248.829 237.285C248.534 236.695 248.387 236.005 248.387 235.217C248.387 234.424 248.534 233.732 248.829 233.138C249.124 232.545 249.538 232.085 250.072 231.756C250.606 231.428 251.23 231.264 251.946 231.264C252.662 231.264 253.287 231.428 253.821 231.756C254.354 232.085 254.768 232.545 255.063 233.138C255.358 233.732 255.506 234.424 255.506 235.217C255.506 236.005 255.358 236.695 255.063 237.285C254.768 237.875 254.354 238.334 253.821 238.662C253.287 238.99 252.662 239.154 251.946 239.154ZM251.951 237.906C252.415 237.906 252.8 237.784 253.105 237.538C253.41 237.293 253.635 236.967 253.781 236.559C253.93 236.151 254.004 235.702 254.004 235.212C254.004 234.724 253.93 234.277 253.781 233.869C253.635 233.458 253.41 233.129 253.105 232.88C252.8 232.631 252.415 232.507 251.951 232.507C251.484 232.507 251.096 232.631 250.788 232.88C250.483 233.129 250.256 233.458 250.107 233.869C249.961 234.277 249.888 234.724 249.888 235.212C249.888 235.702 249.961 236.151 250.107 236.559C250.256 236.967 250.483 237.293 250.788 237.538C251.096 237.784 251.484 237.906 251.951 237.906ZM258.568 234.466V239H257.081V231.364H258.508V232.607H258.602C258.778 232.202 259.053 231.877 259.428 231.632C259.806 231.387 260.281 231.264 260.855 231.264C261.375 231.264 261.831 231.374 262.222 231.592C262.613 231.808 262.916 232.129 263.132 232.557C263.347 232.984 263.455 233.513 263.455 234.143V239H261.968V234.322C261.968 233.768 261.824 233.336 261.536 233.024C261.247 232.709 260.851 232.552 260.347 232.552C260.003 232.552 259.696 232.626 259.428 232.776C259.163 232.925 258.952 233.143 258.796 233.432C258.644 233.717 258.568 234.062 258.568 234.466ZM266.851 228.818V239H265.364V228.818H266.851ZM269.706 241.864C269.484 241.864 269.282 241.845 269.1 241.809C268.917 241.776 268.782 241.739 268.692 241.7L269.05 240.482C269.322 240.554 269.564 240.586 269.776 240.576C269.988 240.566 270.175 240.487 270.338 240.337C270.503 240.188 270.649 239.945 270.775 239.607L270.959 239.099L268.165 231.364H269.756L271.69 237.29H271.77L273.703 231.364H275.299L272.152 240.019C272.006 240.417 271.821 240.753 271.596 241.028C271.37 241.307 271.102 241.516 270.79 241.655C270.479 241.794 270.117 241.864 269.706 241.864Z" fill="#7B7B7B"/>
<path d="M30.2614 346H28.3977L32.5852 334.364H34.6136L38.8011 346H36.9375L33.6477 336.477H33.5568L30.2614 346ZM30.5739 341.443H36.6193V342.92H30.5739V341.443ZM40.1692 349.273V337.273H41.8283V338.688H41.9703C42.0688 338.506 42.2108 338.295 42.3964 338.057C42.582 337.818 42.8396 337.61 43.1692 337.432C43.4987 337.25 43.9343 337.159 44.476 337.159C45.1805 337.159 45.8093 337.337 46.3624 337.693C46.9154 338.049 47.3491 338.562 47.6635 339.233C47.9817 339.903 48.1408 340.71 48.1408 341.653C48.1408 342.597 47.9836 343.405 47.6692 344.08C47.3548 344.75 46.923 345.267 46.3737 345.631C45.8245 345.991 45.1976 346.17 44.493 346.17C43.9627 346.17 43.529 346.081 43.1919 345.903C42.8586 345.725 42.5972 345.517 42.4078 345.278C42.2184 345.04 42.0726 344.828 41.9703 344.642H41.868V349.273H40.1692ZM41.8339 341.636C41.8339 342.25 41.923 342.788 42.101 343.25C42.279 343.712 42.5366 344.074 42.8737 344.335C43.2108 344.593 43.6237 344.722 44.1124 344.722C44.6199 344.722 45.0442 344.587 45.3851 344.318C45.726 344.045 45.9836 343.676 46.1578 343.21C46.3358 342.744 46.4249 342.22 46.4249 341.636C46.4249 341.061 46.3377 340.544 46.1635 340.085C45.993 339.627 45.7355 339.265 45.3908 339C45.0499 338.735 44.6237 338.602 44.1124 338.602C43.6199 338.602 43.2033 338.729 42.8624 338.983C42.5252 339.237 42.2695 339.591 42.0953 340.045C41.9211 340.5 41.8339 341.03 41.8339 341.636ZM49.8682 349.273V337.273H51.5273V338.688H51.6693C51.7678 338.506 51.9098 338.295 52.0954 338.057C52.2811 337.818 52.5386 337.61 52.8682 337.432C53.1977 337.25 53.6333 337.159 54.175 337.159C54.8795 337.159 55.5083 337.337 56.0614 337.693C56.6144 338.049 57.0481 338.562 57.3625 339.233C57.6807 339.903 57.8398 340.71 57.8398 341.653C57.8398 342.597 57.6826 343.405 57.3682 344.08C57.0538 344.75 56.622 345.267 56.0727 345.631C55.5235 345.991 54.8966 346.17 54.192 346.17C53.6617 346.17 53.228 346.081 52.8909 345.903C52.5576 345.725 52.2962 345.517 52.1068 345.278C51.9174 345.04 51.7716 344.828 51.6693 344.642H51.567V349.273H49.8682ZM51.5329 341.636C51.5329 342.25 51.622 342.788 51.8 343.25C51.978 343.712 52.2356 344.074 52.5727 344.335C52.9098 344.593 53.3227 344.722 53.8114 344.722C54.3189 344.722 54.7432 344.587 55.0841 344.318C55.425 344.045 55.6826 343.676 55.8568 343.21C56.0348 342.744 56.1239 342.22 56.1239 341.636C56.1239 341.061 56.0367 340.544 55.8625 340.085C55.692 339.627 55.4345 339.265 55.0898 339C54.7489 338.735 54.3227 338.602 53.8114 338.602C53.3189 338.602 52.9023 338.729 52.5614 338.983C52.2242 339.237 51.9686 339.591 51.7943 340.045C51.6201 340.5 51.5329 341.03 51.5329 341.636ZM61.266 334.364V346H59.5672V334.364H61.266ZM67.1369 346.176C66.2771 346.176 65.5365 345.992 64.9153 345.625C64.2979 345.254 63.8206 344.733 63.4835 344.062C63.1502 343.388 62.9835 342.598 62.9835 341.693C62.9835 340.799 63.1502 340.011 63.4835 339.33C63.8206 338.648 64.2903 338.116 64.8926 337.733C65.4987 337.35 66.207 337.159 67.0176 337.159C67.51 337.159 67.9873 337.241 68.4494 337.403C68.9115 337.566 69.3263 337.822 69.6937 338.17C70.0612 338.519 70.3509 338.972 70.563 339.528C70.7752 340.081 70.8812 340.754 70.8812 341.545V342.148H63.9437V340.875H69.2165C69.2165 340.428 69.1255 340.032 68.9437 339.688C68.7619 339.339 68.5062 339.064 68.1767 338.864C67.8509 338.663 67.4683 338.562 67.029 338.562C66.5517 338.562 66.135 338.68 65.779 338.915C65.4267 339.146 65.154 339.449 64.9608 339.824C64.7714 340.195 64.6767 340.598 64.6767 341.034V342.028C64.6767 342.612 64.779 343.108 64.9835 343.517C65.1918 343.926 65.4816 344.239 65.8528 344.455C66.224 344.667 66.6577 344.773 67.154 344.773C67.4759 344.773 67.7695 344.727 68.0346 344.636C68.2998 344.542 68.529 344.402 68.7221 344.216C68.9153 344.03 69.063 343.801 69.1653 343.528L70.7733 343.818C70.6445 344.292 70.4134 344.706 70.0801 345.062C69.7505 345.415 69.3358 345.689 68.8358 345.886C68.3396 346.08 67.7733 346.176 67.1369 346.176ZM79.0633 346L75.836 334.364H77.6826L79.9497 343.375H80.0576L82.4156 334.364H84.2451L86.6031 343.381H86.711L88.9724 334.364H90.8247L87.5917 346H85.8247L83.3758 337.284H83.2849L80.836 346H79.0633ZM93.7936 346.193C93.2405 346.193 92.7405 346.091 92.2936 345.886C91.8466 345.678 91.4924 345.377 91.2311 344.983C90.9735 344.589 90.8447 344.106 90.8447 343.534C90.8447 343.042 90.9394 342.636 91.1288 342.318C91.3182 342 91.5739 341.748 91.8958 341.562C92.2178 341.377 92.5777 341.237 92.9754 341.142C93.3731 341.047 93.7784 340.975 94.1913 340.926C94.714 340.866 95.1383 340.816 95.464 340.778C95.7898 340.737 96.0265 340.67 96.1743 340.58C96.322 340.489 96.3958 340.341 96.3958 340.136V340.097C96.3958 339.6 96.2557 339.216 95.9754 338.943C95.6989 338.67 95.286 338.534 94.7368 338.534C94.1648 338.534 93.714 338.661 93.3845 338.915C93.0587 339.165 92.8333 339.443 92.7083 339.75L91.1118 339.386C91.3011 338.856 91.5777 338.428 91.9413 338.102C92.3087 337.773 92.7311 337.534 93.2083 337.386C93.6856 337.235 94.1875 337.159 94.714 337.159C95.0625 337.159 95.4318 337.201 95.822 337.284C96.2159 337.364 96.5833 337.511 96.9243 337.727C97.2689 337.943 97.5511 338.252 97.7708 338.653C97.9905 339.051 98.1004 339.568 98.1004 340.205V346H96.4413V344.807H96.3731C96.2633 345.027 96.0985 345.242 95.8788 345.455C95.6591 345.667 95.3769 345.843 95.0322 345.983C94.6875 346.123 94.2746 346.193 93.7936 346.193ZM94.1629 344.83C94.6326 344.83 95.0341 344.737 95.3674 344.551C95.7046 344.366 95.9602 344.123 96.1345 343.824C96.3125 343.521 96.4015 343.197 96.4015 342.852V341.727C96.3409 341.788 96.2235 341.845 96.0493 341.898C95.8788 341.947 95.6837 341.991 95.464 342.028C95.2443 342.062 95.0303 342.095 94.822 342.125C94.6136 342.152 94.4394 342.174 94.2993 342.193C93.9697 342.235 93.6686 342.305 93.3958 342.403C93.1269 342.502 92.911 342.644 92.7481 342.83C92.589 343.011 92.5095 343.254 92.5095 343.557C92.5095 343.977 92.6648 344.295 92.9754 344.511C93.286 344.723 93.6818 344.83 94.1629 344.83ZM104.261 337.273V338.636H99.494V337.273H104.261ZM100.772 335.182H102.471V343.438C102.471 343.767 102.521 344.015 102.619 344.182C102.717 344.345 102.844 344.456 103 344.517C103.159 344.574 103.331 344.602 103.517 344.602C103.653 344.602 103.772 344.593 103.875 344.574C103.977 344.555 104.056 344.54 104.113 344.528L104.42 345.932C104.322 345.97 104.181 346.008 104 346.045C103.818 346.087 103.591 346.11 103.318 346.114C102.871 346.121 102.454 346.042 102.068 345.875C101.681 345.708 101.369 345.451 101.13 345.102C100.892 344.754 100.772 344.316 100.772 343.79V335.182ZM109.547 346.176C108.702 346.176 107.975 345.985 107.365 345.602C106.759 345.216 106.293 344.684 105.967 344.006C105.641 343.328 105.479 342.551 105.479 341.676C105.479 340.79 105.645 340.008 105.979 339.33C106.312 338.648 106.782 338.116 107.388 337.733C107.994 337.35 108.708 337.159 109.53 337.159C110.193 337.159 110.783 337.282 111.302 337.528C111.821 337.771 112.24 338.112 112.558 338.551C112.88 338.991 113.071 339.504 113.132 340.091H111.479C111.388 339.682 111.179 339.33 110.854 339.034C110.532 338.739 110.1 338.591 109.558 338.591C109.085 338.591 108.67 338.716 108.314 338.966C107.961 339.212 107.687 339.564 107.49 340.023C107.293 340.477 107.194 341.015 107.194 341.636C107.194 342.273 107.291 342.822 107.484 343.284C107.677 343.746 107.95 344.104 108.302 344.358C108.658 344.612 109.077 344.739 109.558 344.739C109.88 344.739 110.172 344.68 110.433 344.562C110.698 344.441 110.92 344.269 111.098 344.045C111.28 343.822 111.407 343.553 111.479 343.239H113.132C113.071 343.803 112.888 344.307 112.581 344.75C112.274 345.193 111.863 345.542 111.348 345.795C110.836 346.049 110.236 346.176 109.547 346.176ZM116.472 340.818V346H114.773V334.364H116.449V338.693H116.557C116.761 338.223 117.074 337.85 117.494 337.574C117.915 337.297 118.464 337.159 119.142 337.159C119.74 337.159 120.263 337.282 120.71 337.528C121.161 337.775 121.509 338.142 121.756 338.631C122.006 339.116 122.131 339.722 122.131 340.449V346H120.432V340.653C120.432 340.013 120.267 339.517 119.937 339.165C119.608 338.809 119.15 338.631 118.562 338.631C118.161 338.631 117.801 338.716 117.483 338.886C117.169 339.057 116.92 339.307 116.739 339.636C116.561 339.962 116.472 340.356 116.472 340.818ZM134.763 337.42C134.702 336.883 134.452 336.466 134.013 336.17C133.574 335.871 133.021 335.722 132.354 335.722C131.877 335.722 131.464 335.797 131.115 335.949C130.767 336.097 130.496 336.301 130.303 336.562C130.113 336.82 130.019 337.114 130.019 337.443C130.019 337.72 130.083 337.958 130.212 338.159C130.344 338.36 130.517 338.528 130.729 338.665C130.945 338.797 131.176 338.909 131.422 339C131.668 339.087 131.905 339.159 132.132 339.216L133.269 339.511C133.64 339.602 134.021 339.725 134.411 339.881C134.801 340.036 135.163 340.241 135.496 340.494C135.829 340.748 136.098 341.062 136.303 341.438C136.511 341.812 136.615 342.261 136.615 342.784C136.615 343.443 136.445 344.028 136.104 344.54C135.767 345.051 135.276 345.455 134.632 345.75C133.992 346.045 133.218 346.193 132.308 346.193C131.437 346.193 130.683 346.055 130.047 345.778C129.411 345.502 128.913 345.11 128.553 344.602C128.193 344.091 127.994 343.485 127.956 342.784H129.718C129.752 343.205 129.888 343.555 130.127 343.835C130.369 344.112 130.678 344.318 131.053 344.455C131.432 344.587 131.846 344.653 132.297 344.653C132.793 344.653 133.235 344.576 133.621 344.42C134.011 344.261 134.318 344.042 134.541 343.761C134.765 343.477 134.877 343.146 134.877 342.767C134.877 342.422 134.778 342.14 134.581 341.92C134.388 341.701 134.125 341.519 133.791 341.375C133.462 341.231 133.089 341.104 132.672 340.994L131.297 340.619C130.365 340.366 129.627 339.992 129.081 339.5C128.54 339.008 128.269 338.356 128.269 337.545C128.269 336.875 128.451 336.29 128.814 335.79C129.178 335.29 129.67 334.902 130.291 334.625C130.913 334.345 131.613 334.205 132.394 334.205C133.182 334.205 133.877 334.343 134.479 334.619C135.085 334.896 135.562 335.277 135.911 335.761C136.259 336.242 136.441 336.795 136.456 337.42H134.763ZM142.162 346.176C141.302 346.176 140.562 345.992 139.941 345.625C139.323 345.254 138.846 344.733 138.509 344.062C138.176 343.388 138.009 342.598 138.009 341.693C138.009 340.799 138.176 340.011 138.509 339.33C138.846 338.648 139.316 338.116 139.918 337.733C140.524 337.35 141.232 337.159 142.043 337.159C142.535 337.159 143.013 337.241 143.475 337.403C143.937 337.566 144.352 337.822 144.719 338.17C145.087 338.519 145.376 338.972 145.588 339.528C145.801 340.081 145.907 340.754 145.907 341.545V342.148H138.969V340.875H144.242C144.242 340.428 144.151 340.032 143.969 339.688C143.787 339.339 143.532 339.064 143.202 338.864C142.876 338.663 142.494 338.562 142.054 338.562C141.577 338.562 141.16 338.68 140.804 338.915C140.452 339.146 140.179 339.449 139.986 339.824C139.797 340.195 139.702 340.598 139.702 341.034V342.028C139.702 342.612 139.804 343.108 140.009 343.517C140.217 343.926 140.507 344.239 140.878 344.455C141.249 344.667 141.683 344.773 142.179 344.773C142.501 344.773 142.795 344.727 143.06 344.636C143.325 344.542 143.554 344.402 143.748 344.216C143.941 344.03 144.088 343.801 144.191 343.528L145.799 343.818C145.67 344.292 145.439 344.706 145.105 345.062C144.776 345.415 144.361 345.689 143.861 345.886C143.365 346.08 142.799 346.176 142.162 346.176ZM147.616 346V337.273H149.258V338.659H149.349C149.508 338.189 149.788 337.82 150.189 337.551C150.595 337.278 151.053 337.142 151.564 337.142C151.67 337.142 151.795 337.146 151.939 337.153C152.087 337.161 152.203 337.17 152.286 337.182V338.807C152.218 338.788 152.097 338.767 151.922 338.744C151.748 338.718 151.574 338.705 151.4 338.705C150.998 338.705 150.64 338.79 150.326 338.96C150.015 339.127 149.769 339.36 149.587 339.659C149.405 339.955 149.314 340.292 149.314 340.67V346H147.616ZM153.58 346V337.273H155.279V346H153.58ZM154.438 335.926C154.143 335.926 153.889 335.828 153.677 335.631C153.468 335.43 153.364 335.191 153.364 334.915C153.364 334.634 153.468 334.396 153.677 334.199C153.889 333.998 154.143 333.898 154.438 333.898C154.734 333.898 154.985 333.998 155.194 334.199C155.406 334.396 155.512 334.634 155.512 334.915C155.512 335.191 155.406 335.43 155.194 335.631C154.985 335.828 154.734 335.926 154.438 335.926ZM161.15 346.176C160.29 346.176 159.55 345.992 158.928 345.625C158.311 345.254 157.834 344.733 157.497 344.062C157.163 343.388 156.997 342.598 156.997 341.693C156.997 340.799 157.163 340.011 157.497 339.33C157.834 338.648 158.303 338.116 158.906 337.733C159.512 337.35 160.22 337.159 161.031 337.159C161.523 337.159 162 337.241 162.462 337.403C162.925 337.566 163.339 337.822 163.707 338.17C164.074 338.519 164.364 338.972 164.576 339.528C164.788 340.081 164.894 340.754 164.894 341.545V342.148H157.957V340.875H163.229C163.229 340.428 163.139 340.032 162.957 339.688C162.775 339.339 162.519 339.064 162.19 338.864C161.864 338.663 161.481 338.562 161.042 338.562C160.565 338.562 160.148 338.68 159.792 338.915C159.44 339.146 159.167 339.449 158.974 339.824C158.784 340.195 158.69 340.598 158.69 341.034V342.028C158.69 342.612 158.792 343.108 158.997 343.517C159.205 343.926 159.495 344.239 159.866 344.455C160.237 344.667 160.671 344.773 161.167 344.773C161.489 344.773 161.782 344.727 162.048 344.636C162.313 344.542 162.542 344.402 162.735 344.216C162.928 344.03 163.076 343.801 163.178 343.528L164.786 343.818C164.657 344.292 164.426 344.706 164.093 345.062C163.764 345.415 163.349 345.689 162.849 345.886C162.353 346.08 161.786 346.176 161.15 346.176ZM173.143 339.403L171.603 339.676C171.539 339.479 171.436 339.292 171.296 339.114C171.16 338.936 170.974 338.79 170.74 338.676C170.505 338.562 170.211 338.506 169.859 338.506C169.378 338.506 168.976 338.614 168.654 338.83C168.332 339.042 168.171 339.316 168.171 339.653C168.171 339.945 168.279 340.18 168.495 340.358C168.711 340.536 169.06 340.682 169.541 340.795L170.927 341.114C171.73 341.299 172.329 341.585 172.722 341.972C173.116 342.358 173.313 342.86 173.313 343.477C173.313 344 173.162 344.466 172.859 344.875C172.56 345.28 172.141 345.598 171.603 345.83C171.069 346.061 170.45 346.176 169.745 346.176C168.768 346.176 167.971 345.968 167.353 345.551C166.736 345.131 166.357 344.534 166.217 343.761L167.859 343.511C167.961 343.939 168.171 344.263 168.49 344.483C168.808 344.699 169.222 344.807 169.734 344.807C170.291 344.807 170.736 344.691 171.069 344.46C171.402 344.225 171.569 343.939 171.569 343.602C171.569 343.33 171.467 343.1 171.262 342.915C171.061 342.729 170.753 342.589 170.336 342.494L168.859 342.17C168.044 341.985 167.442 341.689 167.052 341.284C166.666 340.879 166.472 340.366 166.472 339.744C166.472 339.229 166.616 338.778 166.904 338.392C167.192 338.006 167.59 337.705 168.097 337.489C168.605 337.269 169.186 337.159 169.842 337.159C170.785 337.159 171.527 337.364 172.069 337.773C172.611 338.178 172.969 338.722 173.143 339.403ZM182.882 346.159C182.17 346.159 181.53 346.023 180.961 345.75C180.397 345.473 179.946 345.095 179.609 344.614C179.272 344.133 179.092 343.583 179.069 342.966H180.774C180.816 343.466 181.037 343.877 181.439 344.199C181.84 344.521 182.321 344.682 182.882 344.682C183.329 344.682 183.725 344.58 184.069 344.375C184.418 344.167 184.691 343.881 184.888 343.517C185.088 343.153 185.189 342.739 185.189 342.273C185.189 341.799 185.086 341.377 184.882 341.006C184.677 340.634 184.395 340.343 184.035 340.131C183.679 339.919 183.27 339.811 182.808 339.807C182.456 339.807 182.102 339.867 181.745 339.989C181.389 340.11 181.102 340.269 180.882 340.466L179.274 340.227L179.927 334.364H186.325V335.869H181.388L181.018 339.125H181.086C181.314 338.905 181.615 338.722 181.99 338.574C182.369 338.426 182.774 338.352 183.206 338.352C183.914 338.352 184.545 338.521 185.098 338.858C185.655 339.195 186.092 339.655 186.41 340.239C186.732 340.818 186.891 341.485 186.888 342.239C186.891 342.992 186.721 343.665 186.376 344.256C186.035 344.847 185.562 345.312 184.956 345.653C184.353 345.991 183.662 346.159 182.882 346.159Z" fill="#7B7B7B"/>
<path d="M36.7969 395.453V365.266H39.5312V395.453H36.7969ZM38.2656 392.375C36.3802 392.375 34.7552 392.057 33.3906 391.422C32.0365 390.786 30.9896 389.875 30.25 388.688C29.5208 387.5 29.1562 386.083 29.1562 384.438H32.9219C32.9219 385.406 33.1354 386.245 33.5625 386.953C33.9896 387.651 34.6042 388.188 35.4062 388.562C36.2188 388.938 37.1823 389.125 38.2969 389.125C39.3073 389.125 40.1875 388.979 40.9375 388.688C41.6875 388.396 42.2708 387.984 42.6875 387.453C43.1146 386.922 43.3281 386.297 43.3281 385.578C43.3281 385.005 43.1771 384.505 42.875 384.078C42.5833 383.651 42.1146 383.281 41.4688 382.969C40.8333 382.646 39.9844 382.365 38.9219 382.125L36.3906 381.531C34.0573 380.99 32.3438 380.208 31.25 379.188C30.1667 378.156 29.625 376.828 29.625 375.203C29.625 373.828 29.974 372.63 30.6719 371.609C31.3698 370.578 32.349 369.776 33.6094 369.203C34.8802 368.63 36.3594 368.344 38.0469 368.344C39.7552 368.344 41.2292 368.641 42.4688 369.234C43.7188 369.828 44.6927 370.677 45.3906 371.781C46.0885 372.885 46.4583 374.203 46.5 375.734H42.8594C42.776 374.443 42.3021 373.432 41.4375 372.703C40.5729 371.974 39.4323 371.609 38.0156 371.609C37.1198 371.609 36.3229 371.755 35.625 372.047C34.9375 372.339 34.3958 372.74 34 373.25C33.6042 373.76 33.4062 374.354 33.4062 375.031C33.4062 375.573 33.5521 376.042 33.8438 376.438C34.1458 376.833 34.6146 377.182 35.25 377.484C35.8854 377.786 36.724 378.062 37.7656 378.312L40.1875 378.875C41.3854 379.146 42.4167 379.479 43.2812 379.875C44.1458 380.271 44.8594 380.734 45.4219 381.266C45.9948 381.786 46.4167 382.391 46.6875 383.078C46.9688 383.755 47.1094 384.516 47.1094 385.359C47.1094 386.776 46.7448 388.01 46.0156 389.062C45.2969 390.115 44.276 390.932 42.9531 391.516C41.6302 392.089 40.0677 392.375 38.2656 392.375ZM48.9806 386.672V383.672L59.6838 368.719H62.0431V372.594H60.715L52.8869 383.531V383.562H67.6369V386.672H48.9806ZM60.7306 392V385.766V384.391V368.719H64.34V392H60.7306ZM77.93 392.375C76.2842 392.375 74.831 392.099 73.5706 391.547C72.3206 390.984 71.3415 390.208 70.6331 389.219C69.9248 388.219 69.5706 387.073 69.5706 385.781C69.5706 384.729 69.7946 383.781 70.2425 382.938C70.7008 382.094 71.331 381.401 72.1331 380.859C72.9352 380.318 73.8467 379.984 74.8675 379.859V379.875C73.5342 379.646 72.4508 379.062 71.6175 378.125C70.7842 377.188 70.3675 376.021 70.3675 374.625C70.3675 373.406 70.6904 372.323 71.3363 371.375C71.9925 370.427 72.8883 369.688 74.0238 369.156C75.1592 368.615 76.4613 368.344 77.93 368.344C79.4092 368.344 80.7165 368.615 81.8519 369.156C82.9873 369.688 83.8727 370.427 84.5081 371.375C85.154 372.312 85.4769 373.396 85.4769 374.625C85.4769 376.021 85.0602 377.188 84.2269 378.125C83.404 379.062 82.3258 379.646 80.9925 379.875V379.859C82.0238 379.984 82.9404 380.323 83.7425 380.875C84.5446 381.417 85.1696 382.109 85.6175 382.953C86.0758 383.797 86.305 384.74 86.305 385.781C86.305 387.073 85.9508 388.219 85.2425 389.219C84.5342 390.208 83.5498 390.984 82.2894 391.547C81.0394 392.099 79.5863 392.375 77.93 392.375ZM77.93 389.375C78.8571 389.375 79.6592 389.219 80.3363 388.906C81.0238 388.583 81.555 388.135 81.93 387.562C82.3154 386.99 82.5081 386.318 82.5081 385.547C82.5081 384.766 82.3102 384.073 81.9144 383.469C81.529 382.854 80.9925 382.375 80.305 382.031C79.6175 381.688 78.8258 381.516 77.93 381.516C77.0446 381.516 76.2529 381.688 75.555 382.031C74.8675 382.375 74.3258 382.854 73.93 383.469C73.5342 384.073 73.3363 384.766 73.3363 385.547C73.3363 386.318 73.529 386.99 73.9144 387.562C74.2998 388.135 74.8363 388.583 75.5238 388.906C76.2113 389.219 77.0133 389.375 77.93 389.375ZM77.93 378.531C78.7113 378.531 79.3883 378.38 79.9613 378.078C80.5446 377.776 80.9977 377.354 81.3206 376.812C81.654 376.271 81.8206 375.646 81.8206 374.938C81.8206 374.219 81.6592 373.594 81.3363 373.062C81.0133 372.531 80.5602 372.115 79.9769 371.812C79.3935 371.51 78.7113 371.359 77.93 371.359C77.1488 371.359 76.4665 371.51 75.8831 371.812C75.2998 372.115 74.8415 372.531 74.5081 373.062C74.1852 373.594 74.0238 374.219 74.0238 374.938C74.0238 375.646 74.1852 376.271 74.5081 376.812C74.8415 377.354 75.2998 377.776 75.8831 378.078C76.4769 378.38 77.1592 378.531 77.93 378.531ZM97.4731 392.375C95.6398 392.375 94.0565 391.885 92.7231 390.906C91.3898 389.927 90.3638 388.542 89.645 386.75C88.9263 384.958 88.5669 382.833 88.5669 380.375C88.5669 377.906 88.9263 375.776 89.645 373.984C90.3638 372.182 91.3898 370.792 92.7231 369.812C94.0565 368.833 95.6398 368.344 97.4731 368.344C99.3065 368.344 100.89 368.833 102.223 369.812C103.556 370.792 104.583 372.182 105.301 373.984C106.02 375.776 106.379 377.906 106.379 380.375C106.379 382.833 106.02 384.958 105.301 386.75C104.583 388.542 103.556 389.927 102.223 390.906C100.89 391.885 99.3065 392.375 97.4731 392.375ZM97.4731 389.203C98.5773 389.203 99.5252 388.849 100.317 388.141C101.109 387.422 101.718 386.406 102.145 385.094C102.572 383.781 102.786 382.208 102.786 380.375C102.786 378.531 102.572 376.953 102.145 375.641C101.718 374.318 101.103 373.302 100.301 372.594C99.5096 371.875 98.5669 371.516 97.4731 371.516C96.3794 371.516 95.4315 371.875 94.6294 372.594C93.8377 373.302 93.2231 374.318 92.7856 375.641C92.3585 376.953 92.145 378.531 92.145 380.375C92.145 382.208 92.3585 383.781 92.7856 385.094C93.2231 386.406 93.8377 387.422 94.6294 388.141C95.4315 388.849 96.3794 389.203 97.4731 389.203ZM110.266 392.281C109.631 392.281 109.084 392.057 108.626 391.609C108.178 391.151 107.954 390.604 107.954 389.969C107.954 389.323 108.178 388.781 108.626 388.344C109.084 387.896 109.631 387.672 110.266 387.672C110.912 387.672 111.454 387.896 111.891 388.344C112.339 388.781 112.563 389.323 112.563 389.969C112.563 390.604 112.339 391.151 111.891 391.609C111.454 392.057 110.912 392.281 110.266 392.281ZM123.059 392.375C121.226 392.375 119.643 391.885 118.309 390.906C116.976 389.927 115.95 388.542 115.231 386.75C114.512 384.958 114.153 382.833 114.153 380.375C114.153 377.906 114.512 375.776 115.231 373.984C115.95 372.182 116.976 370.792 118.309 369.812C119.643 368.833 121.226 368.344 123.059 368.344C124.893 368.344 126.476 368.833 127.809 369.812C129.143 370.792 130.169 372.182 130.887 373.984C131.606 375.776 131.966 377.906 131.966 380.375C131.966 382.833 131.606 384.958 130.887 386.75C130.169 388.542 129.143 389.927 127.809 390.906C126.476 391.885 124.893 392.375 123.059 392.375ZM123.059 389.203C124.164 389.203 125.111 388.849 125.903 388.141C126.695 387.422 127.304 386.406 127.731 385.094C128.158 383.781 128.372 382.208 128.372 380.375C128.372 378.531 128.158 376.953 127.731 375.641C127.304 374.318 126.69 373.302 125.887 372.594C125.096 371.875 124.153 371.516 123.059 371.516C121.966 371.516 121.018 371.875 120.216 372.594C119.424 373.302 118.809 374.318 118.372 375.641C117.945 376.953 117.731 378.531 117.731 380.375C117.731 382.208 117.945 383.781 118.372 385.094C118.809 386.406 119.424 387.422 120.216 388.141C121.018 388.849 121.966 389.203 123.059 389.203ZM143.118 392.375C141.285 392.375 139.701 391.885 138.368 390.906C137.035 389.927 136.009 388.542 135.29 386.75C134.571 384.958 134.212 382.833 134.212 380.375C134.212 377.906 134.571 375.776 135.29 373.984C136.009 372.182 137.035 370.792 138.368 369.812C139.701 368.833 141.285 368.344 143.118 368.344C144.951 368.344 146.535 368.833 147.868 369.812C149.201 370.792 150.228 372.182 150.946 373.984C151.665 375.776 152.024 377.906 152.024 380.375C152.024 382.833 151.665 384.958 150.946 386.75C150.228 388.542 149.201 389.927 147.868 390.906C146.535 391.885 144.951 392.375 143.118 392.375ZM143.118 389.203C144.222 389.203 145.17 388.849 145.962 388.141C146.754 387.422 147.363 386.406 147.79 385.094C148.217 383.781 148.431 382.208 148.431 380.375C148.431 378.531 148.217 376.953 147.79 375.641C147.363 374.318 146.748 373.302 145.946 372.594C145.155 371.875 144.212 371.516 143.118 371.516C142.024 371.516 141.076 371.875 140.274 372.594C139.483 373.302 138.868 374.318 138.431 375.641C138.004 376.953 137.79 378.531 137.79 380.375C137.79 382.208 138.004 383.781 138.431 385.094C138.868 386.406 139.483 387.422 140.274 388.141C141.076 388.849 142.024 389.203 143.118 389.203Z" fill="#A4A4A4"/>
<path d="M35.625 433.42C35.5644 432.883 35.3144 432.466 34.875 432.17C34.4356 431.871 33.8826 431.722 33.2159 431.722C32.7386 431.722 32.3258 431.797 31.9773 431.949C31.6288 432.097 31.358 432.301 31.1648 432.562C30.9754 432.82 30.8807 433.114 30.8807 433.443C30.8807 433.72 30.9451 433.958 31.0739 434.159C31.2064 434.36 31.3788 434.528 31.5909 434.665C31.8068 434.797 32.0379 434.909 32.2841 435C32.5303 435.087 32.767 435.159 32.9943 435.216L34.1307 435.511C34.5019 435.602 34.8826 435.725 35.2727 435.881C35.6629 436.036 36.0246 436.241 36.358 436.494C36.6913 436.748 36.9602 437.062 37.1648 437.438C37.3731 437.812 37.4773 438.261 37.4773 438.784C37.4773 439.443 37.3068 440.028 36.9659 440.54C36.6288 441.051 36.1383 441.455 35.4943 441.75C34.8542 442.045 34.0795 442.193 33.1705 442.193C32.2992 442.193 31.5455 442.055 30.9091 441.778C30.2727 441.502 29.7746 441.11 29.4148 440.602C29.0549 440.091 28.8561 439.485 28.8182 438.784H30.5795C30.6136 439.205 30.75 439.555 30.9886 439.835C31.2311 440.112 31.5398 440.318 31.9148 440.455C32.2936 440.587 32.7083 440.653 33.1591 440.653C33.6553 440.653 34.0966 440.576 34.483 440.42C34.8731 440.261 35.1799 440.042 35.4034 439.761C35.6269 439.477 35.7386 439.146 35.7386 438.767C35.7386 438.422 35.6402 438.14 35.4432 437.92C35.25 437.701 34.9867 437.519 34.6534 437.375C34.3239 437.231 33.9508 437.104 33.5341 436.994L32.1591 436.619C31.2273 436.366 30.4886 435.992 29.9432 435.5C29.4015 435.008 29.1307 434.356 29.1307 433.545C29.1307 432.875 29.3125 432.29 29.6761 431.79C30.0398 431.29 30.5322 430.902 31.1534 430.625C31.7746 430.345 32.4754 430.205 33.2557 430.205C34.0436 430.205 34.7386 430.343 35.3409 430.619C35.947 430.896 36.4242 431.277 36.7727 431.761C37.1212 432.242 37.303 432.795 37.3182 433.42H35.625ZM43.3368 433.273V434.636H38.5697V433.273H43.3368ZM39.8481 431.182H41.547V439.438C41.547 439.767 41.5963 440.015 41.6947 440.182C41.7932 440.345 41.9201 440.456 42.0754 440.517C42.2345 440.574 42.4069 440.602 42.5925 440.602C42.7288 440.602 42.8481 440.593 42.9504 440.574C43.0527 440.555 43.1322 440.54 43.1891 440.528L43.4959 441.932C43.3974 441.97 43.2572 442.008 43.0754 442.045C42.8936 442.087 42.6663 442.11 42.3936 442.114C41.9466 442.121 41.53 442.042 41.1436 441.875C40.7572 441.708 40.4447 441.451 40.2061 441.102C39.9675 440.754 39.8481 440.316 39.8481 439.79V431.182ZM48.6224 442.176C47.8042 442.176 47.0902 441.989 46.4804 441.614C45.8705 441.239 45.3971 440.714 45.0599 440.04C44.7228 439.366 44.5542 438.578 44.5542 437.676C44.5542 436.771 44.7228 435.979 45.0599 435.301C45.3971 434.623 45.8705 434.097 46.4804 433.722C47.0902 433.347 47.8042 433.159 48.6224 433.159C49.4406 433.159 50.1546 433.347 50.7645 433.722C51.3743 434.097 51.8478 434.623 52.1849 435.301C52.5221 435.979 52.6906 436.771 52.6906 437.676C52.6906 438.578 52.5221 439.366 52.1849 440.04C51.8478 440.714 51.3743 441.239 50.7645 441.614C50.1546 441.989 49.4406 442.176 48.6224 442.176ZM48.6281 440.75C49.1584 440.75 49.5978 440.61 49.9463 440.33C50.2948 440.049 50.5524 439.676 50.719 439.21C50.8895 438.744 50.9747 438.231 50.9747 437.67C50.9747 437.114 50.8895 436.602 50.719 436.136C50.5524 435.667 50.2948 435.29 49.9463 435.006C49.5978 434.722 49.1584 434.58 48.6281 434.58C48.094 434.58 47.6508 434.722 47.2986 435.006C46.9501 435.29 46.6906 435.667 46.5202 436.136C46.3535 436.602 46.2702 437.114 46.2702 437.67C46.2702 438.231 46.3535 438.744 46.5202 439.21C46.6906 439.676 46.9501 440.049 47.2986 440.33C47.6508 440.61 48.094 440.75 48.6281 440.75ZM58.0871 442.176C57.2424 442.176 56.5151 441.985 55.9052 441.602C55.2992 441.216 54.8333 440.684 54.5075 440.006C54.1818 439.328 54.0189 438.551 54.0189 437.676C54.0189 436.79 54.1855 436.008 54.5189 435.33C54.8522 434.648 55.3219 434.116 55.928 433.733C56.534 433.35 57.248 433.159 58.07 433.159C58.7329 433.159 59.3238 433.282 59.8427 433.528C60.3617 433.771 60.7802 434.112 61.0984 434.551C61.4204 434.991 61.6117 435.504 61.6723 436.091H60.0189C59.928 435.682 59.7196 435.33 59.3939 435.034C59.0719 434.739 58.6401 434.591 58.0984 434.591C57.6249 434.591 57.2102 434.716 56.8541 434.966C56.5018 435.212 56.2272 435.564 56.0302 436.023C55.8333 436.477 55.7348 437.015 55.7348 437.636C55.7348 438.273 55.8314 438.822 56.0246 439.284C56.2177 439.746 56.4905 440.104 56.8427 440.358C57.1988 440.612 57.6174 440.739 58.0984 440.739C58.4204 440.739 58.7121 440.68 58.9734 440.562C59.2386 440.441 59.4602 440.269 59.6382 440.045C59.82 439.822 59.9469 439.553 60.0189 439.239H61.6723C61.6117 439.803 61.428 440.307 61.1211 440.75C60.8143 441.193 60.4033 441.542 59.8882 441.795C59.3768 442.049 58.7765 442.176 58.0871 442.176ZM64.8755 439.04L64.8642 436.966H65.1596L68.6369 433.273H70.671L66.7051 437.477H66.438L64.8755 439.04ZM63.313 442V430.364H65.0119V442H63.313ZM68.8244 442L65.6994 437.852L66.8699 436.665L70.9096 442H68.8244ZM82.5846 433.42C82.524 432.883 82.274 432.466 81.8346 432.17C81.3952 431.871 80.8422 431.722 80.1755 431.722C79.6983 431.722 79.2854 431.797 78.9369 431.949C78.5884 432.097 78.3176 432.301 78.1244 432.562C77.935 432.82 77.8403 433.114 77.8403 433.443C77.8403 433.72 77.9047 433.958 78.0335 434.159C78.1661 434.36 78.3384 434.528 78.5505 434.665C78.7664 434.797 78.9975 434.909 79.2437 435C79.4899 435.087 79.7267 435.159 79.9539 435.216L81.0903 435.511C81.4615 435.602 81.8422 435.725 82.2324 435.881C82.6225 436.036 82.9842 436.241 83.3176 436.494C83.6509 436.748 83.9199 437.062 84.1244 437.438C84.3327 437.812 84.4369 438.261 84.4369 438.784C84.4369 439.443 84.2664 440.028 83.9255 440.54C83.5884 441.051 83.0979 441.455 82.4539 441.75C81.8138 442.045 81.0392 442.193 80.1301 442.193C79.2589 442.193 78.5051 442.055 77.8687 441.778C77.2324 441.502 76.7342 441.11 76.3744 440.602C76.0145 440.091 75.8157 439.485 75.7778 438.784H77.5392C77.5733 439.205 77.7096 439.555 77.9483 439.835C78.1907 440.112 78.4994 440.318 78.8744 440.455C79.2532 440.587 79.668 440.653 80.1187 440.653C80.6149 440.653 81.0562 440.576 81.4426 440.42C81.8327 440.261 82.1395 440.042 82.363 439.761C82.5865 439.477 82.6983 439.146 82.6983 438.767C82.6983 438.422 82.5998 438.14 82.4028 437.92C82.2096 437.701 81.9464 437.519 81.613 437.375C81.2835 437.231 80.9104 437.104 80.4937 436.994L79.1187 436.619C78.1869 436.366 77.4483 435.992 76.9028 435.5C76.3611 435.008 76.0903 434.356 76.0903 433.545C76.0903 432.875 76.2721 432.29 76.6358 431.79C76.9994 431.29 77.4918 430.902 78.113 430.625C78.7342 430.345 79.435 430.205 80.2153 430.205C81.0032 430.205 81.6983 430.343 82.3005 430.619C82.9066 430.896 83.3839 431.277 83.7324 431.761C84.0808 432.242 84.2627 432.795 84.2778 433.42H82.5846ZM90.2964 433.273V434.636H85.5294V433.273H90.2964ZM86.8078 431.182H88.5066V439.438C88.5066 439.767 88.5559 440.015 88.6544 440.182C88.7529 440.345 88.8797 440.456 89.035 440.517C89.1941 440.574 89.3665 440.602 89.5521 440.602C89.6885 440.602 89.8078 440.593 89.91 440.574C90.0123 440.555 90.0919 440.54 90.1487 440.528L90.4555 441.932C90.357 441.97 90.2169 442.008 90.035 442.045C89.8532 442.087 89.626 442.11 89.3532 442.114C88.9063 442.121 88.4896 442.042 88.1032 441.875C87.7169 441.708 87.4044 441.451 87.1657 441.102C86.9271 440.754 86.8078 440.316 86.8078 439.79V431.182ZM94.5394 442.193C93.9864 442.193 93.4864 442.091 93.0394 441.886C92.5925 441.678 92.2383 441.377 91.9769 440.983C91.7194 440.589 91.5906 440.106 91.5906 439.534C91.5906 439.042 91.6853 438.636 91.8747 438.318C92.0641 438 92.3197 437.748 92.6417 437.562C92.9637 437.377 93.3235 437.237 93.7213 437.142C94.119 437.047 94.5243 436.975 94.9372 436.926C95.4599 436.866 95.8841 436.816 96.2099 436.778C96.5357 436.737 96.7724 436.67 96.9201 436.58C97.0679 436.489 97.1417 436.341 97.1417 436.136V436.097C97.1417 435.6 97.0016 435.216 96.7213 434.943C96.4447 434.67 96.0319 434.534 95.4826 434.534C94.9107 434.534 94.4599 434.661 94.1304 434.915C93.8046 435.165 93.5792 435.443 93.4542 435.75L91.8576 435.386C92.047 434.856 92.3235 434.428 92.6872 434.102C93.0546 433.773 93.4769 433.534 93.9542 433.386C94.4315 433.235 94.9334 433.159 95.4599 433.159C95.8084 433.159 96.1777 433.201 96.5679 433.284C96.9618 433.364 97.3292 433.511 97.6701 433.727C98.0148 433.943 98.297 434.252 98.5167 434.653C98.7364 435.051 98.8463 435.568 98.8463 436.205V442H97.1872V440.807H97.119C97.0091 441.027 96.8444 441.242 96.6247 441.455C96.405 441.667 96.1228 441.843 95.7781 441.983C95.4334 442.123 95.0205 442.193 94.5394 442.193ZM94.9088 440.83C95.3785 440.83 95.78 440.737 96.1133 440.551C96.4504 440.366 96.7061 440.123 96.8804 439.824C97.0584 439.521 97.1474 439.197 97.1474 438.852V437.727C97.0868 437.788 96.9694 437.845 96.7951 437.898C96.6247 437.947 96.4296 437.991 96.2099 438.028C95.9902 438.062 95.7762 438.095 95.5679 438.125C95.3595 438.152 95.1853 438.174 95.0451 438.193C94.7156 438.235 94.4144 438.305 94.1417 438.403C93.8728 438.502 93.6569 438.644 93.494 438.83C93.3349 439.011 93.2554 439.254 93.2554 439.557C93.2554 439.977 93.4107 440.295 93.7213 440.511C94.0319 440.723 94.4277 440.83 94.9088 440.83ZM105.007 433.273V434.636H100.24V433.273H105.007ZM101.518 431.182H103.217V439.438C103.217 439.767 103.266 440.015 103.365 440.182C103.463 440.345 103.59 440.456 103.746 440.517C103.905 440.574 104.077 440.602 104.263 440.602C104.399 440.602 104.518 440.593 104.621 440.574C104.723 440.555 104.802 440.54 104.859 440.528L105.166 441.932C105.068 441.97 104.927 442.008 104.746 442.045C104.564 442.087 104.336 442.11 104.064 442.114C103.617 442.121 103.2 442.042 102.814 441.875C102.427 441.708 102.115 441.451 101.876 441.102C101.638 440.754 101.518 440.316 101.518 439.79V431.182ZM112.239 438.381V433.273H113.943V442H112.273V440.489H112.182C111.981 440.955 111.659 441.343 111.216 441.653C110.776 441.96 110.229 442.114 109.574 442.114C109.013 442.114 108.517 441.991 108.085 441.744C107.657 441.494 107.32 441.125 107.074 440.636C106.831 440.148 106.71 439.544 106.71 438.824V433.273H108.409V438.619C108.409 439.214 108.574 439.687 108.903 440.04C109.233 440.392 109.661 440.568 110.187 440.568C110.506 440.568 110.822 440.489 111.136 440.33C111.454 440.17 111.718 439.93 111.926 439.608C112.138 439.286 112.242 438.877 112.239 438.381ZM122.59 435.403L121.05 435.676C120.985 435.479 120.883 435.292 120.743 435.114C120.607 434.936 120.421 434.79 120.186 434.676C119.951 434.562 119.658 434.506 119.305 434.506C118.824 434.506 118.423 434.614 118.101 434.83C117.779 435.042 117.618 435.316 117.618 435.653C117.618 435.945 117.726 436.18 117.942 436.358C118.158 436.536 118.506 436.682 118.987 436.795L120.374 437.114C121.177 437.299 121.775 437.585 122.169 437.972C122.563 438.358 122.76 438.86 122.76 439.477C122.76 440 122.609 440.466 122.305 440.875C122.006 441.28 121.588 441.598 121.05 441.83C120.516 442.061 119.896 442.176 119.192 442.176C118.215 442.176 117.417 441.968 116.8 441.551C116.182 441.131 115.804 440.534 115.663 439.761L117.305 439.511C117.408 439.939 117.618 440.263 117.936 440.483C118.254 440.699 118.669 440.807 119.18 440.807C119.737 440.807 120.182 440.691 120.516 440.46C120.849 440.225 121.016 439.939 121.016 439.602C121.016 439.33 120.913 439.1 120.709 438.915C120.508 438.729 120.199 438.589 119.783 438.494L118.305 438.17C117.491 437.985 116.889 437.689 116.499 437.284C116.112 436.879 115.919 436.366 115.919 435.744C115.919 435.229 116.063 434.778 116.351 434.392C116.639 434.006 117.037 433.705 117.544 433.489C118.052 433.269 118.633 433.159 119.288 433.159C120.232 433.159 120.974 433.364 121.516 433.773C122.057 434.178 122.415 434.722 122.59 435.403Z" fill="#7B7B7B"/>
<path d="M248.544 441.169C247.758 441.166 247.087 440.959 246.53 440.548C245.974 440.137 245.548 439.538 245.253 438.753C244.958 437.967 244.81 437.021 244.81 435.914C244.81 434.81 244.958 433.867 245.253 433.085C245.551 432.303 245.979 431.706 246.535 431.295C247.096 430.884 247.765 430.679 248.544 430.679C249.323 430.679 249.991 430.886 250.547 431.3C251.104 431.711 251.53 432.308 251.825 433.09C252.123 433.869 252.273 434.81 252.273 435.914C252.273 437.024 252.125 437.972 251.83 438.758C251.535 439.54 251.109 440.138 250.552 440.553C249.996 440.964 249.326 441.169 248.544 441.169ZM248.544 439.842C249.233 439.842 249.772 439.505 250.16 438.832C250.551 438.16 250.746 437.187 250.746 435.914C250.746 435.069 250.657 434.355 250.478 433.771C250.302 433.185 250.049 432.741 249.717 432.439C249.389 432.134 248.998 431.982 248.544 431.982C247.858 431.982 247.319 432.32 246.928 432.996C246.537 433.672 246.34 434.645 246.337 435.914C246.337 436.763 246.424 437.48 246.6 438.067C246.779 438.65 247.033 439.093 247.361 439.394C247.689 439.692 248.083 439.842 248.544 439.842ZM260.81 441.154C260.094 441.154 259.469 440.99 258.936 440.662C258.402 440.334 257.988 439.875 257.693 439.285C257.398 438.695 257.25 438.005 257.25 437.217C257.25 436.424 257.398 435.732 257.693 435.138C257.988 434.545 258.402 434.085 258.936 433.756C259.469 433.428 260.094 433.264 260.81 433.264C261.526 433.264 262.151 433.428 262.684 433.756C263.218 434.085 263.632 434.545 263.927 435.138C264.222 435.732 264.37 436.424 264.37 437.217C264.37 438.005 264.222 438.695 263.927 439.285C263.632 439.875 263.218 440.334 262.684 440.662C262.151 440.99 261.526 441.154 260.81 441.154ZM260.815 439.906C261.279 439.906 261.663 439.784 261.968 439.538C262.273 439.293 262.499 438.967 262.644 438.559C262.794 438.151 262.868 437.702 262.868 437.212C262.868 436.724 262.794 436.277 262.644 435.869C262.499 435.458 262.273 435.129 261.968 434.88C261.663 434.631 261.279 434.507 260.815 434.507C260.348 434.507 259.96 434.631 259.651 434.88C259.347 435.129 259.12 435.458 258.97 435.869C258.825 436.277 258.752 436.724 258.752 437.212C258.752 437.702 258.825 438.151 258.97 438.559C259.12 438.967 259.347 439.293 259.651 439.538C259.96 439.784 260.348 439.906 260.815 439.906ZM270.782 437.833V433.364H272.274V441H270.812V439.678H270.732C270.557 440.085 270.275 440.425 269.887 440.697C269.503 440.965 269.024 441.099 268.45 441.099C267.96 441.099 267.526 440.992 267.148 440.776C266.773 440.558 266.478 440.234 266.263 439.807C266.051 439.379 265.945 438.851 265.945 438.221V433.364H267.431V438.042C267.431 438.562 267.575 438.977 267.864 439.285C268.152 439.593 268.527 439.747 268.987 439.747C269.266 439.747 269.543 439.678 269.818 439.538C270.096 439.399 270.326 439.189 270.509 438.907C270.694 438.625 270.785 438.267 270.782 437.833ZM277.752 433.364V434.557H273.58V433.364H277.752ZM274.699 431.534H276.186V438.758C276.186 439.046 276.229 439.263 276.315 439.409C276.401 439.552 276.512 439.649 276.648 439.702C276.787 439.752 276.938 439.777 277.1 439.777C277.22 439.777 277.324 439.769 277.414 439.752C277.503 439.736 277.573 439.722 277.622 439.712L277.891 440.94C277.805 440.973 277.682 441.007 277.523 441.04C277.364 441.076 277.165 441.096 276.926 441.099C276.535 441.106 276.171 441.036 275.833 440.891C275.494 440.745 275.221 440.519 275.012 440.214C274.803 439.91 274.699 439.527 274.699 439.066V431.534ZM286.15 441.154C285.434 441.154 284.809 440.99 284.275 440.662C283.742 440.334 283.327 439.875 283.032 439.285C282.737 438.695 282.59 438.005 282.59 437.217C282.59 436.424 282.737 435.732 283.032 435.138C283.327 434.545 283.742 434.085 284.275 433.756C284.809 433.428 285.434 433.264 286.15 433.264C286.866 433.264 287.49 433.428 288.024 433.756C288.558 434.085 288.972 434.545 289.267 435.138C289.562 435.732 289.709 436.424 289.709 437.217C289.709 438.005 289.562 438.695 289.267 439.285C288.972 439.875 288.558 440.334 288.024 440.662C287.49 440.99 286.866 441.154 286.15 441.154ZM286.155 439.906C286.619 439.906 287.003 439.784 287.308 439.538C287.613 439.293 287.838 438.967 287.984 438.559C288.133 438.151 288.208 437.702 288.208 437.212C288.208 436.724 288.133 436.277 287.984 435.869C287.838 435.458 287.613 435.129 287.308 434.88C287.003 434.631 286.619 434.507 286.155 434.507C285.687 434.507 285.299 434.631 284.991 434.88C284.686 435.129 284.459 435.458 284.31 435.869C284.164 436.277 284.091 436.724 284.091 437.212C284.091 437.702 284.164 438.151 284.31 438.559C284.459 438.967 284.686 439.293 284.991 439.538C285.299 439.784 285.687 439.906 286.155 439.906ZM294.919 433.364V434.557H290.603V433.364H294.919ZM291.787 441V432.479C291.787 432.001 291.891 431.605 292.1 431.29C292.309 430.972 292.585 430.735 292.93 430.58C293.275 430.42 293.649 430.341 294.054 430.341C294.352 430.341 294.607 430.366 294.819 430.415C295.031 430.462 295.189 430.505 295.292 430.545L294.944 431.748C294.874 431.728 294.785 431.705 294.675 431.678C294.566 431.648 294.433 431.634 294.277 431.634C293.916 431.634 293.658 431.723 293.502 431.902C293.349 432.081 293.273 432.339 293.273 432.678V441H291.787ZM303.514 441.169C302.729 441.166 302.058 440.959 301.501 440.548C300.944 440.137 300.518 439.538 300.223 438.753C299.928 437.967 299.781 437.021 299.781 435.914C299.781 434.81 299.928 433.867 300.223 433.085C300.522 432.303 300.949 431.706 301.506 431.295C302.066 430.884 302.736 430.679 303.514 430.679C304.293 430.679 304.961 430.886 305.518 431.3C306.075 431.711 306.501 432.308 306.796 433.09C307.094 433.869 307.243 434.81 307.243 435.914C307.243 437.024 307.096 437.972 306.801 438.758C306.506 439.54 306.08 440.138 305.523 440.553C304.966 440.964 304.297 441.169 303.514 441.169ZM303.514 439.842C304.204 439.842 304.742 439.505 305.13 438.832C305.521 438.16 305.717 437.187 305.717 435.914C305.717 435.069 305.627 434.355 305.448 433.771C305.273 433.185 305.019 432.741 304.688 432.439C304.36 432.134 303.969 431.982 303.514 431.982C302.828 431.982 302.29 432.32 301.899 432.996C301.508 433.672 301.31 434.645 301.307 435.914C301.307 436.763 301.395 437.48 301.571 438.067C301.75 438.65 302.003 439.093 302.331 439.394C302.659 439.692 303.054 439.842 303.514 439.842ZM317.401 437.833V433.364H318.893V441H317.431V439.678H317.351C317.176 440.085 316.894 440.425 316.506 440.697C316.122 440.965 315.643 441.099 315.069 441.099C314.579 441.099 314.145 440.992 313.767 440.776C313.392 440.558 313.097 440.234 312.882 439.807C312.67 439.379 312.564 438.851 312.564 438.221V433.364H314.05V438.042C314.05 438.562 314.194 438.977 314.483 439.285C314.771 439.593 315.146 439.747 315.606 439.747C315.885 439.747 316.162 439.678 316.437 439.538C316.715 439.399 316.945 439.189 317.128 438.907C317.313 438.625 317.404 438.267 317.401 437.833ZM322.292 436.466V441H320.806V433.364H322.233V434.607H322.327C322.503 434.202 322.778 433.877 323.153 433.632C323.53 433.387 324.006 433.264 324.579 433.264C325.1 433.264 325.556 433.374 325.947 433.592C326.338 433.808 326.641 434.129 326.856 434.557C327.072 434.984 327.18 435.513 327.18 436.143V441H325.693V436.322C325.693 435.768 325.549 435.336 325.261 435.024C324.972 434.709 324.576 434.552 324.072 434.552C323.728 434.552 323.421 434.626 323.153 434.776C322.887 434.925 322.677 435.143 322.521 435.432C322.369 435.717 322.292 436.062 322.292 436.466ZM329.089 441V433.364H330.576V441H329.089ZM329.84 432.185C329.581 432.185 329.359 432.099 329.174 431.927C328.991 431.751 328.9 431.542 328.9 431.3C328.9 431.055 328.991 430.846 329.174 430.674C329.359 430.498 329.581 430.411 329.84 430.411C330.098 430.411 330.319 430.498 330.501 430.674C330.687 430.846 330.78 431.055 330.78 431.3C330.78 431.542 330.687 431.751 330.501 431.927C330.319 432.099 330.098 432.185 329.84 432.185ZM336.056 433.364V434.557H331.885V433.364H336.056ZM333.004 431.534H334.49V438.758C334.49 439.046 334.533 439.263 334.619 439.409C334.706 439.552 334.817 439.649 334.952 439.702C335.092 439.752 335.242 439.777 335.405 439.777C335.524 439.777 335.629 439.769 335.718 439.752C335.808 439.736 335.877 439.722 335.927 439.712L336.195 440.94C336.109 440.973 335.987 441.007 335.827 441.04C335.668 441.076 335.469 441.096 335.231 441.099C334.84 441.106 334.475 441.036 334.137 440.891C333.799 440.745 333.526 440.519 333.317 440.214C333.108 439.91 333.004 439.527 333.004 439.066V431.534ZM343.216 435.228L341.868 435.467C341.812 435.294 341.723 435.13 341.6 434.974C341.481 434.819 341.318 434.691 341.113 434.592C340.907 434.492 340.65 434.442 340.342 434.442C339.921 434.442 339.57 434.537 339.288 434.726C339.006 434.911 338.866 435.152 338.866 435.447C338.866 435.702 338.96 435.907 339.149 436.063C339.338 436.219 339.643 436.347 340.064 436.446L341.277 436.724C341.979 436.887 342.503 437.137 342.848 437.475C343.193 437.813 343.365 438.252 343.365 438.793C343.365 439.25 343.232 439.658 342.967 440.016C342.705 440.37 342.339 440.649 341.868 440.851C341.401 441.053 340.859 441.154 340.243 441.154C339.388 441.154 338.69 440.972 338.15 440.607C337.609 440.239 337.278 439.717 337.155 439.041L338.592 438.822C338.682 439.197 338.866 439.48 339.144 439.673C339.422 439.862 339.785 439.956 340.233 439.956C340.72 439.956 341.109 439.855 341.401 439.653C341.693 439.447 341.839 439.197 341.839 438.902C341.839 438.663 341.749 438.463 341.57 438.3C341.394 438.138 341.124 438.015 340.76 437.933L339.467 437.649C338.755 437.487 338.228 437.228 337.886 436.874C337.548 436.519 337.379 436.07 337.379 435.526C337.379 435.076 337.505 434.681 337.757 434.343C338.009 434.005 338.357 433.741 338.801 433.553C339.245 433.36 339.754 433.264 340.327 433.264C341.153 433.264 341.802 433.443 342.276 433.801C342.75 434.156 343.063 434.631 343.216 435.228Z" fill="#7B7B7B"/>
<rect x="28" y="456" width="6" height="24" rx="1" fill="#333333"/>
<rect x="38" y="456" width="6" height="24" rx="1" fill="#333333"/>
<rect x="48" y="456" width="6" height="24" rx="1" fill="#333333"/>
<rect x="58" y="456" width="6" height="24" rx="1" fill="#333333"/>
<rect x="68" y="456" width="6" height="24" rx="1" fill="#333333"/>
<rect x="78" y="456" width="6" height="24" rx="1" fill="#333333"/>
<rect x="88" y="456" width="6" height="24" rx="1" fill="#333333"/>
<rect x="98" y="456" width="6" height="24" rx="1" fill="#333333"/>
<rect x="108" y="456" width="6" height="24" rx="1" fill="#333333"/>
<rect x="118" y="456" width="6" height="24" rx="1" fill="#333333"/>
<rect x="128" y="456" width="6" height="24" rx="1" fill="#333333"/>
<rect x="138" y="456" width="6" height="24" rx="1" fill="#333333"/>
<rect x="148" y="456" width="6" height="24" rx="1" fill="#333333"/>
<rect x="158" y="456" width="6" height="24" rx="1" fill="#333333"/>
<rect x="168" y="456" width="6" height="24" rx="1" fill="#333333"/>
<rect x="178" y="456" width="6" height="24" rx="1" fill="#333333"/>
<rect x="188" y="456" width="6" height="24" rx="1" fill="#333333"/>
<rect x="198" y="456" width="6" height="24" rx="1" fill="#333333"/>
<rect x="208" y="456" width="6" height="24" rx="1" fill="#333333"/>
<rect x="218" y="456" width="6" height="24" rx="1" fill="#333333"/>
<rect x="228" y="456" width="6" height="24" rx="1" fill="#333333"/>
<rect x="238" y="456" width="6" height="24" rx="1" fill="#333333"/>
<rect x="248" y="456" width="6" height="24" rx="1" fill="#333333"/>
<rect x="258" y="456" width="6" height="24" rx="1" fill="#333333"/>
<rect x="268" y="456" width="6" height="24" rx="1" fill="#333333"/>
<rect x="278" y="456" width="6" height="24" rx="1" fill="#333333"/>
<rect x="288" y="456" width="6" height="24" rx="1" fill="#333333"/>
<rect x="298" y="456" width="6" height="24" rx="1" fill="#333333"/>
<rect x="308" y="456" width="6" height="24" rx="1" fill="#333333"/>
<rect x="318" y="456" width="6" height="24" rx="1" fill="#333333"/>
<rect x="328" y="456" width="6" height="24" rx="1" fill="#333333"/>
<rect x="338" y="456" width="6" height="24" rx="1" fill="#333333"/>
</svg>
