<svg width="24" height="24" viewBox="0 0 24 24" fill="none" xmlns="http://www.w3.org/2000/svg">
<path d="M0 4C0 1.79086 1.79086 0 4 0H20C22.2091 0 24 1.79086 24 4V20C24 22.2091 22.2091 24 20 24H4C1.79086 24 0 22.2091 0 20V4Z" fill="white"/>
<g clip-path="url(#clip0_1612_8120)">
<path d="M12 22C17.5228 22 22 17.5228 22 12C22 6.47715 17.5228 2 12 2C6.47715 2 2 6.47715 2 12C2 17.5228 6.47715 22 12 22Z" fill="#F0F0F0"/>
<path d="M7.6521 15.4782L8.52167 21.3781C9.60495 21.7801 10.7767 22 11.9999 22C16.2995 22 19.965 19.2862 21.3779 15.4782H7.6521Z" fill="black"/>
<path d="M7.6521 8.52176L8.52167 2.62191C9.60495 2.21992 10.7767 2 11.9999 2C16.2995 2 19.965 4.71375 21.3779 8.52176H7.6521Z" fill="#6DA544"/>
<path d="M2 12C2 16.2996 4.71379 19.9651 8.52176 21.378V2.62199C4.71379 4.03492 2 7.70035 2 12Z" fill="#A2001D"/>
</g>
<defs>
<clipPath id="clip0_1612_8120">
<rect width="20" height="20" fill="white" transform="translate(2 2)"/>
</clipPath>
</defs>
</svg>
