<svg width="24" height="24" viewBox="0 0 24 24" fill="none" xmlns="http://www.w3.org/2000/svg">

<g clip-path="url(#clip0_2105_4642)">
<path d="M22 12C22 17.5228 17.5228 22 12 22C6.47719 22 2 17.5228 2 12C2 12.0023 12 2.00113 12 2C17.5228 2 22 6.47719 22 12Z" fill="#0052B4"/>
<path d="M12 2C11.9994 2 11.9988 2.00004 11.9983 2.00004L12 2Z" fill="#F0F0F0"/>
<path d="M11.9731 12H11.9999C11.9999 11.9909 11.9999 11.9823 11.9999 11.9732C11.991 11.9822 11.9821 11.9911 11.9731 12Z" fill="#F0F0F0"/>
<path d="M12 7.21743C12 5.45786 12 4.30485 12 2.00005H11.9983C6.47625 2.00094 2 6.4777 2 12H7.21738V9.06204L10.1554 12H11.9733C11.9822 11.9911 11.9911 11.9822 12 11.9732C12 11.2995 12 10.6984 12 10.1554L9.06203 7.21743H12Z" fill="#F0F0F0"/>
<path d="M7.05929 3.30434C5.49526 4.19492 4.19503 5.49516 3.30444 7.05918V12H5.91315V5.91309V5.91305H12.0001C12.0001 5.09027 12.0001 4.30645 12.0001 3.30434H7.05929Z" fill="#D80027"/>
<path d="M12.0001 10.7703L8.44726 7.21746H7.21753C7.21753 7.21742 7.21753 7.21746 7.21753 7.21746L12.0001 12H12.0001C12.0001 12 12.0001 11.1521 12.0001 10.7703Z" fill="#D80027"/>
<path d="M8.03107 13.7391L8.5799 14.8867L9.81924 14.6003L9.26424 15.7449L10.2609 16.5352L9.01998 16.8149L9.02346 18.0869L8.03107 17.2911L7.03873 18.0869L7.04221 16.8149L5.80127 16.5352L6.79795 15.7449L6.24287 14.6003L7.48228 14.8867L8.03107 13.7391Z" fill="#F0F0F0"/>
<path d="M16.9721 15.913L17.2465 16.4868L17.8662 16.3436L17.5886 16.9159L18.087 17.3111L17.4665 17.4509L17.4682 18.0869L16.9721 17.689L16.4759 18.0869L16.4776 17.4509L15.8572 17.3111L16.3555 16.9159L16.078 16.3436L16.6976 16.4868L16.9721 15.913Z" fill="#F0F0F0"/>
<path d="M14.4194 9.8261L14.6937 10.3999L15.3134 10.2566L15.0359 10.8289L15.5342 11.2241L14.9138 11.364L14.9155 12L14.4194 11.6021L13.9232 12L13.9249 11.364L13.3044 11.2241L13.8028 10.8289L13.5253 10.2566L14.145 10.3999L14.4194 9.8261Z" fill="#F0F0F0"/>
<path d="M16.9721 6.34781L17.2465 6.92164L17.8662 6.77839L17.5887 7.3507L18.0869 7.74586L17.4665 7.88574L17.4682 8.52175L16.9721 8.12382L16.4759 8.52175L16.4776 7.88574L15.8572 7.74586L16.3555 7.3507L16.078 6.77839L16.6976 6.92164L16.9721 6.34781Z" fill="#F0F0F0"/>
<path d="M19.2018 8.95651L19.4762 9.53034L20.0959 9.38706L19.8184 9.95936L20.3167 10.3546L19.6963 10.4944L19.698 11.1304L19.2018 10.7325L18.7057 11.1304L18.7073 10.4944L18.0869 10.3546L18.5852 9.95936L18.3077 9.38706L18.9274 9.53034L19.2018 8.95651Z" fill="#F0F0F0"/>
<path d="M17.6075 12L17.8233 12.6643H18.5218L17.9567 13.0749L18.1726 13.7391L17.6075 13.3286L17.0424 13.7391L17.2582 13.0749L16.6931 12.6643H17.3916L17.6075 12Z" fill="#F0F0F0"/>
</g>
<defs>
<clipPath id="clip0_2105_4642">
<rect width="20" height="20" fill="white" transform="translate(2 2)"/>
</clipPath>
</defs>
</svg>
