<svg width="24" height="24" viewBox="0 0 24 24" fill="none" xmlns="http://www.w3.org/2000/svg">

<g clip-path="url(#clip0_2105_4691)">
<path d="M12 22C17.5228 22 22 17.5228 22 12C22 6.47715 17.5228 2 12 2C6.47715 2 2 6.47715 2 12C2 17.5228 6.47715 22 12 22Z" fill="#F0F0F0"/>
<path d="M11.9999 2C8.03531 2 4.60969 4.30723 2.99219 7.65219H21.0076C19.3902 4.30723 15.9645 2 11.9999 2V2Z" fill="#FF9811"/>
<path d="M11.9999 22C15.9645 22 19.3902 19.6928 21.0077 16.3478H2.99219C4.60969 19.6928 8.03531 22 11.9999 22Z" fill="#6DA544"/>
<path d="M12 15.4782C13.921 15.4782 15.4782 13.921 15.4782 12C15.4782 10.079 13.921 8.52176 12 8.52176C10.079 8.52176 8.52173 10.079 8.52173 12C8.52173 13.921 10.079 15.4782 12 15.4782Z" fill="#0052B4"/>
<path d="M12.0001 14.1739C13.2007 14.1739 14.174 13.2006 14.174 12C14.174 10.7994 13.2007 9.8261 12.0001 9.8261C10.7995 9.8261 9.82617 10.7994 9.82617 12C9.82617 13.2006 10.7995 14.1739 12.0001 14.1739Z" fill="#F0F0F0"/>
<path d="M11.9999 9.31743L12.6706 10.8384L14.3231 10.6587L13.3412 12L14.3231 13.3413L12.6706 13.1616L11.9999 14.6826L11.3293 13.1616L9.67676 13.3413L10.6586 12L9.67676 10.6587L11.3293 10.8384L11.9999 9.31743Z" fill="#0052B4"/>
</g>
<defs>
<clipPath id="clip0_2105_4691">
<rect width="20" height="20" fill="white" transform="translate(2 2)"/>
</clipPath>
</defs>
</svg>
